<mxfile host="app.diagrams.net" modified="2023-06-05T17:58:21.618Z" agent="Mozilla/5.0 (Windows NT 10.0; Win64; x64) AppleWebKit/537.36 (KHTML, like Gecko) Chrome/113.0.0.0 Safari/537.36" etag="35VaIULMvnnNXaBjrLH-" version="21.3.7" type="device" pages="6">
  <diagram name="Caso de Uso" id="beJk4SiVfzU54dRw5V-y">
    <mxGraphModel dx="678" dy="628" grid="1" gridSize="10" guides="1" tooltips="1" connect="1" arrows="1" fold="1" page="1" pageScale="1" pageWidth="850" pageHeight="1100" math="0" shadow="0">
      <root>
        <mxCell id="0" />
        <mxCell id="1" parent="0" />
        <mxCell id="IKgbwwP6uM3oStOvXPCj-7" style="rounded=0;orthogonalLoop=1;jettySize=auto;html=1;entryX=0;entryY=0.5;entryDx=0;entryDy=0;endArrow=none;endFill=0;" parent="1" source="qYrRJ5DqFQSHZFktFfGF-1" target="Pi5DOGZevUM3zTuA99L1-12" edge="1">
          <mxGeometry relative="1" as="geometry">
            <mxPoint x="240" y="217.5" as="targetPoint" />
          </mxGeometry>
        </mxCell>
        <mxCell id="IKgbwwP6uM3oStOvXPCj-8" style="rounded=0;orthogonalLoop=1;jettySize=auto;html=1;entryX=0;entryY=0.5;entryDx=0;entryDy=0;endArrow=none;endFill=0;" parent="1" source="qYrRJ5DqFQSHZFktFfGF-1" target="Pi5DOGZevUM3zTuA99L1-16" edge="1">
          <mxGeometry relative="1" as="geometry">
            <mxPoint x="235" y="457.5" as="targetPoint" />
          </mxGeometry>
        </mxCell>
        <mxCell id="qYrRJ5DqFQSHZFktFfGF-1" value="Atendente" style="shape=umlActor;verticalLabelPosition=bottom;verticalAlign=top;html=1;outlineConnect=0;" parent="1" vertex="1">
          <mxGeometry x="310" y="277.5" width="30" height="60" as="geometry" />
        </mxCell>
        <mxCell id="IKgbwwP6uM3oStOvXPCj-16" style="rounded=0;orthogonalLoop=1;jettySize=auto;html=1;endArrow=none;endFill=0;" parent="1" source="qYrRJ5DqFQSHZFktFfGF-6" target="Pi5DOGZevUM3zTuA99L1-51" edge="1">
          <mxGeometry relative="1" as="geometry">
            <mxPoint x="198.1899265983002" y="620.0565712908492" as="targetPoint" />
          </mxGeometry>
        </mxCell>
        <mxCell id="qYrRJ5DqFQSHZFktFfGF-6" value="Dep. Frota" style="shape=umlActor;verticalLabelPosition=bottom;verticalAlign=top;html=1;outlineConnect=0;" parent="1" vertex="1">
          <mxGeometry x="200" y="390" width="30" height="60" as="geometry" />
        </mxCell>
        <mxCell id="Pi5DOGZevUM3zTuA99L1-5" value="Cadastrar/Atualizar Cliente" style="ellipse;whiteSpace=wrap;html=1;" parent="1" vertex="1">
          <mxGeometry x="415" y="277.5" width="120" height="80" as="geometry" />
        </mxCell>
        <mxCell id="Pi5DOGZevUM3zTuA99L1-7" style="rounded=0;orthogonalLoop=1;jettySize=auto;html=1;dashed=1;" parent="1" source="Pi5DOGZevUM3zTuA99L1-5" target="Pi5DOGZevUM3zTuA99L1-19" edge="1">
          <mxGeometry relative="1" as="geometry">
            <mxPoint x="605.0000000000068" y="232.49999999999977" as="targetPoint" />
          </mxGeometry>
        </mxCell>
        <mxCell id="GOy6fkbjHxBNA-RmFMrk-6" value="&amp;lt;&amp;lt;include&amp;gt;&amp;gt;" style="edgeLabel;html=1;align=center;verticalAlign=middle;resizable=0;points=[];fontSize=11;fontFamily=Helvetica;fontColor=default;" parent="Pi5DOGZevUM3zTuA99L1-7" vertex="1" connectable="0">
          <mxGeometry x="-0.1901" y="1" relative="1" as="geometry">
            <mxPoint as="offset" />
          </mxGeometry>
        </mxCell>
        <mxCell id="Pi5DOGZevUM3zTuA99L1-12" value="Buscar Cliente(s)" style="ellipse;whiteSpace=wrap;html=1;" parent="1" vertex="1">
          <mxGeometry x="415" y="102.5" width="120" height="80" as="geometry" />
        </mxCell>
        <mxCell id="Pi5DOGZevUM3zTuA99L1-13" value="Filtrar" style="ellipse;whiteSpace=wrap;html=1;" parent="1" vertex="1">
          <mxGeometry x="675" y="102.5" width="120" height="80" as="geometry" />
        </mxCell>
        <mxCell id="Pi5DOGZevUM3zTuA99L1-14" style="rounded=0;orthogonalLoop=1;jettySize=auto;html=1;dashed=1;" parent="1" source="Pi5DOGZevUM3zTuA99L1-12" target="Pi5DOGZevUM3zTuA99L1-13" edge="1">
          <mxGeometry relative="1" as="geometry">
            <mxPoint x="555" y="196.5" as="sourcePoint" />
            <mxPoint x="621" y="162.5" as="targetPoint" />
          </mxGeometry>
        </mxCell>
        <mxCell id="GOy6fkbjHxBNA-RmFMrk-1" value="&amp;lt;&amp;lt;extend&amp;gt;&amp;gt;" style="edgeLabel;html=1;align=center;verticalAlign=middle;resizable=0;points=[];fontSize=11;fontFamily=Helvetica;fontColor=default;" parent="Pi5DOGZevUM3zTuA99L1-14" vertex="1" connectable="0">
          <mxGeometry x="0.0765" y="1" relative="1" as="geometry">
            <mxPoint x="-15" y="-4" as="offset" />
          </mxGeometry>
        </mxCell>
        <mxCell id="Pi5DOGZevUM3zTuA99L1-15" value="Deletar Cliente" style="ellipse;whiteSpace=wrap;html=1;" parent="1" vertex="1">
          <mxGeometry x="415" y="192.5" width="120" height="80" as="geometry" />
        </mxCell>
        <mxCell id="Pi5DOGZevUM3zTuA99L1-16" value="Fazer Reserva" style="ellipse;whiteSpace=wrap;html=1;" parent="1" vertex="1">
          <mxGeometry x="415" y="367.5" width="120" height="80" as="geometry" />
        </mxCell>
        <mxCell id="Pi5DOGZevUM3zTuA99L1-17" value="Cancelar Reserva" style="ellipse;whiteSpace=wrap;html=1;" parent="1" vertex="1">
          <mxGeometry x="415" y="457.5" width="120" height="80" as="geometry" />
        </mxCell>
        <mxCell id="Pi5DOGZevUM3zTuA99L1-18" value="Buscar Reserva" style="ellipse;whiteSpace=wrap;html=1;" parent="1" vertex="1">
          <mxGeometry x="415" y="547.5" width="120" height="80" as="geometry" />
        </mxCell>
        <mxCell id="Pi5DOGZevUM3zTuA99L1-19" value="Validar Cliente" style="ellipse;whiteSpace=wrap;html=1;" parent="1" vertex="1">
          <mxGeometry x="635" y="197.5" width="120" height="80" as="geometry" />
        </mxCell>
        <mxCell id="Pi5DOGZevUM3zTuA99L1-21" value="Validar Local de busca e entrega" style="ellipse;whiteSpace=wrap;html=1;" parent="1" vertex="1">
          <mxGeometry x="715" y="287.5" width="120" height="80" as="geometry" />
        </mxCell>
        <mxCell id="Pi5DOGZevUM3zTuA99L1-22" value="Validar Veiculo" style="ellipse;whiteSpace=wrap;html=1;" parent="1" vertex="1">
          <mxGeometry x="715" y="397.5" width="120" height="80" as="geometry" />
        </mxCell>
        <mxCell id="Pi5DOGZevUM3zTuA99L1-23" value="Validar Pagamento" style="ellipse;whiteSpace=wrap;html=1;" parent="1" vertex="1">
          <mxGeometry x="625" y="487.5" width="120" height="80" as="geometry" />
        </mxCell>
        <mxCell id="Pi5DOGZevUM3zTuA99L1-25" style="rounded=0;orthogonalLoop=1;jettySize=auto;html=1;dashed=1;" parent="1" source="Pi5DOGZevUM3zTuA99L1-16" target="Pi5DOGZevUM3zTuA99L1-19" edge="1">
          <mxGeometry relative="1" as="geometry">
            <mxPoint x="545" y="237.5" as="sourcePoint" />
            <mxPoint x="615" y="237.5" as="targetPoint" />
          </mxGeometry>
        </mxCell>
        <mxCell id="GOy6fkbjHxBNA-RmFMrk-5" value="&amp;lt;&amp;lt;include&amp;gt;&amp;gt;" style="edgeLabel;html=1;align=center;verticalAlign=middle;resizable=0;points=[];fontSize=11;fontFamily=Helvetica;fontColor=default;" parent="Pi5DOGZevUM3zTuA99L1-25" vertex="1" connectable="0">
          <mxGeometry x="0.153" y="-2" relative="1" as="geometry">
            <mxPoint as="offset" />
          </mxGeometry>
        </mxCell>
        <mxCell id="Pi5DOGZevUM3zTuA99L1-26" style="rounded=0;orthogonalLoop=1;jettySize=auto;html=1;dashed=1;" parent="1" source="Pi5DOGZevUM3zTuA99L1-16" target="Pi5DOGZevUM3zTuA99L1-21" edge="1">
          <mxGeometry relative="1" as="geometry">
            <mxPoint x="555" y="247.5" as="sourcePoint" />
            <mxPoint x="625" y="247.5" as="targetPoint" />
          </mxGeometry>
        </mxCell>
        <mxCell id="GOy6fkbjHxBNA-RmFMrk-7" value="&amp;lt;&amp;lt;include&amp;gt;&amp;gt;" style="edgeLabel;html=1;align=center;verticalAlign=middle;resizable=0;points=[];fontSize=11;fontFamily=Helvetica;fontColor=default;" parent="Pi5DOGZevUM3zTuA99L1-26" vertex="1" connectable="0">
          <mxGeometry x="0.2151" y="-1" relative="1" as="geometry">
            <mxPoint as="offset" />
          </mxGeometry>
        </mxCell>
        <mxCell id="Pi5DOGZevUM3zTuA99L1-28" style="rounded=0;orthogonalLoop=1;jettySize=auto;html=1;dashed=1;" parent="1" source="Pi5DOGZevUM3zTuA99L1-16" target="Pi5DOGZevUM3zTuA99L1-22" edge="1">
          <mxGeometry relative="1" as="geometry">
            <mxPoint x="535" y="407.5" as="sourcePoint" />
            <mxPoint x="615" y="237.5" as="targetPoint" />
          </mxGeometry>
        </mxCell>
        <mxCell id="GOy6fkbjHxBNA-RmFMrk-4" value="&amp;lt;&amp;lt;include&amp;gt;&amp;gt;" style="edgeLabel;html=1;align=center;verticalAlign=middle;resizable=0;points=[];fontSize=11;fontFamily=Helvetica;fontColor=default;" parent="Pi5DOGZevUM3zTuA99L1-28" vertex="1" connectable="0">
          <mxGeometry x="0.117" relative="1" as="geometry">
            <mxPoint as="offset" />
          </mxGeometry>
        </mxCell>
        <mxCell id="Pi5DOGZevUM3zTuA99L1-29" style="rounded=0;orthogonalLoop=1;jettySize=auto;html=1;dashed=1;" parent="1" source="Pi5DOGZevUM3zTuA99L1-16" target="Pi5DOGZevUM3zTuA99L1-23" edge="1">
          <mxGeometry relative="1" as="geometry">
            <mxPoint x="555" y="247.5" as="sourcePoint" />
            <mxPoint x="625" y="247.5" as="targetPoint" />
          </mxGeometry>
        </mxCell>
        <mxCell id="GOy6fkbjHxBNA-RmFMrk-3" value="&amp;lt;&amp;lt;include&amp;gt;&amp;gt;" style="edgeLabel;html=1;align=center;verticalAlign=middle;resizable=0;points=[];fontSize=11;fontFamily=Helvetica;fontColor=default;" parent="Pi5DOGZevUM3zTuA99L1-29" vertex="1" connectable="0">
          <mxGeometry x="0.184" y="-1" relative="1" as="geometry">
            <mxPoint as="offset" />
          </mxGeometry>
        </mxCell>
        <mxCell id="Pi5DOGZevUM3zTuA99L1-30" value="Filtrar" style="ellipse;whiteSpace=wrap;html=1;" parent="1" vertex="1">
          <mxGeometry x="645" y="597.5" width="120" height="80" as="geometry" />
        </mxCell>
        <mxCell id="Pi5DOGZevUM3zTuA99L1-31" style="rounded=0;orthogonalLoop=1;jettySize=auto;html=1;dashed=1;" parent="1" source="Pi5DOGZevUM3zTuA99L1-18" target="Pi5DOGZevUM3zTuA99L1-30" edge="1">
          <mxGeometry relative="1" as="geometry">
            <mxPoint x="545" y="237.5" as="sourcePoint" />
            <mxPoint x="615" y="237.5" as="targetPoint" />
          </mxGeometry>
        </mxCell>
        <mxCell id="GOy6fkbjHxBNA-RmFMrk-2" value="&amp;lt;&amp;lt;extend&amp;gt;&amp;gt;" style="edgeLabel;html=1;align=center;verticalAlign=middle;resizable=0;points=[];fontSize=11;fontFamily=Helvetica;fontColor=default;" parent="Pi5DOGZevUM3zTuA99L1-31" vertex="1" connectable="0">
          <mxGeometry x="-0.1764" relative="1" as="geometry">
            <mxPoint x="-1" as="offset" />
          </mxGeometry>
        </mxCell>
        <mxCell id="Pi5DOGZevUM3zTuA99L1-32" style="rounded=0;orthogonalLoop=1;jettySize=auto;html=1;entryX=0;entryY=0.5;entryDx=0;entryDy=0;endArrow=none;endFill=0;" parent="1" source="qYrRJ5DqFQSHZFktFfGF-1" target="Pi5DOGZevUM3zTuA99L1-15" edge="1">
          <mxGeometry relative="1" as="geometry">
            <mxPoint x="45" y="295.5" as="sourcePoint" />
            <mxPoint x="425" y="237.5" as="targetPoint" />
          </mxGeometry>
        </mxCell>
        <mxCell id="Pi5DOGZevUM3zTuA99L1-35" style="rounded=0;orthogonalLoop=1;jettySize=auto;html=1;entryX=0;entryY=0.5;entryDx=0;entryDy=0;endArrow=none;endFill=0;" parent="1" source="qYrRJ5DqFQSHZFktFfGF-1" target="Pi5DOGZevUM3zTuA99L1-5" edge="1">
          <mxGeometry relative="1" as="geometry">
            <mxPoint x="55" y="282.5" as="sourcePoint" />
            <mxPoint x="425" y="417.5" as="targetPoint" />
          </mxGeometry>
        </mxCell>
        <mxCell id="Pi5DOGZevUM3zTuA99L1-36" style="rounded=0;orthogonalLoop=1;jettySize=auto;html=1;entryX=0;entryY=0.5;entryDx=0;entryDy=0;endArrow=none;endFill=0;" parent="1" source="qYrRJ5DqFQSHZFktFfGF-1" target="Pi5DOGZevUM3zTuA99L1-17" edge="1">
          <mxGeometry relative="1" as="geometry">
            <mxPoint x="65" y="292.5" as="sourcePoint" />
            <mxPoint x="435" y="427.5" as="targetPoint" />
          </mxGeometry>
        </mxCell>
        <mxCell id="Pi5DOGZevUM3zTuA99L1-37" style="rounded=0;orthogonalLoop=1;jettySize=auto;html=1;entryX=0;entryY=0.5;entryDx=0;entryDy=0;endArrow=none;endFill=0;" parent="1" source="qYrRJ5DqFQSHZFktFfGF-1" target="Pi5DOGZevUM3zTuA99L1-18" edge="1">
          <mxGeometry relative="1" as="geometry">
            <mxPoint x="55" y="277.5" as="sourcePoint" />
            <mxPoint x="425" y="507.5" as="targetPoint" />
          </mxGeometry>
        </mxCell>
        <mxCell id="Pi5DOGZevUM3zTuA99L1-51" value="Cadastrar Automóvel" style="ellipse;whiteSpace=wrap;html=1;" parent="1" vertex="1">
          <mxGeometry x="180" y="520" width="120" height="80" as="geometry" />
        </mxCell>
        <mxCell id="Pi5DOGZevUM3zTuA99L1-53" value="Remover Automóvel" style="ellipse;whiteSpace=wrap;html=1;" parent="1" vertex="1">
          <mxGeometry x="135" y="240" width="120" height="80" as="geometry" />
        </mxCell>
        <mxCell id="Pi5DOGZevUM3zTuA99L1-54" value="Editar Automóvel" style="ellipse;whiteSpace=wrap;html=1;" parent="1" vertex="1">
          <mxGeometry x="20" y="490" width="120" height="80" as="geometry" />
        </mxCell>
        <mxCell id="Pi5DOGZevUM3zTuA99L1-55" value="Buscar Automóvel" style="ellipse;whiteSpace=wrap;html=1;" parent="1" vertex="1">
          <mxGeometry x="10" y="350" width="120" height="80" as="geometry" />
        </mxCell>
        <mxCell id="Pi5DOGZevUM3zTuA99L1-56" style="rounded=0;orthogonalLoop=1;jettySize=auto;html=1;endArrow=none;endFill=0;" parent="1" source="qYrRJ5DqFQSHZFktFfGF-6" target="Pi5DOGZevUM3zTuA99L1-53" edge="1">
          <mxGeometry relative="1" as="geometry">
            <mxPoint x="300" y="700" as="targetPoint" />
            <mxPoint x="233" y="460" as="sourcePoint" />
          </mxGeometry>
        </mxCell>
        <mxCell id="Pi5DOGZevUM3zTuA99L1-57" style="rounded=0;orthogonalLoop=1;jettySize=auto;html=1;endArrow=none;endFill=0;" parent="1" source="qYrRJ5DqFQSHZFktFfGF-6" target="Pi5DOGZevUM3zTuA99L1-54" edge="1">
          <mxGeometry relative="1" as="geometry">
            <mxPoint x="310" y="710" as="targetPoint" />
            <mxPoint x="243" y="470" as="sourcePoint" />
          </mxGeometry>
        </mxCell>
        <mxCell id="Pi5DOGZevUM3zTuA99L1-58" style="rounded=0;orthogonalLoop=1;jettySize=auto;html=1;endArrow=none;endFill=0;" parent="1" source="qYrRJ5DqFQSHZFktFfGF-6" target="Pi5DOGZevUM3zTuA99L1-55" edge="1">
          <mxGeometry relative="1" as="geometry">
            <mxPoint x="320" y="720" as="targetPoint" />
            <mxPoint x="253" y="480" as="sourcePoint" />
          </mxGeometry>
        </mxCell>
      </root>
    </mxGraphModel>
  </diagram>
  <diagram id="CvjD9oUrIHpfXR84JfaE" name="Classe Carro">
    <mxGraphModel dx="678" dy="628" grid="1" gridSize="10" guides="1" tooltips="1" connect="1" arrows="1" fold="1" page="1" pageScale="1" pageWidth="850" pageHeight="1100" math="0" shadow="0">
      <root>
        <mxCell id="0" />
        <mxCell id="1" parent="0" />
        <mxCell id="JG5JnsqcSwLZImcnMqXA-61" style="edgeStyle=none;shape=connector;rounded=0;orthogonalLoop=1;jettySize=auto;html=1;labelBackgroundColor=default;strokeColor=default;fontFamily=Helvetica;fontSize=11;fontColor=default;endArrow=block;endFill=0;startSize=16;endSize=16;" parent="1" edge="1">
          <mxGeometry relative="1" as="geometry">
            <mxPoint x="75" y="540" as="sourcePoint" />
          </mxGeometry>
        </mxCell>
        <mxCell id="JG5JnsqcSwLZImcnMqXA-62" style="edgeStyle=none;shape=connector;rounded=0;orthogonalLoop=1;jettySize=auto;html=1;labelBackgroundColor=default;strokeColor=default;fontFamily=Helvetica;fontSize=11;fontColor=default;endArrow=open;endFill=0;startSize=16;endSize=16;" parent="1" edge="1">
          <mxGeometry relative="1" as="geometry">
            <mxPoint x="62.5" y="570.0000000000002" as="sourcePoint" />
          </mxGeometry>
        </mxCell>
        <mxCell id="JG5JnsqcSwLZImcnMqXA-63" style="edgeStyle=none;shape=connector;rounded=0;orthogonalLoop=1;jettySize=auto;html=1;labelBackgroundColor=default;strokeColor=default;fontFamily=Helvetica;fontSize=11;fontColor=default;endArrow=open;endFill=0;startSize=16;endSize=16;" parent="1" edge="1">
          <mxGeometry relative="1" as="geometry">
            <mxPoint x="115.46875" y="570.0000000000002" as="sourcePoint" />
          </mxGeometry>
        </mxCell>
        <mxCell id="JG5JnsqcSwLZImcnMqXA-64" style="edgeStyle=none;shape=connector;rounded=0;orthogonalLoop=1;jettySize=auto;html=1;labelBackgroundColor=default;strokeColor=default;fontFamily=Helvetica;fontSize=11;fontColor=default;endArrow=none;endFill=0;startSize=16;endSize=16;" parent="1" edge="1">
          <mxGeometry relative="1" as="geometry">
            <mxPoint x="85.26785714285711" y="570.0000000000002" as="sourcePoint" />
          </mxGeometry>
        </mxCell>
        <mxCell id="JG5JnsqcSwLZImcnMqXA-69" style="edgeStyle=none;shape=connector;rounded=0;orthogonalLoop=1;jettySize=auto;html=1;labelBackgroundColor=default;strokeColor=default;fontFamily=Helvetica;fontSize=11;fontColor=default;endArrow=open;endFill=0;startSize=16;endSize=16;" parent="1" edge="1">
          <mxGeometry relative="1" as="geometry">
            <mxPoint x="325" y="635" as="sourcePoint" />
          </mxGeometry>
        </mxCell>
        <mxCell id="EznRONZO5zJg0mxDUI-U-14" value="&amp;lt;&amp;lt;Interface&amp;gt;&amp;gt;&lt;br style=&quot;border-color: var(--border-color);&quot;&gt;IMySqlStringFactory&amp;lt;T&amp;gt;" style="swimlane;fontStyle=1;align=center;verticalAlign=top;childLayout=stackLayout;horizontal=1;startSize=40;horizontalStack=0;resizeParent=1;resizeParentMax=0;resizeLast=0;collapsible=1;marginBottom=0;whiteSpace=wrap;html=1;rounded=0;" parent="1" vertex="1">
          <mxGeometry x="73" y="130" width="290" height="178" as="geometry">
            <mxRectangle x="1170" y="230" width="150" height="50" as="alternateBounds" />
          </mxGeometry>
        </mxCell>
        <mxCell id="EznRONZO5zJg0mxDUI-U-16" value="" style="line;strokeWidth=1;fillColor=none;align=left;verticalAlign=middle;spacingTop=-1;spacingLeft=3;spacingRight=3;rotatable=0;labelPosition=right;points=[];portConstraint=eastwest;strokeColor=inherit;rounded=0;" parent="EznRONZO5zJg0mxDUI-U-14" vertex="1">
          <mxGeometry y="40" width="290" height="8" as="geometry" />
        </mxCell>
        <mxCell id="EznRONZO5zJg0mxDUI-U-17" value="+&amp;nbsp;GetInsertSql(excepFor: string): string" style="text;strokeColor=none;fillColor=none;align=left;verticalAlign=top;spacingLeft=4;spacingRight=4;overflow=hidden;rotatable=0;points=[[0,0.5],[1,0.5]];portConstraint=eastwest;whiteSpace=wrap;html=1;rounded=0;" parent="EznRONZO5zJg0mxDUI-U-14" vertex="1">
          <mxGeometry y="48" width="290" height="26" as="geometry" />
        </mxCell>
        <mxCell id="1hqCvvEYsY5qw8OitTvy-13" value="+&amp;nbsp;GetSelectSql(attributesCondition: string[]): string" style="text;strokeColor=none;fillColor=none;align=left;verticalAlign=top;spacingLeft=4;spacingRight=4;overflow=hidden;rotatable=0;points=[[0,0.5],[1,0.5]];portConstraint=eastwest;whiteSpace=wrap;html=1;rounded=0;" parent="EznRONZO5zJg0mxDUI-U-14" vertex="1">
          <mxGeometry y="74" width="290" height="26" as="geometry" />
        </mxCell>
        <mxCell id="1hqCvvEYsY5qw8OitTvy-12" value="+&amp;nbsp;GetUpdateSql(attributesCondition: string): string" style="text;strokeColor=none;fillColor=none;align=left;verticalAlign=top;spacingLeft=4;spacingRight=4;overflow=hidden;rotatable=0;points=[[0,0.5],[1,0.5]];portConstraint=eastwest;whiteSpace=wrap;html=1;rounded=0;" parent="EznRONZO5zJg0mxDUI-U-14" vertex="1">
          <mxGeometry y="100" width="290" height="26" as="geometry" />
        </mxCell>
        <mxCell id="1hqCvvEYsY5qw8OitTvy-11" value="+&amp;nbsp;GetDeleteSql(attributesCondition: string): string&amp;nbsp;" style="text;strokeColor=none;fillColor=none;align=left;verticalAlign=top;spacingLeft=4;spacingRight=4;overflow=hidden;rotatable=0;points=[[0,0.5],[1,0.5]];portConstraint=eastwest;whiteSpace=wrap;html=1;rounded=0;" parent="EznRONZO5zJg0mxDUI-U-14" vertex="1">
          <mxGeometry y="126" width="290" height="26" as="geometry" />
        </mxCell>
        <mxCell id="1hqCvvEYsY5qw8OitTvy-10" value="+ GetNotNullPropriety(item: T): string[]" style="text;strokeColor=none;fillColor=none;align=left;verticalAlign=top;spacingLeft=4;spacingRight=4;overflow=hidden;rotatable=0;points=[[0,0.5],[1,0.5]];portConstraint=eastwest;whiteSpace=wrap;html=1;rounded=0;" parent="EznRONZO5zJg0mxDUI-U-14" vertex="1">
          <mxGeometry y="152" width="290" height="26" as="geometry" />
        </mxCell>
        <mxCell id="EznRONZO5zJg0mxDUI-U-18" style="edgeStyle=none;shape=connector;rounded=0;orthogonalLoop=1;jettySize=auto;html=1;labelBackgroundColor=default;strokeColor=default;fontFamily=Helvetica;fontSize=11;fontColor=default;endArrow=block;endFill=0;startSize=16;endSize=16;dashed=1;" parent="1" source="EznRONZO5zJg0mxDUI-U-19" target="EznRONZO5zJg0mxDUI-U-14" edge="1">
          <mxGeometry relative="1" as="geometry" />
        </mxCell>
        <mxCell id="EznRONZO5zJg0mxDUI-U-19" value="MySqlStringFactory&amp;lt;T&amp;gt;" style="swimlane;fontStyle=1;align=center;verticalAlign=top;childLayout=stackLayout;horizontal=1;startSize=26;horizontalStack=0;resizeParent=1;resizeParentMax=0;resizeLast=0;collapsible=1;marginBottom=0;whiteSpace=wrap;html=1;rounded=0;" parent="1" vertex="1">
          <mxGeometry x="429.25" y="150" width="160" height="138" as="geometry">
            <mxRectangle x="1240" y="50" width="150" height="30" as="alternateBounds" />
          </mxGeometry>
        </mxCell>
        <mxCell id="EznRONZO5zJg0mxDUI-U-20" value="- table: string" style="text;strokeColor=none;fillColor=none;align=left;verticalAlign=top;spacingLeft=4;spacingRight=4;overflow=hidden;rotatable=0;points=[[0,0.5],[1,0.5]];portConstraint=eastwest;whiteSpace=wrap;html=1;rounded=0;" parent="EznRONZO5zJg0mxDUI-U-19" vertex="1">
          <mxGeometry y="26" width="160" height="26" as="geometry" />
        </mxCell>
        <mxCell id="1hqCvvEYsY5qw8OitTvy-16" value="- collunms: List&amp;lt;string&amp;gt;" style="text;strokeColor=none;fillColor=none;align=left;verticalAlign=top;spacingLeft=4;spacingRight=4;overflow=hidden;rotatable=0;points=[[0,0.5],[1,0.5]];portConstraint=eastwest;whiteSpace=wrap;html=1;rounded=0;" parent="EznRONZO5zJg0mxDUI-U-19" vertex="1">
          <mxGeometry y="52" width="160" height="26" as="geometry" />
        </mxCell>
        <mxCell id="1hqCvvEYsY5qw8OitTvy-15" value="- proprieties: List&amp;lt;string&amp;gt;" style="text;strokeColor=none;fillColor=none;align=left;verticalAlign=top;spacingLeft=4;spacingRight=4;overflow=hidden;rotatable=0;points=[[0,0.5],[1,0.5]];portConstraint=eastwest;whiteSpace=wrap;html=1;rounded=0;" parent="EznRONZO5zJg0mxDUI-U-19" vertex="1">
          <mxGeometry y="78" width="160" height="26" as="geometry" />
        </mxCell>
        <mxCell id="EznRONZO5zJg0mxDUI-U-21" value="" style="line;strokeWidth=1;fillColor=none;align=left;verticalAlign=middle;spacingTop=-1;spacingLeft=3;spacingRight=3;rotatable=0;labelPosition=right;points=[];portConstraint=eastwest;strokeColor=inherit;rounded=0;" parent="EznRONZO5zJg0mxDUI-U-19" vertex="1">
          <mxGeometry y="104" width="160" height="8" as="geometry" />
        </mxCell>
        <mxCell id="EznRONZO5zJg0mxDUI-U-22" value="- UpdateMapping():void" style="text;strokeColor=none;fillColor=none;align=left;verticalAlign=top;spacingLeft=4;spacingRight=4;overflow=hidden;rotatable=0;points=[[0,0.5],[1,0.5]];portConstraint=eastwest;whiteSpace=wrap;html=1;rounded=0;" parent="EznRONZO5zJg0mxDUI-U-19" vertex="1">
          <mxGeometry y="112" width="160" height="26" as="geometry" />
        </mxCell>
        <mxCell id="EznRONZO5zJg0mxDUI-U-35" value="&amp;lt;&amp;lt;Interface&amp;gt;&amp;gt;&lt;br&gt;IGenericCrud&amp;lt;T&amp;gt;" style="swimlane;fontStyle=1;align=center;verticalAlign=top;childLayout=stackLayout;horizontal=1;startSize=40;horizontalStack=0;resizeParent=1;resizeParentMax=0;resizeLast=0;collapsible=1;marginBottom=0;whiteSpace=wrap;html=1;rounded=0;" parent="1" vertex="1">
          <mxGeometry x="618" y="340" width="160" height="178" as="geometry">
            <mxRectangle x="1160" y="500" width="135" height="50" as="alternateBounds" />
          </mxGeometry>
        </mxCell>
        <mxCell id="EznRONZO5zJg0mxDUI-U-37" value="" style="line;strokeWidth=1;fillColor=none;align=left;verticalAlign=middle;spacingTop=-1;spacingLeft=3;spacingRight=3;rotatable=0;labelPosition=right;points=[];portConstraint=eastwest;strokeColor=inherit;rounded=0;" parent="EznRONZO5zJg0mxDUI-U-35" vertex="1">
          <mxGeometry y="40" width="160" height="8" as="geometry" />
        </mxCell>
        <mxCell id="EznRONZO5zJg0mxDUI-U-38" value="+&amp;nbsp;Adicionar(item: T): bool" style="text;strokeColor=none;fillColor=none;align=left;verticalAlign=top;spacingLeft=4;spacingRight=4;overflow=hidden;rotatable=0;points=[[0,0.5],[1,0.5]];portConstraint=eastwest;whiteSpace=wrap;html=1;rounded=0;" parent="EznRONZO5zJg0mxDUI-U-35" vertex="1">
          <mxGeometry y="48" width="160" height="26" as="geometry" />
        </mxCell>
        <mxCell id="1hqCvvEYsY5qw8OitTvy-4" value="+&amp;nbsp;Atualizar(item T): bool" style="text;strokeColor=none;fillColor=none;align=left;verticalAlign=top;spacingLeft=4;spacingRight=4;overflow=hidden;rotatable=0;points=[[0,0.5],[1,0.5]];portConstraint=eastwest;whiteSpace=wrap;html=1;rounded=0;" parent="EznRONZO5zJg0mxDUI-U-35" vertex="1">
          <mxGeometry y="74" width="160" height="26" as="geometry" />
        </mxCell>
        <mxCell id="1hqCvvEYsY5qw8OitTvy-3" value="+ Remover(item: T): bool" style="text;strokeColor=none;fillColor=none;align=left;verticalAlign=top;spacingLeft=4;spacingRight=4;overflow=hidden;rotatable=0;points=[[0,0.5],[1,0.5]];portConstraint=eastwest;whiteSpace=wrap;html=1;rounded=0;" parent="EznRONZO5zJg0mxDUI-U-35" vertex="1">
          <mxGeometry y="100" width="160" height="26" as="geometry" />
        </mxCell>
        <mxCell id="1hqCvvEYsY5qw8OitTvy-2" value="+ BuscarUnico(item: T): T" style="text;strokeColor=none;fillColor=none;align=left;verticalAlign=top;spacingLeft=4;spacingRight=4;overflow=hidden;rotatable=0;points=[[0,0.5],[1,0.5]];portConstraint=eastwest;whiteSpace=wrap;html=1;rounded=0;" parent="EznRONZO5zJg0mxDUI-U-35" vertex="1">
          <mxGeometry y="126" width="160" height="26" as="geometry" />
        </mxCell>
        <mxCell id="1hqCvvEYsY5qw8OitTvy-6" value="+ BuscarVarios(): List&amp;lt;T&amp;gt;" style="text;strokeColor=none;fillColor=none;align=left;verticalAlign=top;spacingLeft=4;spacingRight=4;overflow=hidden;rotatable=0;points=[[0,0.5],[1,0.5]];portConstraint=eastwest;whiteSpace=wrap;html=1;rounded=0;" parent="EznRONZO5zJg0mxDUI-U-35" vertex="1">
          <mxGeometry y="152" width="160" height="26" as="geometry" />
        </mxCell>
        <mxCell id="EznRONZO5zJg0mxDUI-U-49" style="edgeStyle=none;shape=connector;rounded=0;orthogonalLoop=1;jettySize=auto;html=1;labelBackgroundColor=default;strokeColor=default;fontFamily=Helvetica;fontSize=11;fontColor=default;endArrow=block;endFill=0;startSize=16;endSize=16;dashed=1;" parent="1" source="EznRONZO5zJg0mxDUI-U-52" target="EznRONZO5zJg0mxDUI-U-69" edge="1">
          <mxGeometry relative="1" as="geometry" />
        </mxCell>
        <mxCell id="EznRONZO5zJg0mxDUI-U-51" style="edgeStyle=none;shape=connector;rounded=0;orthogonalLoop=1;jettySize=auto;html=1;labelBackgroundColor=default;strokeColor=default;fontFamily=Helvetica;fontSize=11;fontColor=default;endArrow=open;endFill=0;startSize=16;endSize=16;startArrow=diamondThin;startFill=0;" parent="1" source="EznRONZO5zJg0mxDUI-U-52" target="EznRONZO5zJg0mxDUI-U-14" edge="1">
          <mxGeometry relative="1" as="geometry" />
        </mxCell>
        <mxCell id="1hqCvvEYsY5qw8OitTvy-62" value="1" style="edgeLabel;html=1;align=center;verticalAlign=middle;resizable=0;points=[];fontSize=11;fontFamily=Helvetica;fontColor=default;" parent="EznRONZO5zJg0mxDUI-U-51" vertex="1" connectable="0">
          <mxGeometry x="0.2949" y="2" relative="1" as="geometry">
            <mxPoint x="23" y="-17" as="offset" />
          </mxGeometry>
        </mxCell>
        <mxCell id="1hqCvvEYsY5qw8OitTvy-63" value="1" style="edgeLabel;html=1;align=center;verticalAlign=middle;resizable=0;points=[];fontSize=11;fontFamily=Helvetica;fontColor=default;" parent="EznRONZO5zJg0mxDUI-U-51" vertex="1" connectable="0">
          <mxGeometry x="-0.2097" y="-1" relative="1" as="geometry">
            <mxPoint x="20" y="12" as="offset" />
          </mxGeometry>
        </mxCell>
        <mxCell id="1hqCvvEYsY5qw8OitTvy-1" style="edgeStyle=none;shape=connector;rounded=0;orthogonalLoop=1;jettySize=auto;html=1;labelBackgroundColor=default;strokeColor=default;fontFamily=Helvetica;fontSize=11;fontColor=default;endArrow=open;endFill=0;startSize=16;endSize=16;dashed=1;" parent="1" source="EznRONZO5zJg0mxDUI-U-52" target="EznRONZO5zJg0mxDUI-U-73" edge="1">
          <mxGeometry relative="1" as="geometry" />
        </mxCell>
        <mxCell id="EznRONZO5zJg0mxDUI-U-52" value="CarroDAO" style="swimlane;fontStyle=1;align=center;verticalAlign=top;childLayout=stackLayout;horizontal=1;startSize=26;horizontalStack=0;resizeParent=1;resizeParentMax=0;resizeLast=0;collapsible=1;marginBottom=0;whiteSpace=wrap;html=1;rounded=0;" parent="1" vertex="1">
          <mxGeometry x="89.25" y="390" width="257.5" height="86" as="geometry">
            <mxRectangle x="960" y="240" width="135" height="30" as="alternateBounds" />
          </mxGeometry>
        </mxCell>
        <mxCell id="EznRONZO5zJg0mxDUI-U-53" value="-&amp;nbsp;_dbConnection: IDbConnection" style="text;strokeColor=none;fillColor=none;align=left;verticalAlign=top;spacingLeft=4;spacingRight=4;overflow=hidden;rotatable=0;points=[[0,0.5],[1,0.5]];portConstraint=eastwest;whiteSpace=wrap;html=1;rounded=0;" parent="EznRONZO5zJg0mxDUI-U-52" vertex="1">
          <mxGeometry y="26" width="257.5" height="26" as="geometry" />
        </mxCell>
        <mxCell id="1hqCvvEYsY5qw8OitTvy-18" value="- _sqlFactory:&amp;nbsp;IMySqlStringFactory&amp;lt;Carro&amp;gt;&amp;nbsp;" style="text;strokeColor=none;fillColor=none;align=left;verticalAlign=top;spacingLeft=4;spacingRight=4;overflow=hidden;rotatable=0;points=[[0,0.5],[1,0.5]];portConstraint=eastwest;whiteSpace=wrap;html=1;rounded=0;" parent="EznRONZO5zJg0mxDUI-U-52" vertex="1">
          <mxGeometry y="52" width="257.5" height="26" as="geometry" />
        </mxCell>
        <mxCell id="EznRONZO5zJg0mxDUI-U-54" value="" style="line;strokeWidth=1;fillColor=none;align=left;verticalAlign=middle;spacingTop=-1;spacingLeft=3;spacingRight=3;rotatable=0;labelPosition=right;points=[];portConstraint=eastwest;strokeColor=inherit;rounded=0;" parent="EznRONZO5zJg0mxDUI-U-52" vertex="1">
          <mxGeometry y="78" width="257.5" height="8" as="geometry" />
        </mxCell>
        <mxCell id="EznRONZO5zJg0mxDUI-U-56" style="edgeStyle=none;shape=connector;rounded=0;orthogonalLoop=1;jettySize=auto;html=1;labelBackgroundColor=default;strokeColor=default;fontFamily=Helvetica;fontSize=11;fontColor=default;endArrow=block;endFill=0;startSize=16;endSize=16;" parent="1" source="EznRONZO5zJg0mxDUI-U-57" target="EznRONZO5zJg0mxDUI-U-35" edge="1">
          <mxGeometry relative="1" as="geometry">
            <mxPoint x="146.75" y="430" as="targetPoint" />
          </mxGeometry>
        </mxCell>
        <mxCell id="EznRONZO5zJg0mxDUI-U-57" value="&amp;lt;&amp;lt;Interface&amp;gt;&amp;gt;&lt;br&gt;ICarroService" style="swimlane;fontStyle=1;align=center;verticalAlign=top;childLayout=stackLayout;horizontal=1;startSize=40;horizontalStack=0;resizeParent=1;resizeParentMax=0;resizeLast=0;collapsible=1;marginBottom=0;whiteSpace=wrap;html=1;rounded=0;" parent="1" vertex="1" collapsed="1">
          <mxGeometry x="636.75" y="630" width="130" height="50" as="geometry">
            <mxRectangle x="360" y="230" width="160" height="86" as="alternateBounds" />
          </mxGeometry>
        </mxCell>
        <mxCell id="EznRONZO5zJg0mxDUI-U-58" value="+ field: type" style="text;strokeColor=none;fillColor=none;align=left;verticalAlign=top;spacingLeft=4;spacingRight=4;overflow=hidden;rotatable=0;points=[[0,0.5],[1,0.5]];portConstraint=eastwest;whiteSpace=wrap;html=1;rounded=0;" parent="EznRONZO5zJg0mxDUI-U-57" vertex="1">
          <mxGeometry y="26" width="160" height="26" as="geometry" />
        </mxCell>
        <mxCell id="EznRONZO5zJg0mxDUI-U-59" value="" style="line;strokeWidth=1;fillColor=none;align=left;verticalAlign=middle;spacingTop=-1;spacingLeft=3;spacingRight=3;rotatable=0;labelPosition=right;points=[];portConstraint=eastwest;strokeColor=inherit;rounded=0;" parent="EznRONZO5zJg0mxDUI-U-57" vertex="1">
          <mxGeometry y="52" width="160" height="8" as="geometry" />
        </mxCell>
        <mxCell id="EznRONZO5zJg0mxDUI-U-60" value="+ method(type): type" style="text;strokeColor=none;fillColor=none;align=left;verticalAlign=top;spacingLeft=4;spacingRight=4;overflow=hidden;rotatable=0;points=[[0,0.5],[1,0.5]];portConstraint=eastwest;whiteSpace=wrap;html=1;rounded=0;" parent="EznRONZO5zJg0mxDUI-U-57" vertex="1">
          <mxGeometry y="60" width="160" height="26" as="geometry" />
        </mxCell>
        <mxCell id="EznRONZO5zJg0mxDUI-U-61" style="edgeStyle=none;shape=connector;rounded=0;orthogonalLoop=1;jettySize=auto;html=1;labelBackgroundColor=default;strokeColor=default;fontFamily=Helvetica;fontSize=11;fontColor=default;endArrow=block;endFill=0;startSize=16;endSize=16;dashed=1;" parent="1" source="EznRONZO5zJg0mxDUI-U-63" target="EznRONZO5zJg0mxDUI-U-57" edge="1">
          <mxGeometry relative="1" as="geometry" />
        </mxCell>
        <mxCell id="EznRONZO5zJg0mxDUI-U-62" style="edgeStyle=none;shape=connector;rounded=0;orthogonalLoop=1;jettySize=auto;html=1;labelBackgroundColor=default;strokeColor=default;fontFamily=Helvetica;fontSize=11;fontColor=default;endArrow=open;endFill=0;startSize=16;endSize=16;dashed=1;" parent="1" source="EznRONZO5zJg0mxDUI-U-63" target="EznRONZO5zJg0mxDUI-U-73" edge="1">
          <mxGeometry relative="1" as="geometry" />
        </mxCell>
        <mxCell id="EznRONZO5zJg0mxDUI-U-63" value="CarroService" style="swimlane;fontStyle=1;align=center;verticalAlign=top;childLayout=stackLayout;horizontal=1;startSize=26;horizontalStack=0;resizeParent=1;resizeParentMax=0;resizeLast=0;collapsible=1;marginBottom=0;whiteSpace=wrap;html=1;rounded=0;" parent="1" vertex="1">
          <mxGeometry x="409.25" y="620" width="160" height="60" as="geometry">
            <mxRectangle x="960" y="620" width="130" height="30" as="alternateBounds" />
          </mxGeometry>
        </mxCell>
        <mxCell id="EznRONZO5zJg0mxDUI-U-64" value="- _carroDAO: ICarroDAO&amp;nbsp;" style="text;strokeColor=none;fillColor=none;align=left;verticalAlign=top;spacingLeft=4;spacingRight=4;overflow=hidden;rotatable=0;points=[[0,0.5],[1,0.5]];portConstraint=eastwest;whiteSpace=wrap;html=1;rounded=0;" parent="EznRONZO5zJg0mxDUI-U-63" vertex="1">
          <mxGeometry y="26" width="160" height="26" as="geometry" />
        </mxCell>
        <mxCell id="EznRONZO5zJg0mxDUI-U-65" value="" style="line;strokeWidth=1;fillColor=none;align=left;verticalAlign=middle;spacingTop=-1;spacingLeft=3;spacingRight=3;rotatable=0;labelPosition=right;points=[];portConstraint=eastwest;strokeColor=inherit;rounded=0;" parent="EznRONZO5zJg0mxDUI-U-63" vertex="1">
          <mxGeometry y="52" width="160" height="8" as="geometry" />
        </mxCell>
        <mxCell id="EznRONZO5zJg0mxDUI-U-67" style="edgeStyle=none;shape=connector;rounded=0;orthogonalLoop=1;jettySize=auto;html=1;labelBackgroundColor=default;strokeColor=default;fontFamily=Helvetica;fontSize=11;fontColor=default;endArrow=diamondThin;endFill=0;startSize=16;endSize=16;startArrow=open;startFill=0;" parent="1" source="EznRONZO5zJg0mxDUI-U-69" target="EznRONZO5zJg0mxDUI-U-63" edge="1">
          <mxGeometry relative="1" as="geometry" />
        </mxCell>
        <mxCell id="1hqCvvEYsY5qw8OitTvy-60" value="1" style="edgeLabel;html=1;align=center;verticalAlign=middle;resizable=0;points=[];fontSize=11;fontFamily=Helvetica;fontColor=default;" parent="EznRONZO5zJg0mxDUI-U-67" vertex="1" connectable="0">
          <mxGeometry x="0.6873" y="-2" relative="1" as="geometry">
            <mxPoint x="22" as="offset" />
          </mxGeometry>
        </mxCell>
        <mxCell id="1hqCvvEYsY5qw8OitTvy-61" value="1" style="edgeLabel;html=1;align=center;verticalAlign=middle;resizable=0;points=[];fontSize=11;fontFamily=Helvetica;fontColor=default;" parent="EznRONZO5zJg0mxDUI-U-67" vertex="1" connectable="0">
          <mxGeometry x="-0.6809" y="-2" relative="1" as="geometry">
            <mxPoint x="22" y="-11" as="offset" />
          </mxGeometry>
        </mxCell>
        <mxCell id="EznRONZO5zJg0mxDUI-U-68" style="edgeStyle=none;shape=connector;rounded=0;orthogonalLoop=1;jettySize=auto;html=1;labelBackgroundColor=default;strokeColor=default;fontFamily=Helvetica;fontSize=11;fontColor=default;endArrow=block;endFill=0;startSize=16;endSize=16;" parent="1" source="EznRONZO5zJg0mxDUI-U-69" target="EznRONZO5zJg0mxDUI-U-35" edge="1">
          <mxGeometry relative="1" as="geometry">
            <mxPoint x="196.75" y="405" as="targetPoint" />
          </mxGeometry>
        </mxCell>
        <mxCell id="EznRONZO5zJg0mxDUI-U-69" value="&amp;lt;&amp;lt;Interface&amp;gt;&amp;gt;&lt;br&gt;ICarroDAO" style="swimlane;fontStyle=1;align=center;verticalAlign=top;childLayout=stackLayout;horizontal=1;startSize=40;horizontalStack=0;resizeParent=1;resizeParentMax=0;resizeLast=0;collapsible=1;marginBottom=0;whiteSpace=wrap;html=1;rounded=0;" parent="1" vertex="1" collapsed="1">
          <mxGeometry x="421.75" y="404" width="135" height="50" as="geometry">
            <mxRectangle x="440" y="280" width="160" height="86" as="alternateBounds" />
          </mxGeometry>
        </mxCell>
        <mxCell id="EznRONZO5zJg0mxDUI-U-70" value="+ field: type" style="text;strokeColor=none;fillColor=none;align=left;verticalAlign=top;spacingLeft=4;spacingRight=4;overflow=hidden;rotatable=0;points=[[0,0.5],[1,0.5]];portConstraint=eastwest;whiteSpace=wrap;html=1;rounded=0;" parent="EznRONZO5zJg0mxDUI-U-69" vertex="1">
          <mxGeometry y="26" width="160" height="26" as="geometry" />
        </mxCell>
        <mxCell id="EznRONZO5zJg0mxDUI-U-71" value="" style="line;strokeWidth=1;fillColor=none;align=left;verticalAlign=middle;spacingTop=-1;spacingLeft=3;spacingRight=3;rotatable=0;labelPosition=right;points=[];portConstraint=eastwest;strokeColor=inherit;rounded=0;" parent="EznRONZO5zJg0mxDUI-U-69" vertex="1">
          <mxGeometry y="52" width="160" height="8" as="geometry" />
        </mxCell>
        <mxCell id="EznRONZO5zJg0mxDUI-U-72" value="+ method(type): type" style="text;strokeColor=none;fillColor=none;align=left;verticalAlign=top;spacingLeft=4;spacingRight=4;overflow=hidden;rotatable=0;points=[[0,0.5],[1,0.5]];portConstraint=eastwest;whiteSpace=wrap;html=1;rounded=0;" parent="EznRONZO5zJg0mxDUI-U-69" vertex="1">
          <mxGeometry y="60" width="160" height="26" as="geometry" />
        </mxCell>
        <mxCell id="EznRONZO5zJg0mxDUI-U-73" value="Carro" style="swimlane;fontStyle=1;align=center;verticalAlign=top;childLayout=stackLayout;horizontal=1;startSize=26;horizontalStack=0;resizeParent=1;resizeParentMax=0;resizeLast=0;collapsible=1;marginBottom=0;whiteSpace=wrap;html=1;rounded=0;" parent="1" vertex="1">
          <mxGeometry x="108" y="568" width="220" height="164" as="geometry">
            <mxRectangle x="720" y="510" width="130" height="30" as="alternateBounds" />
          </mxGeometry>
        </mxCell>
        <mxCell id="EznRONZO5zJg0mxDUI-U-74" value="&amp;lt;&amp;lt;Propriety&amp;gt;&amp;gt; + Id: int" style="text;strokeColor=none;fillColor=none;align=left;verticalAlign=top;spacingLeft=4;spacingRight=4;overflow=hidden;rotatable=0;points=[[0,0.5],[1,0.5]];portConstraint=eastwest;whiteSpace=wrap;html=1;rounded=0;" parent="EznRONZO5zJg0mxDUI-U-73" vertex="1">
          <mxGeometry y="26" width="220" height="26" as="geometry" />
        </mxCell>
        <mxCell id="1hqCvvEYsY5qw8OitTvy-24" value="&amp;lt;&amp;lt;Propriety&amp;gt;&amp;gt; +&amp;nbsp; Marca: string" style="text;strokeColor=none;fillColor=none;align=left;verticalAlign=top;spacingLeft=4;spacingRight=4;overflow=hidden;rotatable=0;points=[[0,0.5],[1,0.5]];portConstraint=eastwest;whiteSpace=wrap;html=1;rounded=0;" parent="EznRONZO5zJg0mxDUI-U-73" vertex="1">
          <mxGeometry y="52" width="220" height="26" as="geometry" />
        </mxCell>
        <mxCell id="1hqCvvEYsY5qw8OitTvy-23" value="&lt;span style=&quot;color: rgb(0, 0, 0); font-family: Helvetica; font-size: 12px; font-style: normal; font-variant-ligatures: normal; font-variant-caps: normal; font-weight: 400; letter-spacing: normal; orphans: 2; text-align: left; text-indent: 0px; text-transform: none; widows: 2; word-spacing: 0px; -webkit-text-stroke-width: 0px; background-color: rgb(251, 251, 251); text-decoration-thickness: initial; text-decoration-style: initial; text-decoration-color: initial; float: none; display: inline !important;&quot;&gt;&amp;lt;&amp;lt;Propriety&amp;gt;&amp;gt; +&lt;span&gt;&amp;nbsp; Modelo: string&lt;/span&gt;&lt;/span&gt;" style="text;strokeColor=none;fillColor=none;align=left;verticalAlign=top;spacingLeft=4;spacingRight=4;overflow=hidden;rotatable=0;points=[[0,0.5],[1,0.5]];portConstraint=eastwest;whiteSpace=wrap;html=1;rounded=0;" parent="EznRONZO5zJg0mxDUI-U-73" vertex="1">
          <mxGeometry y="78" width="220" height="26" as="geometry" />
        </mxCell>
        <mxCell id="1hqCvvEYsY5qw8OitTvy-22" value="&amp;lt;&amp;lt;Propriety&amp;gt;&amp;gt; + Placa: string" style="text;strokeColor=none;fillColor=none;align=left;verticalAlign=top;spacingLeft=4;spacingRight=4;overflow=hidden;rotatable=0;points=[[0,0.5],[1,0.5]];portConstraint=eastwest;whiteSpace=wrap;html=1;rounded=0;" parent="EznRONZO5zJg0mxDUI-U-73" vertex="1">
          <mxGeometry y="104" width="220" height="26" as="geometry" />
        </mxCell>
        <mxCell id="1hqCvvEYsY5qw8OitTvy-21" value="&amp;lt;&amp;lt;Propriety&amp;gt;&amp;gt; +&amp;nbsp; Valor_diaria: decimal" style="text;strokeColor=none;fillColor=none;align=left;verticalAlign=top;spacingLeft=4;spacingRight=4;overflow=hidden;rotatable=0;points=[[0,0.5],[1,0.5]];portConstraint=eastwest;whiteSpace=wrap;html=1;rounded=0;" parent="EznRONZO5zJg0mxDUI-U-73" vertex="1">
          <mxGeometry y="130" width="220" height="26" as="geometry" />
        </mxCell>
        <mxCell id="EznRONZO5zJg0mxDUI-U-75" value="" style="line;strokeWidth=1;fillColor=none;align=left;verticalAlign=middle;spacingTop=-1;spacingLeft=3;spacingRight=3;rotatable=0;labelPosition=right;points=[];portConstraint=eastwest;strokeColor=inherit;rounded=0;" parent="EznRONZO5zJg0mxDUI-U-73" vertex="1">
          <mxGeometry y="156" width="220" height="8" as="geometry" />
        </mxCell>
      </root>
    </mxGraphModel>
  </diagram>
  <diagram name="Classe Aluguel" id="Brwqif_vOIFKLUGNRPVu">
    <mxGraphModel dx="678" dy="628" grid="1" gridSize="10" guides="1" tooltips="1" connect="1" arrows="1" fold="1" page="1" pageScale="1" pageWidth="850" pageHeight="1100" math="0" shadow="0">
      <root>
        <mxCell id="9b5-Q5q2wwp_xpSfqmgl-0" />
        <mxCell id="9b5-Q5q2wwp_xpSfqmgl-1" parent="9b5-Q5q2wwp_xpSfqmgl-0" />
        <mxCell id="9b5-Q5q2wwp_xpSfqmgl-52" style="edgeStyle=none;shape=connector;rounded=0;orthogonalLoop=1;jettySize=auto;html=1;labelBackgroundColor=default;strokeColor=default;fontFamily=Helvetica;fontSize=11;fontColor=default;endArrow=block;endFill=0;startSize=16;endSize=16;" parent="9b5-Q5q2wwp_xpSfqmgl-1" edge="1">
          <mxGeometry relative="1" as="geometry">
            <mxPoint x="75" y="540" as="sourcePoint" />
          </mxGeometry>
        </mxCell>
        <mxCell id="9b5-Q5q2wwp_xpSfqmgl-53" style="edgeStyle=none;shape=connector;rounded=0;orthogonalLoop=1;jettySize=auto;html=1;labelBackgroundColor=default;strokeColor=default;fontFamily=Helvetica;fontSize=11;fontColor=default;endArrow=open;endFill=0;startSize=16;endSize=16;" parent="9b5-Q5q2wwp_xpSfqmgl-1" edge="1">
          <mxGeometry relative="1" as="geometry">
            <mxPoint x="62.5" y="570.0000000000002" as="sourcePoint" />
          </mxGeometry>
        </mxCell>
        <mxCell id="9b5-Q5q2wwp_xpSfqmgl-54" style="edgeStyle=none;shape=connector;rounded=0;orthogonalLoop=1;jettySize=auto;html=1;labelBackgroundColor=default;strokeColor=default;fontFamily=Helvetica;fontSize=11;fontColor=default;endArrow=open;endFill=0;startSize=16;endSize=16;" parent="9b5-Q5q2wwp_xpSfqmgl-1" edge="1">
          <mxGeometry relative="1" as="geometry">
            <mxPoint x="115.46875" y="570.0000000000002" as="sourcePoint" />
          </mxGeometry>
        </mxCell>
        <mxCell id="9b5-Q5q2wwp_xpSfqmgl-55" style="edgeStyle=none;shape=connector;rounded=0;orthogonalLoop=1;jettySize=auto;html=1;labelBackgroundColor=default;strokeColor=default;fontFamily=Helvetica;fontSize=11;fontColor=default;endArrow=none;endFill=0;startSize=16;endSize=16;" parent="9b5-Q5q2wwp_xpSfqmgl-1" edge="1">
          <mxGeometry relative="1" as="geometry">
            <mxPoint x="85.26785714285711" y="570.0000000000002" as="sourcePoint" />
          </mxGeometry>
        </mxCell>
        <mxCell id="9b5-Q5q2wwp_xpSfqmgl-56" style="edgeStyle=none;shape=connector;rounded=0;orthogonalLoop=1;jettySize=auto;html=1;labelBackgroundColor=default;strokeColor=default;fontFamily=Helvetica;fontSize=11;fontColor=default;endArrow=open;endFill=0;startSize=16;endSize=16;" parent="9b5-Q5q2wwp_xpSfqmgl-1" edge="1">
          <mxGeometry relative="1" as="geometry">
            <mxPoint x="325" y="635" as="sourcePoint" />
          </mxGeometry>
        </mxCell>
        <mxCell id="9b5-Q5q2wwp_xpSfqmgl-113" value="&amp;lt;&amp;lt;Interface&amp;gt;&amp;gt;&lt;br style=&quot;border-color: var(--border-color);&quot;&gt;IMySqlStringFactory&amp;lt;T&amp;gt;" style="swimlane;fontStyle=1;align=center;verticalAlign=top;childLayout=stackLayout;horizontal=1;startSize=40;horizontalStack=0;resizeParent=1;resizeParentMax=0;resizeLast=0;collapsible=1;marginBottom=0;whiteSpace=wrap;html=1;rounded=0;" parent="9b5-Q5q2wwp_xpSfqmgl-1" vertex="1">
          <mxGeometry x="91" y="20" width="290" height="178" as="geometry">
            <mxRectangle x="673.75" y="230" width="286.25" height="50" as="alternateBounds" />
          </mxGeometry>
        </mxCell>
        <mxCell id="9b5-Q5q2wwp_xpSfqmgl-114" value="" style="line;strokeWidth=1;fillColor=none;align=left;verticalAlign=middle;spacingTop=-1;spacingLeft=3;spacingRight=3;rotatable=0;labelPosition=right;points=[];portConstraint=eastwest;strokeColor=inherit;rounded=0;" parent="9b5-Q5q2wwp_xpSfqmgl-113" vertex="1">
          <mxGeometry y="40" width="290" height="8" as="geometry" />
        </mxCell>
        <mxCell id="9b5-Q5q2wwp_xpSfqmgl-115" value="+&amp;nbsp;GetInsertSql(excepFor: string): string" style="text;strokeColor=none;fillColor=none;align=left;verticalAlign=top;spacingLeft=4;spacingRight=4;overflow=hidden;rotatable=0;points=[[0,0.5],[1,0.5]];portConstraint=eastwest;whiteSpace=wrap;html=1;rounded=0;" parent="9b5-Q5q2wwp_xpSfqmgl-113" vertex="1">
          <mxGeometry y="48" width="290" height="26" as="geometry" />
        </mxCell>
        <mxCell id="9b5-Q5q2wwp_xpSfqmgl-116" value="+&amp;nbsp;GetSelectSql(attributesCondition: string[]): string" style="text;strokeColor=none;fillColor=none;align=left;verticalAlign=top;spacingLeft=4;spacingRight=4;overflow=hidden;rotatable=0;points=[[0,0.5],[1,0.5]];portConstraint=eastwest;whiteSpace=wrap;html=1;rounded=0;" parent="9b5-Q5q2wwp_xpSfqmgl-113" vertex="1">
          <mxGeometry y="74" width="290" height="26" as="geometry" />
        </mxCell>
        <mxCell id="9b5-Q5q2wwp_xpSfqmgl-117" value="+&amp;nbsp;GetUpdateSql(attributesCondition: string): string" style="text;strokeColor=none;fillColor=none;align=left;verticalAlign=top;spacingLeft=4;spacingRight=4;overflow=hidden;rotatable=0;points=[[0,0.5],[1,0.5]];portConstraint=eastwest;whiteSpace=wrap;html=1;rounded=0;" parent="9b5-Q5q2wwp_xpSfqmgl-113" vertex="1">
          <mxGeometry y="100" width="290" height="26" as="geometry" />
        </mxCell>
        <mxCell id="9b5-Q5q2wwp_xpSfqmgl-118" value="+&amp;nbsp;GetDeleteSql(attributesCondition: string): string&amp;nbsp;" style="text;strokeColor=none;fillColor=none;align=left;verticalAlign=top;spacingLeft=4;spacingRight=4;overflow=hidden;rotatable=0;points=[[0,0.5],[1,0.5]];portConstraint=eastwest;whiteSpace=wrap;html=1;rounded=0;" parent="9b5-Q5q2wwp_xpSfqmgl-113" vertex="1">
          <mxGeometry y="126" width="290" height="26" as="geometry" />
        </mxCell>
        <mxCell id="9b5-Q5q2wwp_xpSfqmgl-119" value="+ GetNotNullPropriety(item: T): string[]" style="text;strokeColor=none;fillColor=none;align=left;verticalAlign=top;spacingLeft=4;spacingRight=4;overflow=hidden;rotatable=0;points=[[0,0.5],[1,0.5]];portConstraint=eastwest;whiteSpace=wrap;html=1;rounded=0;" parent="9b5-Q5q2wwp_xpSfqmgl-113" vertex="1">
          <mxGeometry y="152" width="290" height="26" as="geometry" />
        </mxCell>
        <mxCell id="9b5-Q5q2wwp_xpSfqmgl-120" style="edgeStyle=none;shape=connector;rounded=0;orthogonalLoop=1;jettySize=auto;html=1;labelBackgroundColor=default;strokeColor=default;fontFamily=Helvetica;fontSize=11;fontColor=default;endArrow=block;endFill=0;startSize=16;endSize=16;dashed=1;" parent="9b5-Q5q2wwp_xpSfqmgl-1" source="9b5-Q5q2wwp_xpSfqmgl-121" target="9b5-Q5q2wwp_xpSfqmgl-113" edge="1">
          <mxGeometry relative="1" as="geometry" />
        </mxCell>
        <mxCell id="9b5-Q5q2wwp_xpSfqmgl-121" value="MySqlStringFactory&amp;lt;T&amp;gt;" style="swimlane;fontStyle=1;align=center;verticalAlign=top;childLayout=stackLayout;horizontal=1;startSize=26;horizontalStack=0;resizeParent=1;resizeParentMax=0;resizeLast=0;collapsible=1;marginBottom=0;whiteSpace=wrap;html=1;rounded=0;" parent="9b5-Q5q2wwp_xpSfqmgl-1" vertex="1">
          <mxGeometry x="437.25" y="40" width="160" height="138" as="geometry">
            <mxRectangle x="1240" y="50" width="150" height="30" as="alternateBounds" />
          </mxGeometry>
        </mxCell>
        <mxCell id="9b5-Q5q2wwp_xpSfqmgl-122" value="- table: string" style="text;strokeColor=none;fillColor=none;align=left;verticalAlign=top;spacingLeft=4;spacingRight=4;overflow=hidden;rotatable=0;points=[[0,0.5],[1,0.5]];portConstraint=eastwest;whiteSpace=wrap;html=1;rounded=0;" parent="9b5-Q5q2wwp_xpSfqmgl-121" vertex="1">
          <mxGeometry y="26" width="160" height="26" as="geometry" />
        </mxCell>
        <mxCell id="9b5-Q5q2wwp_xpSfqmgl-123" value="- collunms: List&amp;lt;string&amp;gt;" style="text;strokeColor=none;fillColor=none;align=left;verticalAlign=top;spacingLeft=4;spacingRight=4;overflow=hidden;rotatable=0;points=[[0,0.5],[1,0.5]];portConstraint=eastwest;whiteSpace=wrap;html=1;rounded=0;" parent="9b5-Q5q2wwp_xpSfqmgl-121" vertex="1">
          <mxGeometry y="52" width="160" height="26" as="geometry" />
        </mxCell>
        <mxCell id="9b5-Q5q2wwp_xpSfqmgl-124" value="- proprieties: List&amp;lt;string&amp;gt;" style="text;strokeColor=none;fillColor=none;align=left;verticalAlign=top;spacingLeft=4;spacingRight=4;overflow=hidden;rotatable=0;points=[[0,0.5],[1,0.5]];portConstraint=eastwest;whiteSpace=wrap;html=1;rounded=0;" parent="9b5-Q5q2wwp_xpSfqmgl-121" vertex="1">
          <mxGeometry y="78" width="160" height="26" as="geometry" />
        </mxCell>
        <mxCell id="9b5-Q5q2wwp_xpSfqmgl-125" value="" style="line;strokeWidth=1;fillColor=none;align=left;verticalAlign=middle;spacingTop=-1;spacingLeft=3;spacingRight=3;rotatable=0;labelPosition=right;points=[];portConstraint=eastwest;strokeColor=inherit;rounded=0;" parent="9b5-Q5q2wwp_xpSfqmgl-121" vertex="1">
          <mxGeometry y="104" width="160" height="8" as="geometry" />
        </mxCell>
        <mxCell id="9b5-Q5q2wwp_xpSfqmgl-126" value="- UpdateMapping():void" style="text;strokeColor=none;fillColor=none;align=left;verticalAlign=top;spacingLeft=4;spacingRight=4;overflow=hidden;rotatable=0;points=[[0,0.5],[1,0.5]];portConstraint=eastwest;whiteSpace=wrap;html=1;rounded=0;" parent="9b5-Q5q2wwp_xpSfqmgl-121" vertex="1">
          <mxGeometry y="112" width="160" height="26" as="geometry" />
        </mxCell>
        <mxCell id="9b5-Q5q2wwp_xpSfqmgl-127" value="&amp;lt;&amp;lt;Interface&amp;gt;&amp;gt;&lt;br&gt;IGenericCrud&amp;lt;T&amp;gt;" style="swimlane;fontStyle=1;align=center;verticalAlign=top;childLayout=stackLayout;horizontal=1;startSize=40;horizontalStack=0;resizeParent=1;resizeParentMax=0;resizeLast=0;collapsible=1;marginBottom=0;whiteSpace=wrap;html=1;rounded=0;" parent="9b5-Q5q2wwp_xpSfqmgl-1" vertex="1">
          <mxGeometry x="639.75" y="230" width="160" height="178" as="geometry">
            <mxRectangle x="1160" y="500" width="135" height="50" as="alternateBounds" />
          </mxGeometry>
        </mxCell>
        <mxCell id="9b5-Q5q2wwp_xpSfqmgl-128" value="" style="line;strokeWidth=1;fillColor=none;align=left;verticalAlign=middle;spacingTop=-1;spacingLeft=3;spacingRight=3;rotatable=0;labelPosition=right;points=[];portConstraint=eastwest;strokeColor=inherit;rounded=0;" parent="9b5-Q5q2wwp_xpSfqmgl-127" vertex="1">
          <mxGeometry y="40" width="160" height="8" as="geometry" />
        </mxCell>
        <mxCell id="9b5-Q5q2wwp_xpSfqmgl-129" value="+&amp;nbsp;Adicionar(item: T): bool" style="text;strokeColor=none;fillColor=none;align=left;verticalAlign=top;spacingLeft=4;spacingRight=4;overflow=hidden;rotatable=0;points=[[0,0.5],[1,0.5]];portConstraint=eastwest;whiteSpace=wrap;html=1;rounded=0;" parent="9b5-Q5q2wwp_xpSfqmgl-127" vertex="1">
          <mxGeometry y="48" width="160" height="26" as="geometry" />
        </mxCell>
        <mxCell id="9b5-Q5q2wwp_xpSfqmgl-130" value="+&amp;nbsp;Atualizar(item T): bool" style="text;strokeColor=none;fillColor=none;align=left;verticalAlign=top;spacingLeft=4;spacingRight=4;overflow=hidden;rotatable=0;points=[[0,0.5],[1,0.5]];portConstraint=eastwest;whiteSpace=wrap;html=1;rounded=0;" parent="9b5-Q5q2wwp_xpSfqmgl-127" vertex="1">
          <mxGeometry y="74" width="160" height="26" as="geometry" />
        </mxCell>
        <mxCell id="9b5-Q5q2wwp_xpSfqmgl-131" value="+ Remover(item: T): bool" style="text;strokeColor=none;fillColor=none;align=left;verticalAlign=top;spacingLeft=4;spacingRight=4;overflow=hidden;rotatable=0;points=[[0,0.5],[1,0.5]];portConstraint=eastwest;whiteSpace=wrap;html=1;rounded=0;" parent="9b5-Q5q2wwp_xpSfqmgl-127" vertex="1">
          <mxGeometry y="100" width="160" height="26" as="geometry" />
        </mxCell>
        <mxCell id="9b5-Q5q2wwp_xpSfqmgl-132" value="+ BuscarUnico(item: T): T" style="text;strokeColor=none;fillColor=none;align=left;verticalAlign=top;spacingLeft=4;spacingRight=4;overflow=hidden;rotatable=0;points=[[0,0.5],[1,0.5]];portConstraint=eastwest;whiteSpace=wrap;html=1;rounded=0;" parent="9b5-Q5q2wwp_xpSfqmgl-127" vertex="1">
          <mxGeometry y="126" width="160" height="26" as="geometry" />
        </mxCell>
        <mxCell id="9b5-Q5q2wwp_xpSfqmgl-133" value="+ BuscarVarios(): List&amp;lt;T&amp;gt;" style="text;strokeColor=none;fillColor=none;align=left;verticalAlign=top;spacingLeft=4;spacingRight=4;overflow=hidden;rotatable=0;points=[[0,0.5],[1,0.5]];portConstraint=eastwest;whiteSpace=wrap;html=1;rounded=0;" parent="9b5-Q5q2wwp_xpSfqmgl-127" vertex="1">
          <mxGeometry y="152" width="160" height="26" as="geometry" />
        </mxCell>
        <mxCell id="9b5-Q5q2wwp_xpSfqmgl-134" style="edgeStyle=none;shape=connector;rounded=0;orthogonalLoop=1;jettySize=auto;html=1;labelBackgroundColor=default;strokeColor=default;fontFamily=Helvetica;fontSize=11;fontColor=default;endArrow=block;endFill=0;startSize=16;endSize=16;dashed=1;" parent="9b5-Q5q2wwp_xpSfqmgl-1" source="9b5-Q5q2wwp_xpSfqmgl-139" target="9b5-Q5q2wwp_xpSfqmgl-157" edge="1">
          <mxGeometry relative="1" as="geometry" />
        </mxCell>
        <mxCell id="9b5-Q5q2wwp_xpSfqmgl-135" style="edgeStyle=none;shape=connector;rounded=0;orthogonalLoop=1;jettySize=auto;html=1;labelBackgroundColor=default;strokeColor=default;fontFamily=Helvetica;fontSize=11;fontColor=default;endArrow=open;endFill=0;startSize=16;endSize=16;startArrow=diamondThin;startFill=0;" parent="9b5-Q5q2wwp_xpSfqmgl-1" source="9b5-Q5q2wwp_xpSfqmgl-139" target="9b5-Q5q2wwp_xpSfqmgl-113" edge="1">
          <mxGeometry relative="1" as="geometry" />
        </mxCell>
        <mxCell id="9b5-Q5q2wwp_xpSfqmgl-136" value="1" style="edgeLabel;html=1;align=center;verticalAlign=middle;resizable=0;points=[];fontSize=11;fontFamily=Helvetica;fontColor=default;" parent="9b5-Q5q2wwp_xpSfqmgl-135" vertex="1" connectable="0">
          <mxGeometry x="0.2949" y="2" relative="1" as="geometry">
            <mxPoint x="23" y="-17" as="offset" />
          </mxGeometry>
        </mxCell>
        <mxCell id="9b5-Q5q2wwp_xpSfqmgl-137" value="1" style="edgeLabel;html=1;align=center;verticalAlign=middle;resizable=0;points=[];fontSize=11;fontFamily=Helvetica;fontColor=default;" parent="9b5-Q5q2wwp_xpSfqmgl-135" vertex="1" connectable="0">
          <mxGeometry x="-0.2097" y="-1" relative="1" as="geometry">
            <mxPoint x="20" y="12" as="offset" />
          </mxGeometry>
        </mxCell>
        <mxCell id="9b5-Q5q2wwp_xpSfqmgl-138" style="edgeStyle=none;shape=connector;rounded=0;orthogonalLoop=1;jettySize=auto;html=1;labelBackgroundColor=default;strokeColor=default;fontFamily=Helvetica;fontSize=11;fontColor=default;endArrow=open;endFill=0;startSize=16;endSize=16;dashed=1;" parent="9b5-Q5q2wwp_xpSfqmgl-1" source="9b5-Q5q2wwp_xpSfqmgl-139" target="9b5-Q5q2wwp_xpSfqmgl-179" edge="1">
          <mxGeometry relative="1" as="geometry" />
        </mxCell>
        <mxCell id="9b5-Q5q2wwp_xpSfqmgl-139" value="AluguelDAO" style="swimlane;fontStyle=1;align=center;verticalAlign=top;childLayout=stackLayout;horizontal=1;startSize=26;horizontalStack=0;resizeParent=1;resizeParentMax=0;resizeLast=0;collapsible=1;marginBottom=0;whiteSpace=wrap;html=1;rounded=0;" parent="9b5-Q5q2wwp_xpSfqmgl-1" vertex="1">
          <mxGeometry x="107.25" y="280" width="257.5" height="86" as="geometry">
            <mxRectangle x="960" y="240" width="135" height="30" as="alternateBounds" />
          </mxGeometry>
        </mxCell>
        <mxCell id="9b5-Q5q2wwp_xpSfqmgl-140" value="-&amp;nbsp;_dbConnection: IDbConnection" style="text;strokeColor=none;fillColor=none;align=left;verticalAlign=top;spacingLeft=4;spacingRight=4;overflow=hidden;rotatable=0;points=[[0,0.5],[1,0.5]];portConstraint=eastwest;whiteSpace=wrap;html=1;rounded=0;" parent="9b5-Q5q2wwp_xpSfqmgl-139" vertex="1">
          <mxGeometry y="26" width="257.5" height="26" as="geometry" />
        </mxCell>
        <mxCell id="9b5-Q5q2wwp_xpSfqmgl-141" value="- _sqlFactory:&amp;nbsp;IMySqlStringFactory&amp;lt;Aluguel&amp;gt;&amp;nbsp;" style="text;strokeColor=none;fillColor=none;align=left;verticalAlign=top;spacingLeft=4;spacingRight=4;overflow=hidden;rotatable=0;points=[[0,0.5],[1,0.5]];portConstraint=eastwest;whiteSpace=wrap;html=1;rounded=0;" parent="9b5-Q5q2wwp_xpSfqmgl-139" vertex="1">
          <mxGeometry y="52" width="257.5" height="26" as="geometry" />
        </mxCell>
        <mxCell id="9b5-Q5q2wwp_xpSfqmgl-142" value="" style="line;strokeWidth=1;fillColor=none;align=left;verticalAlign=middle;spacingTop=-1;spacingLeft=3;spacingRight=3;rotatable=0;labelPosition=right;points=[];portConstraint=eastwest;strokeColor=inherit;rounded=0;" parent="9b5-Q5q2wwp_xpSfqmgl-139" vertex="1">
          <mxGeometry y="78" width="257.5" height="8" as="geometry" />
        </mxCell>
        <mxCell id="9b5-Q5q2wwp_xpSfqmgl-143" style="edgeStyle=none;shape=connector;rounded=0;orthogonalLoop=1;jettySize=auto;html=1;labelBackgroundColor=default;strokeColor=default;fontFamily=Helvetica;fontSize=11;fontColor=default;endArrow=block;endFill=0;startSize=16;endSize=16;" parent="9b5-Q5q2wwp_xpSfqmgl-1" source="9b5-Q5q2wwp_xpSfqmgl-144" target="9b5-Q5q2wwp_xpSfqmgl-127" edge="1">
          <mxGeometry relative="1" as="geometry">
            <mxPoint x="164.75" y="320" as="targetPoint" />
          </mxGeometry>
        </mxCell>
        <mxCell id="9b5-Q5q2wwp_xpSfqmgl-144" value="&amp;lt;&amp;lt;Interface&amp;gt;&amp;gt;&lt;br&gt;IAluguelService" style="swimlane;fontStyle=1;align=center;verticalAlign=top;childLayout=stackLayout;horizontal=1;startSize=40;horizontalStack=0;resizeParent=1;resizeParentMax=0;resizeLast=0;collapsible=1;marginBottom=0;whiteSpace=wrap;html=1;rounded=0;" parent="9b5-Q5q2wwp_xpSfqmgl-1" vertex="1" collapsed="1">
          <mxGeometry x="654.75" y="520" width="130" height="50" as="geometry">
            <mxRectangle x="360" y="230" width="160" height="86" as="alternateBounds" />
          </mxGeometry>
        </mxCell>
        <mxCell id="9b5-Q5q2wwp_xpSfqmgl-145" value="+ field: type" style="text;strokeColor=none;fillColor=none;align=left;verticalAlign=top;spacingLeft=4;spacingRight=4;overflow=hidden;rotatable=0;points=[[0,0.5],[1,0.5]];portConstraint=eastwest;whiteSpace=wrap;html=1;rounded=0;" parent="9b5-Q5q2wwp_xpSfqmgl-144" vertex="1">
          <mxGeometry y="26" width="160" height="26" as="geometry" />
        </mxCell>
        <mxCell id="9b5-Q5q2wwp_xpSfqmgl-146" value="" style="line;strokeWidth=1;fillColor=none;align=left;verticalAlign=middle;spacingTop=-1;spacingLeft=3;spacingRight=3;rotatable=0;labelPosition=right;points=[];portConstraint=eastwest;strokeColor=inherit;rounded=0;" parent="9b5-Q5q2wwp_xpSfqmgl-144" vertex="1">
          <mxGeometry y="52" width="160" height="8" as="geometry" />
        </mxCell>
        <mxCell id="9b5-Q5q2wwp_xpSfqmgl-147" value="+ method(type): type" style="text;strokeColor=none;fillColor=none;align=left;verticalAlign=top;spacingLeft=4;spacingRight=4;overflow=hidden;rotatable=0;points=[[0,0.5],[1,0.5]];portConstraint=eastwest;whiteSpace=wrap;html=1;rounded=0;" parent="9b5-Q5q2wwp_xpSfqmgl-144" vertex="1">
          <mxGeometry y="60" width="160" height="26" as="geometry" />
        </mxCell>
        <mxCell id="9b5-Q5q2wwp_xpSfqmgl-148" style="edgeStyle=none;shape=connector;rounded=0;orthogonalLoop=1;jettySize=auto;html=1;labelBackgroundColor=default;strokeColor=default;fontFamily=Helvetica;fontSize=11;fontColor=default;endArrow=block;endFill=0;startSize=16;endSize=16;dashed=1;" parent="9b5-Q5q2wwp_xpSfqmgl-1" source="9b5-Q5q2wwp_xpSfqmgl-150" target="9b5-Q5q2wwp_xpSfqmgl-144" edge="1">
          <mxGeometry relative="1" as="geometry" />
        </mxCell>
        <mxCell id="9b5-Q5q2wwp_xpSfqmgl-149" style="edgeStyle=none;shape=connector;rounded=0;orthogonalLoop=1;jettySize=auto;html=1;labelBackgroundColor=default;strokeColor=default;fontFamily=Helvetica;fontSize=11;fontColor=default;endArrow=open;endFill=0;startSize=16;endSize=16;dashed=1;" parent="9b5-Q5q2wwp_xpSfqmgl-1" source="9b5-Q5q2wwp_xpSfqmgl-150" target="9b5-Q5q2wwp_xpSfqmgl-179" edge="1">
          <mxGeometry relative="1" as="geometry" />
        </mxCell>
        <mxCell id="9b5-Q5q2wwp_xpSfqmgl-150" value="AluguelService" style="swimlane;fontStyle=1;align=center;verticalAlign=top;childLayout=stackLayout;horizontal=1;startSize=26;horizontalStack=0;resizeParent=1;resizeParentMax=0;resizeLast=0;collapsible=1;marginBottom=0;whiteSpace=wrap;html=1;rounded=0;" parent="9b5-Q5q2wwp_xpSfqmgl-1" vertex="1">
          <mxGeometry x="427.25" y="510" width="180" height="86" as="geometry">
            <mxRectangle x="960" y="620" width="130" height="30" as="alternateBounds" />
          </mxGeometry>
        </mxCell>
        <mxCell id="9b5-Q5q2wwp_xpSfqmgl-151" value="- _aluguelDAO: IAluguelDAO&amp;nbsp;" style="text;strokeColor=none;fillColor=none;align=left;verticalAlign=top;spacingLeft=4;spacingRight=4;overflow=hidden;rotatable=0;points=[[0,0.5],[1,0.5]];portConstraint=eastwest;whiteSpace=wrap;html=1;rounded=0;" parent="9b5-Q5q2wwp_xpSfqmgl-150" vertex="1">
          <mxGeometry y="26" width="180" height="26" as="geometry" />
        </mxCell>
        <mxCell id="zARtL-BVIUvN1OQDmW5e-8" value="- _sql:&amp;nbsp;ISelectCommandString" style="text;strokeColor=none;fillColor=none;align=left;verticalAlign=top;spacingLeft=4;spacingRight=4;overflow=hidden;rotatable=0;points=[[0,0.5],[1,0.5]];portConstraint=eastwest;whiteSpace=wrap;html=1;rounded=0;" parent="9b5-Q5q2wwp_xpSfqmgl-150" vertex="1">
          <mxGeometry y="52" width="180" height="26" as="geometry" />
        </mxCell>
        <mxCell id="9b5-Q5q2wwp_xpSfqmgl-152" value="" style="line;strokeWidth=1;fillColor=none;align=left;verticalAlign=middle;spacingTop=-1;spacingLeft=3;spacingRight=3;rotatable=0;labelPosition=right;points=[];portConstraint=eastwest;strokeColor=inherit;rounded=0;" parent="9b5-Q5q2wwp_xpSfqmgl-150" vertex="1">
          <mxGeometry y="78" width="180" height="8" as="geometry" />
        </mxCell>
        <mxCell id="9b5-Q5q2wwp_xpSfqmgl-153" style="edgeStyle=none;shape=connector;rounded=0;orthogonalLoop=1;jettySize=auto;html=1;labelBackgroundColor=default;strokeColor=default;fontFamily=Helvetica;fontSize=11;fontColor=default;endArrow=diamondThin;endFill=0;startSize=16;endSize=16;startArrow=open;startFill=0;" parent="9b5-Q5q2wwp_xpSfqmgl-1" source="9b5-Q5q2wwp_xpSfqmgl-157" target="9b5-Q5q2wwp_xpSfqmgl-150" edge="1">
          <mxGeometry relative="1" as="geometry" />
        </mxCell>
        <mxCell id="9b5-Q5q2wwp_xpSfqmgl-154" value="1" style="edgeLabel;html=1;align=center;verticalAlign=middle;resizable=0;points=[];fontSize=11;fontFamily=Helvetica;fontColor=default;" parent="9b5-Q5q2wwp_xpSfqmgl-153" vertex="1" connectable="0">
          <mxGeometry x="0.6873" y="-2" relative="1" as="geometry">
            <mxPoint x="22" as="offset" />
          </mxGeometry>
        </mxCell>
        <mxCell id="9b5-Q5q2wwp_xpSfqmgl-155" value="1" style="edgeLabel;html=1;align=center;verticalAlign=middle;resizable=0;points=[];fontSize=11;fontFamily=Helvetica;fontColor=default;" parent="9b5-Q5q2wwp_xpSfqmgl-153" vertex="1" connectable="0">
          <mxGeometry x="-0.6809" y="-2" relative="1" as="geometry">
            <mxPoint x="22" y="-11" as="offset" />
          </mxGeometry>
        </mxCell>
        <mxCell id="9b5-Q5q2wwp_xpSfqmgl-156" style="edgeStyle=none;shape=connector;rounded=0;orthogonalLoop=1;jettySize=auto;html=1;labelBackgroundColor=default;strokeColor=default;fontFamily=Helvetica;fontSize=11;fontColor=default;endArrow=block;endFill=0;startSize=16;endSize=16;" parent="9b5-Q5q2wwp_xpSfqmgl-1" source="9b5-Q5q2wwp_xpSfqmgl-157" target="9b5-Q5q2wwp_xpSfqmgl-127" edge="1">
          <mxGeometry relative="1" as="geometry">
            <mxPoint x="214.75" y="295" as="targetPoint" />
          </mxGeometry>
        </mxCell>
        <mxCell id="9b5-Q5q2wwp_xpSfqmgl-157" value="&amp;lt;&amp;lt;Interface&amp;gt;&amp;gt;&lt;br&gt;IAluguelDAO" style="swimlane;fontStyle=1;align=center;verticalAlign=top;childLayout=stackLayout;horizontal=1;startSize=40;horizontalStack=0;resizeParent=1;resizeParentMax=0;resizeLast=0;collapsible=1;marginBottom=0;whiteSpace=wrap;html=1;rounded=0;" parent="9b5-Q5q2wwp_xpSfqmgl-1" vertex="1" collapsed="1">
          <mxGeometry x="449.75" y="294" width="135" height="50" as="geometry">
            <mxRectangle x="440" y="280" width="160" height="86" as="alternateBounds" />
          </mxGeometry>
        </mxCell>
        <mxCell id="9b5-Q5q2wwp_xpSfqmgl-158" value="+ field: type" style="text;strokeColor=none;fillColor=none;align=left;verticalAlign=top;spacingLeft=4;spacingRight=4;overflow=hidden;rotatable=0;points=[[0,0.5],[1,0.5]];portConstraint=eastwest;whiteSpace=wrap;html=1;rounded=0;" parent="9b5-Q5q2wwp_xpSfqmgl-157" vertex="1">
          <mxGeometry y="26" width="160" height="26" as="geometry" />
        </mxCell>
        <mxCell id="9b5-Q5q2wwp_xpSfqmgl-159" value="" style="line;strokeWidth=1;fillColor=none;align=left;verticalAlign=middle;spacingTop=-1;spacingLeft=3;spacingRight=3;rotatable=0;labelPosition=right;points=[];portConstraint=eastwest;strokeColor=inherit;rounded=0;" parent="9b5-Q5q2wwp_xpSfqmgl-157" vertex="1">
          <mxGeometry y="52" width="160" height="8" as="geometry" />
        </mxCell>
        <mxCell id="9b5-Q5q2wwp_xpSfqmgl-160" value="+ method(type): type" style="text;strokeColor=none;fillColor=none;align=left;verticalAlign=top;spacingLeft=4;spacingRight=4;overflow=hidden;rotatable=0;points=[[0,0.5],[1,0.5]];portConstraint=eastwest;whiteSpace=wrap;html=1;rounded=0;" parent="9b5-Q5q2wwp_xpSfqmgl-157" vertex="1">
          <mxGeometry y="60" width="160" height="26" as="geometry" />
        </mxCell>
        <mxCell id="9b5-Q5q2wwp_xpSfqmgl-161" value="Carro" style="swimlane;fontStyle=1;align=center;verticalAlign=top;childLayout=stackLayout;horizontal=1;startSize=26;horizontalStack=0;resizeParent=1;resizeParentMax=0;resizeLast=0;collapsible=1;marginBottom=0;whiteSpace=wrap;html=1;rounded=0;" parent="9b5-Q5q2wwp_xpSfqmgl-1" vertex="1" collapsed="1">
          <mxGeometry x="221" y="740" width="130" height="30" as="geometry">
            <mxRectangle x="708.75" y="668" width="220" height="164" as="alternateBounds" />
          </mxGeometry>
        </mxCell>
        <mxCell id="9b5-Q5q2wwp_xpSfqmgl-162" value="&amp;lt;&amp;lt;Propriety&amp;gt;&amp;gt; + Id: int" style="text;strokeColor=none;fillColor=none;align=left;verticalAlign=top;spacingLeft=4;spacingRight=4;overflow=hidden;rotatable=0;points=[[0,0.5],[1,0.5]];portConstraint=eastwest;whiteSpace=wrap;html=1;rounded=0;" parent="9b5-Q5q2wwp_xpSfqmgl-161" vertex="1">
          <mxGeometry y="26" width="220" height="26" as="geometry" />
        </mxCell>
        <mxCell id="9b5-Q5q2wwp_xpSfqmgl-163" value="&amp;lt;&amp;lt;Propriety&amp;gt;&amp;gt; +&amp;nbsp; Marca: string" style="text;strokeColor=none;fillColor=none;align=left;verticalAlign=top;spacingLeft=4;spacingRight=4;overflow=hidden;rotatable=0;points=[[0,0.5],[1,0.5]];portConstraint=eastwest;whiteSpace=wrap;html=1;rounded=0;" parent="9b5-Q5q2wwp_xpSfqmgl-161" vertex="1">
          <mxGeometry y="52" width="220" height="26" as="geometry" />
        </mxCell>
        <mxCell id="9b5-Q5q2wwp_xpSfqmgl-164" value="&lt;span style=&quot;color: rgb(0, 0, 0); font-family: Helvetica; font-size: 12px; font-style: normal; font-variant-ligatures: normal; font-variant-caps: normal; font-weight: 400; letter-spacing: normal; orphans: 2; text-align: left; text-indent: 0px; text-transform: none; widows: 2; word-spacing: 0px; -webkit-text-stroke-width: 0px; background-color: rgb(251, 251, 251); text-decoration-thickness: initial; text-decoration-style: initial; text-decoration-color: initial; float: none; display: inline !important;&quot;&gt;&amp;lt;&amp;lt;Propriety&amp;gt;&amp;gt; +&lt;span&gt;&amp;nbsp; Modelo: string&lt;/span&gt;&lt;/span&gt;" style="text;strokeColor=none;fillColor=none;align=left;verticalAlign=top;spacingLeft=4;spacingRight=4;overflow=hidden;rotatable=0;points=[[0,0.5],[1,0.5]];portConstraint=eastwest;whiteSpace=wrap;html=1;rounded=0;" parent="9b5-Q5q2wwp_xpSfqmgl-161" vertex="1">
          <mxGeometry y="78" width="220" height="26" as="geometry" />
        </mxCell>
        <mxCell id="9b5-Q5q2wwp_xpSfqmgl-165" value="&amp;lt;&amp;lt;Propriety&amp;gt;&amp;gt; + Placa: string" style="text;strokeColor=none;fillColor=none;align=left;verticalAlign=top;spacingLeft=4;spacingRight=4;overflow=hidden;rotatable=0;points=[[0,0.5],[1,0.5]];portConstraint=eastwest;whiteSpace=wrap;html=1;rounded=0;" parent="9b5-Q5q2wwp_xpSfqmgl-161" vertex="1">
          <mxGeometry y="104" width="220" height="26" as="geometry" />
        </mxCell>
        <mxCell id="9b5-Q5q2wwp_xpSfqmgl-166" value="&amp;lt;&amp;lt;Propriety&amp;gt;&amp;gt; +&amp;nbsp; Valor_diaria: decimal" style="text;strokeColor=none;fillColor=none;align=left;verticalAlign=top;spacingLeft=4;spacingRight=4;overflow=hidden;rotatable=0;points=[[0,0.5],[1,0.5]];portConstraint=eastwest;whiteSpace=wrap;html=1;rounded=0;" parent="9b5-Q5q2wwp_xpSfqmgl-161" vertex="1">
          <mxGeometry y="130" width="220" height="26" as="geometry" />
        </mxCell>
        <mxCell id="9b5-Q5q2wwp_xpSfqmgl-167" value="" style="line;strokeWidth=1;fillColor=none;align=left;verticalAlign=middle;spacingTop=-1;spacingLeft=3;spacingRight=3;rotatable=0;labelPosition=right;points=[];portConstraint=eastwest;strokeColor=inherit;rounded=0;" parent="9b5-Q5q2wwp_xpSfqmgl-161" vertex="1">
          <mxGeometry y="156" width="220" height="8" as="geometry" />
        </mxCell>
        <mxCell id="9b5-Q5q2wwp_xpSfqmgl-168" value="Cliente" style="swimlane;fontStyle=1;align=center;verticalAlign=top;childLayout=stackLayout;horizontal=1;startSize=26;horizontalStack=0;resizeParent=1;resizeParentMax=0;resizeLast=0;collapsible=1;marginBottom=0;whiteSpace=wrap;html=1;rounded=0;" parent="9b5-Q5q2wwp_xpSfqmgl-1" vertex="1" collapsed="1">
          <mxGeometry x="51" y="740" width="130" height="30" as="geometry">
            <mxRectangle x="320" y="860" width="250" height="268" as="alternateBounds" />
          </mxGeometry>
        </mxCell>
        <mxCell id="9b5-Q5q2wwp_xpSfqmgl-169" value="&amp;lt;&amp;lt;Propriety&amp;gt;&amp;gt; + Id: int" style="text;strokeColor=none;fillColor=none;align=left;verticalAlign=top;spacingLeft=4;spacingRight=4;overflow=hidden;rotatable=0;points=[[0,0.5],[1,0.5]];portConstraint=eastwest;whiteSpace=wrap;html=1;rounded=0;" parent="9b5-Q5q2wwp_xpSfqmgl-168" vertex="1">
          <mxGeometry y="26" width="250" height="26" as="geometry" />
        </mxCell>
        <mxCell id="9b5-Q5q2wwp_xpSfqmgl-170" value="&amp;lt;&amp;lt;Propriety&amp;gt;&amp;gt; +&amp;nbsp; Nome: string" style="text;strokeColor=none;fillColor=none;align=left;verticalAlign=top;spacingLeft=4;spacingRight=4;overflow=hidden;rotatable=0;points=[[0,0.5],[1,0.5]];portConstraint=eastwest;whiteSpace=wrap;html=1;rounded=0;" parent="9b5-Q5q2wwp_xpSfqmgl-168" vertex="1">
          <mxGeometry y="52" width="250" height="26" as="geometry" />
        </mxCell>
        <mxCell id="9b5-Q5q2wwp_xpSfqmgl-171" value="&lt;span style=&quot;color: rgb(0, 0, 0); font-family: Helvetica; font-size: 12px; font-style: normal; font-variant-ligatures: normal; font-variant-caps: normal; font-weight: 400; letter-spacing: normal; orphans: 2; text-align: left; text-indent: 0px; text-transform: none; widows: 2; word-spacing: 0px; -webkit-text-stroke-width: 0px; background-color: rgb(251, 251, 251); text-decoration-thickness: initial; text-decoration-style: initial; text-decoration-color: initial; float: none; display: inline !important;&quot;&gt;&amp;lt;&amp;lt;Propriety&amp;gt;&amp;gt; +&lt;span&gt;&amp;nbsp; Cpf: string&lt;/span&gt;&lt;/span&gt;" style="text;strokeColor=none;fillColor=none;align=left;verticalAlign=top;spacingLeft=4;spacingRight=4;overflow=hidden;rotatable=0;points=[[0,0.5],[1,0.5]];portConstraint=eastwest;whiteSpace=wrap;html=1;rounded=0;" parent="9b5-Q5q2wwp_xpSfqmgl-168" vertex="1">
          <mxGeometry y="78" width="250" height="26" as="geometry" />
        </mxCell>
        <mxCell id="9b5-Q5q2wwp_xpSfqmgl-172" value="&amp;lt;&amp;lt;Propriety&amp;gt;&amp;gt; + Email: string" style="text;strokeColor=none;fillColor=none;align=left;verticalAlign=top;spacingLeft=4;spacingRight=4;overflow=hidden;rotatable=0;points=[[0,0.5],[1,0.5]];portConstraint=eastwest;whiteSpace=wrap;html=1;rounded=0;" parent="9b5-Q5q2wwp_xpSfqmgl-168" vertex="1">
          <mxGeometry y="104" width="250" height="26" as="geometry" />
        </mxCell>
        <mxCell id="9b5-Q5q2wwp_xpSfqmgl-173" value="&amp;lt;&amp;lt;Propriety&amp;gt;&amp;gt; +&amp;nbsp; Rg: string" style="text;strokeColor=none;fillColor=none;align=left;verticalAlign=top;spacingLeft=4;spacingRight=4;overflow=hidden;rotatable=0;points=[[0,0.5],[1,0.5]];portConstraint=eastwest;whiteSpace=wrap;html=1;rounded=0;" parent="9b5-Q5q2wwp_xpSfqmgl-168" vertex="1">
          <mxGeometry y="130" width="250" height="26" as="geometry" />
        </mxCell>
        <mxCell id="9b5-Q5q2wwp_xpSfqmgl-174" value="&amp;lt;&amp;lt;Propriety&amp;gt;&amp;gt; +&amp;nbsp; Telefone: string" style="text;strokeColor=none;fillColor=none;align=left;verticalAlign=top;spacingLeft=4;spacingRight=4;overflow=hidden;rotatable=0;points=[[0,0.5],[1,0.5]];portConstraint=eastwest;whiteSpace=wrap;html=1;rounded=0;" parent="9b5-Q5q2wwp_xpSfqmgl-168" vertex="1">
          <mxGeometry y="156" width="250" height="26" as="geometry" />
        </mxCell>
        <mxCell id="9b5-Q5q2wwp_xpSfqmgl-175" value="&lt;span style=&quot;color: rgb(0, 0, 0); font-family: Helvetica; font-size: 12px; font-style: normal; font-variant-ligatures: normal; font-variant-caps: normal; font-weight: 400; letter-spacing: normal; orphans: 2; text-align: left; text-indent: 0px; text-transform: none; widows: 2; word-spacing: 0px; -webkit-text-stroke-width: 0px; background-color: rgb(251, 251, 251); text-decoration-thickness: initial; text-decoration-style: initial; text-decoration-color: initial; float: none; display: inline !important;&quot;&gt;&amp;lt;&amp;lt;Propriety&amp;gt;&amp;gt; +&amp;nbsp; Cnh: string&lt;/span&gt;" style="text;strokeColor=none;fillColor=none;align=left;verticalAlign=top;spacingLeft=4;spacingRight=4;overflow=hidden;rotatable=0;points=[[0,0.5],[1,0.5]];portConstraint=eastwest;whiteSpace=wrap;html=1;rounded=0;" parent="9b5-Q5q2wwp_xpSfqmgl-168" vertex="1">
          <mxGeometry y="182" width="250" height="26" as="geometry" />
        </mxCell>
        <mxCell id="9b5-Q5q2wwp_xpSfqmgl-176" value="&amp;lt;&amp;lt;Propriety&amp;gt;&amp;gt; +&amp;nbsp; Renach: string" style="text;strokeColor=none;fillColor=none;align=left;verticalAlign=top;spacingLeft=4;spacingRight=4;overflow=hidden;rotatable=0;points=[[0,0.5],[1,0.5]];portConstraint=eastwest;whiteSpace=wrap;html=1;rounded=0;" parent="9b5-Q5q2wwp_xpSfqmgl-168" vertex="1">
          <mxGeometry y="208" width="250" height="26" as="geometry" />
        </mxCell>
        <mxCell id="9b5-Q5q2wwp_xpSfqmgl-177" value="&amp;lt;&amp;lt;Propriety&amp;gt;&amp;gt; +&amp;nbsp; DtNascimento: DateTime" style="text;strokeColor=none;fillColor=none;align=left;verticalAlign=top;spacingLeft=4;spacingRight=4;overflow=hidden;rotatable=0;points=[[0,0.5],[1,0.5]];portConstraint=eastwest;whiteSpace=wrap;html=1;rounded=0;" parent="9b5-Q5q2wwp_xpSfqmgl-168" vertex="1">
          <mxGeometry y="234" width="250" height="26" as="geometry" />
        </mxCell>
        <mxCell id="9b5-Q5q2wwp_xpSfqmgl-178" value="" style="line;strokeWidth=1;fillColor=none;align=left;verticalAlign=middle;spacingTop=-1;spacingLeft=3;spacingRight=3;rotatable=0;labelPosition=right;points=[];portConstraint=eastwest;strokeColor=inherit;rounded=0;" parent="9b5-Q5q2wwp_xpSfqmgl-168" vertex="1">
          <mxGeometry y="260" width="250" height="8" as="geometry" />
        </mxCell>
        <mxCell id="9b5-Q5q2wwp_xpSfqmgl-179" value="Aluguel" style="swimlane;fontStyle=1;align=center;verticalAlign=top;childLayout=stackLayout;horizontal=1;startSize=26;horizontalStack=0;resizeParent=1;resizeParentMax=0;resizeLast=0;collapsible=1;marginBottom=0;whiteSpace=wrap;html=1;rounded=0;" parent="9b5-Q5q2wwp_xpSfqmgl-1" vertex="1">
          <mxGeometry x="102.88" y="419" width="266.25" height="242" as="geometry">
            <mxRectangle x="720" y="510" width="130" height="30" as="alternateBounds" />
          </mxGeometry>
        </mxCell>
        <mxCell id="9b5-Q5q2wwp_xpSfqmgl-180" value="- cliente:&amp;nbsp;Cliente&amp;nbsp;" style="text;strokeColor=none;fillColor=none;align=left;verticalAlign=top;spacingLeft=4;spacingRight=4;overflow=hidden;rotatable=0;points=[[0,0.5],[1,0.5]];portConstraint=eastwest;whiteSpace=wrap;html=1;rounded=0;" parent="9b5-Q5q2wwp_xpSfqmgl-179" vertex="1">
          <mxGeometry y="26" width="266.25" height="26" as="geometry" />
        </mxCell>
        <mxCell id="9b5-Q5q2wwp_xpSfqmgl-181" value="- carro: Carro" style="text;strokeColor=none;fillColor=none;align=left;verticalAlign=top;spacingLeft=4;spacingRight=4;overflow=hidden;rotatable=0;points=[[0,0.5],[1,0.5]];portConstraint=eastwest;whiteSpace=wrap;html=1;rounded=0;" parent="9b5-Q5q2wwp_xpSfqmgl-179" vertex="1">
          <mxGeometry y="52" width="266.25" height="26" as="geometry" />
        </mxCell>
        <mxCell id="9b5-Q5q2wwp_xpSfqmgl-182" value="&amp;lt;&amp;lt;Propriety&amp;gt;&amp;gt; + Id: int" style="text;strokeColor=none;fillColor=none;align=left;verticalAlign=top;spacingLeft=4;spacingRight=4;overflow=hidden;rotatable=0;points=[[0,0.5],[1,0.5]];portConstraint=eastwest;whiteSpace=wrap;html=1;rounded=0;" parent="9b5-Q5q2wwp_xpSfqmgl-179" vertex="1">
          <mxGeometry y="78" width="266.25" height="26" as="geometry" />
        </mxCell>
        <mxCell id="9b5-Q5q2wwp_xpSfqmgl-183" value="&amp;lt;&amp;lt;Propriety&amp;gt;&amp;gt; + Id_cliente: int" style="text;strokeColor=none;fillColor=none;align=left;verticalAlign=top;spacingLeft=4;spacingRight=4;overflow=hidden;rotatable=0;points=[[0,0.5],[1,0.5]];portConstraint=eastwest;whiteSpace=wrap;html=1;rounded=0;" parent="9b5-Q5q2wwp_xpSfqmgl-179" vertex="1">
          <mxGeometry y="104" width="266.25" height="26" as="geometry" />
        </mxCell>
        <mxCell id="9b5-Q5q2wwp_xpSfqmgl-184" value="&amp;lt;&amp;lt;Propriety&amp;gt;&amp;gt; + Id_carro: int" style="text;strokeColor=none;fillColor=none;align=left;verticalAlign=top;spacingLeft=4;spacingRight=4;overflow=hidden;rotatable=0;points=[[0,0.5],[1,0.5]];portConstraint=eastwest;whiteSpace=wrap;html=1;rounded=0;" parent="9b5-Q5q2wwp_xpSfqmgl-179" vertex="1">
          <mxGeometry y="130" width="266.25" height="26" as="geometry" />
        </mxCell>
        <mxCell id="9b5-Q5q2wwp_xpSfqmgl-185" value="&amp;lt;&amp;lt;Propriety&amp;gt;&amp;gt; +&amp;nbsp; DtInicio: DateTime" style="text;strokeColor=none;fillColor=none;align=left;verticalAlign=top;spacingLeft=4;spacingRight=4;overflow=hidden;rotatable=0;points=[[0,0.5],[1,0.5]];portConstraint=eastwest;whiteSpace=wrap;html=1;rounded=0;" parent="9b5-Q5q2wwp_xpSfqmgl-179" vertex="1">
          <mxGeometry y="156" width="266.25" height="26" as="geometry" />
        </mxCell>
        <mxCell id="9b5-Q5q2wwp_xpSfqmgl-186" value="&amp;lt;&amp;lt;Propriety&amp;gt;&amp;gt; +&amp;nbsp; DtFim: DateTime" style="text;strokeColor=none;fillColor=none;align=left;verticalAlign=top;spacingLeft=4;spacingRight=4;overflow=hidden;rotatable=0;points=[[0,0.5],[1,0.5]];portConstraint=eastwest;whiteSpace=wrap;html=1;rounded=0;" parent="9b5-Q5q2wwp_xpSfqmgl-179" vertex="1">
          <mxGeometry y="182" width="266.25" height="26" as="geometry" />
        </mxCell>
        <mxCell id="9b5-Q5q2wwp_xpSfqmgl-187" value="&amp;lt;&amp;lt;Propriety&amp;gt;&amp;gt; +&amp;nbsp; Total: decimal" style="text;strokeColor=none;fillColor=none;align=left;verticalAlign=top;spacingLeft=4;spacingRight=4;overflow=hidden;rotatable=0;points=[[0,0.5],[1,0.5]];portConstraint=eastwest;whiteSpace=wrap;html=1;rounded=0;" parent="9b5-Q5q2wwp_xpSfqmgl-179" vertex="1">
          <mxGeometry y="208" width="266.25" height="26" as="geometry" />
        </mxCell>
        <mxCell id="9b5-Q5q2wwp_xpSfqmgl-188" value="" style="line;strokeWidth=1;fillColor=none;align=left;verticalAlign=middle;spacingTop=-1;spacingLeft=3;spacingRight=3;rotatable=0;labelPosition=right;points=[];portConstraint=eastwest;strokeColor=inherit;rounded=0;" parent="9b5-Q5q2wwp_xpSfqmgl-179" vertex="1">
          <mxGeometry y="234" width="266.25" height="8" as="geometry" />
        </mxCell>
        <mxCell id="9b5-Q5q2wwp_xpSfqmgl-189" value="" style="endArrow=none;html=1;endSize=12;startArrow=open;startSize=14;startFill=0;rounded=0;labelBackgroundColor=default;strokeColor=default;fontFamily=Helvetica;fontSize=11;fontColor=default;shape=connector;endFill=0;" parent="9b5-Q5q2wwp_xpSfqmgl-1" source="9b5-Q5q2wwp_xpSfqmgl-168" target="9b5-Q5q2wwp_xpSfqmgl-179" edge="1">
          <mxGeometry x="0.4237" y="-56" relative="1" as="geometry">
            <mxPoint x="-299" y="1040" as="sourcePoint" />
            <mxPoint x="-109" y="1060" as="targetPoint" />
            <mxPoint as="offset" />
          </mxGeometry>
        </mxCell>
        <mxCell id="9b5-Q5q2wwp_xpSfqmgl-190" value="1" style="edgeLabel;resizable=0;html=1;align=left;verticalAlign=top;fontFamily=Helvetica;fontSize=11;fontColor=default;" parent="9b5-Q5q2wwp_xpSfqmgl-189" connectable="0" vertex="1">
          <mxGeometry x="-1" relative="1" as="geometry">
            <mxPoint x="17" y="-22" as="offset" />
          </mxGeometry>
        </mxCell>
        <mxCell id="9b5-Q5q2wwp_xpSfqmgl-191" value="0..n" style="edgeLabel;resizable=0;html=1;align=right;verticalAlign=top;fontFamily=Helvetica;fontSize=11;fontColor=default;" parent="9b5-Q5q2wwp_xpSfqmgl-189" connectable="0" vertex="1">
          <mxGeometry x="1" relative="1" as="geometry">
            <mxPoint x="-16" y="-1" as="offset" />
          </mxGeometry>
        </mxCell>
        <mxCell id="9b5-Q5q2wwp_xpSfqmgl-192" value="" style="endArrow=none;html=1;endSize=12;startArrow=open;startSize=14;startFill=0;rounded=0;labelBackgroundColor=default;strokeColor=default;fontFamily=Helvetica;fontSize=11;fontColor=default;shape=connector;endFill=0;" parent="9b5-Q5q2wwp_xpSfqmgl-1" source="9b5-Q5q2wwp_xpSfqmgl-161" target="9b5-Q5q2wwp_xpSfqmgl-179" edge="1">
          <mxGeometry x="0.4237" y="-56" relative="1" as="geometry">
            <mxPoint x="-89" y="730" as="sourcePoint" />
            <mxPoint x="241" y="780" as="targetPoint" />
            <mxPoint as="offset" />
          </mxGeometry>
        </mxCell>
        <mxCell id="9b5-Q5q2wwp_xpSfqmgl-193" value="1" style="edgeLabel;resizable=0;html=1;align=left;verticalAlign=top;fontFamily=Helvetica;fontSize=11;fontColor=default;" parent="9b5-Q5q2wwp_xpSfqmgl-192" connectable="0" vertex="1">
          <mxGeometry x="-1" relative="1" as="geometry">
            <mxPoint x="8" y="-30" as="offset" />
          </mxGeometry>
        </mxCell>
        <mxCell id="9b5-Q5q2wwp_xpSfqmgl-194" value="0..n" style="edgeLabel;resizable=0;html=1;align=right;verticalAlign=top;fontFamily=Helvetica;fontSize=11;fontColor=default;" parent="9b5-Q5q2wwp_xpSfqmgl-192" connectable="0" vertex="1">
          <mxGeometry x="1" relative="1" as="geometry">
            <mxPoint x="-3" y="8" as="offset" />
          </mxGeometry>
        </mxCell>
        <mxCell id="zARtL-BVIUvN1OQDmW5e-2" value="&amp;lt;&amp;lt;Interface&amp;gt;&amp;gt;&lt;br&gt;ISelectCommandString" style="swimlane;fontStyle=1;align=center;verticalAlign=top;childLayout=stackLayout;horizontal=1;startSize=40;horizontalStack=0;resizeParent=1;resizeParentMax=0;resizeLast=0;collapsible=1;marginBottom=0;whiteSpace=wrap;html=1;rounded=0;" parent="9b5-Q5q2wwp_xpSfqmgl-1" vertex="1">
          <mxGeometry x="381" y="661" width="270" height="100" as="geometry">
            <mxRectangle x="1240" y="50" width="150" height="30" as="alternateBounds" />
          </mxGeometry>
        </mxCell>
        <mxCell id="zARtL-BVIUvN1OQDmW5e-6" value="" style="line;strokeWidth=1;fillColor=none;align=left;verticalAlign=middle;spacingTop=-1;spacingLeft=3;spacingRight=3;rotatable=0;labelPosition=right;points=[];portConstraint=eastwest;strokeColor=inherit;rounded=0;" parent="zARtL-BVIUvN1OQDmW5e-2" vertex="1">
          <mxGeometry y="40" width="270" height="8" as="geometry" />
        </mxCell>
        <mxCell id="zARtL-BVIUvN1OQDmW5e-7" value="+ getItemBySql&amp;lt;T&amp;gt;(sql: string, filter: T): T" style="text;strokeColor=none;fillColor=none;align=left;verticalAlign=top;spacingLeft=4;spacingRight=4;overflow=hidden;rotatable=0;points=[[0,0.5],[1,0.5]];portConstraint=eastwest;whiteSpace=wrap;html=1;rounded=0;" parent="zARtL-BVIUvN1OQDmW5e-2" vertex="1">
          <mxGeometry y="48" width="270" height="26" as="geometry" />
        </mxCell>
        <mxCell id="zARtL-BVIUvN1OQDmW5e-10" value="+ getItensBySql&amp;lt;T&amp;gt;(sql: string, filter: T): List&amp;lt;T&amp;gt;" style="text;strokeColor=none;fillColor=none;align=left;verticalAlign=top;spacingLeft=4;spacingRight=4;overflow=hidden;rotatable=0;points=[[0,0.5],[1,0.5]];portConstraint=eastwest;whiteSpace=wrap;html=1;rounded=0;" parent="zARtL-BVIUvN1OQDmW5e-2" vertex="1">
          <mxGeometry y="74" width="270" height="26" as="geometry" />
        </mxCell>
        <mxCell id="zARtL-BVIUvN1OQDmW5e-11" style="edgeStyle=none;shape=connector;rounded=0;orthogonalLoop=1;jettySize=auto;html=1;labelBackgroundColor=default;strokeColor=default;fontFamily=Helvetica;fontSize=11;fontColor=default;endArrow=diamondThin;endFill=0;startSize=16;endSize=16;startArrow=open;startFill=0;" parent="9b5-Q5q2wwp_xpSfqmgl-1" source="zARtL-BVIUvN1OQDmW5e-2" target="9b5-Q5q2wwp_xpSfqmgl-150" edge="1">
          <mxGeometry relative="1" as="geometry">
            <mxPoint x="351" y="414" as="sourcePoint" />
            <mxPoint x="351" y="580" as="targetPoint" />
          </mxGeometry>
        </mxCell>
        <mxCell id="zARtL-BVIUvN1OQDmW5e-12" value="1" style="edgeLabel;html=1;align=center;verticalAlign=middle;resizable=0;points=[];fontSize=11;fontFamily=Helvetica;fontColor=default;" parent="zARtL-BVIUvN1OQDmW5e-11" vertex="1" connectable="0">
          <mxGeometry x="0.6873" y="-2" relative="1" as="geometry">
            <mxPoint x="22" as="offset" />
          </mxGeometry>
        </mxCell>
        <mxCell id="zARtL-BVIUvN1OQDmW5e-13" value="1" style="edgeLabel;html=1;align=center;verticalAlign=middle;resizable=0;points=[];fontSize=11;fontFamily=Helvetica;fontColor=default;" parent="zARtL-BVIUvN1OQDmW5e-11" vertex="1" connectable="0">
          <mxGeometry x="-0.6809" y="-2" relative="1" as="geometry">
            <mxPoint x="22" y="-11" as="offset" />
          </mxGeometry>
        </mxCell>
        <mxCell id="zARtL-BVIUvN1OQDmW5e-22" style="edgeStyle=none;shape=connector;rounded=0;orthogonalLoop=1;jettySize=auto;html=1;labelBackgroundColor=default;strokeColor=default;fontFamily=Helvetica;fontSize=11;fontColor=default;endArrow=block;endFill=0;startSize=16;endSize=16;dashed=1;" parent="9b5-Q5q2wwp_xpSfqmgl-1" source="zARtL-BVIUvN1OQDmW5e-14" target="zARtL-BVIUvN1OQDmW5e-2" edge="1">
          <mxGeometry relative="1" as="geometry" />
        </mxCell>
        <mxCell id="zARtL-BVIUvN1OQDmW5e-14" value="ISelectCommandString" style="swimlane;fontStyle=1;align=center;verticalAlign=top;childLayout=stackLayout;horizontal=1;startSize=26;horizontalStack=0;resizeParent=1;resizeParentMax=0;resizeLast=0;collapsible=1;marginBottom=0;whiteSpace=wrap;html=1;rounded=0;" parent="9b5-Q5q2wwp_xpSfqmgl-1" vertex="1">
          <mxGeometry x="396" y="820" width="240" height="86" as="geometry">
            <mxRectangle x="1240" y="50" width="150" height="30" as="alternateBounds" />
          </mxGeometry>
        </mxCell>
        <mxCell id="zARtL-BVIUvN1OQDmW5e-21" value="-&amp;nbsp;_dbConnection: IDbConnection" style="text;strokeColor=none;fillColor=none;align=left;verticalAlign=top;spacingLeft=4;spacingRight=4;overflow=hidden;rotatable=0;points=[[0,0.5],[1,0.5]];portConstraint=eastwest;whiteSpace=wrap;html=1;rounded=0;" parent="zARtL-BVIUvN1OQDmW5e-14" vertex="1">
          <mxGeometry y="26" width="240" height="26" as="geometry" />
        </mxCell>
        <mxCell id="zARtL-BVIUvN1OQDmW5e-18" value="" style="line;strokeWidth=1;fillColor=none;align=left;verticalAlign=middle;spacingTop=-1;spacingLeft=3;spacingRight=3;rotatable=0;labelPosition=right;points=[];portConstraint=eastwest;strokeColor=inherit;rounded=0;" parent="zARtL-BVIUvN1OQDmW5e-14" vertex="1">
          <mxGeometry y="52" width="240" height="8" as="geometry" />
        </mxCell>
        <mxCell id="zARtL-BVIUvN1OQDmW5e-19" value="- UpdateMapping():void" style="text;strokeColor=none;fillColor=none;align=left;verticalAlign=top;spacingLeft=4;spacingRight=4;overflow=hidden;rotatable=0;points=[[0,0.5],[1,0.5]];portConstraint=eastwest;whiteSpace=wrap;html=1;rounded=0;" parent="zARtL-BVIUvN1OQDmW5e-14" vertex="1">
          <mxGeometry y="60" width="240" height="26" as="geometry" />
        </mxCell>
      </root>
    </mxGraphModel>
  </diagram>
  <diagram name="Classe Cliente" id="hAzMKobrs6J3bpHFXCkU">
    <mxGraphModel dx="678" dy="628" grid="1" gridSize="10" guides="1" tooltips="1" connect="1" arrows="1" fold="1" page="1" pageScale="1" pageWidth="850" pageHeight="1100" math="0" shadow="0">
      <root>
        <mxCell id="BkYMh2hGVM6mSAaFlrnn-0" />
        <mxCell id="BkYMh2hGVM6mSAaFlrnn-1" parent="BkYMh2hGVM6mSAaFlrnn-0" />
        <mxCell id="BkYMh2hGVM6mSAaFlrnn-52" style="edgeStyle=none;shape=connector;rounded=0;orthogonalLoop=1;jettySize=auto;html=1;labelBackgroundColor=default;strokeColor=default;fontFamily=Helvetica;fontSize=11;fontColor=default;endArrow=block;endFill=0;startSize=16;endSize=16;" parent="BkYMh2hGVM6mSAaFlrnn-1" edge="1">
          <mxGeometry relative="1" as="geometry">
            <mxPoint x="75" y="540" as="sourcePoint" />
          </mxGeometry>
        </mxCell>
        <mxCell id="BkYMh2hGVM6mSAaFlrnn-53" style="edgeStyle=none;shape=connector;rounded=0;orthogonalLoop=1;jettySize=auto;html=1;labelBackgroundColor=default;strokeColor=default;fontFamily=Helvetica;fontSize=11;fontColor=default;endArrow=open;endFill=0;startSize=16;endSize=16;" parent="BkYMh2hGVM6mSAaFlrnn-1" edge="1">
          <mxGeometry relative="1" as="geometry">
            <mxPoint x="62.5" y="570.0000000000002" as="sourcePoint" />
          </mxGeometry>
        </mxCell>
        <mxCell id="BkYMh2hGVM6mSAaFlrnn-54" style="edgeStyle=none;shape=connector;rounded=0;orthogonalLoop=1;jettySize=auto;html=1;labelBackgroundColor=default;strokeColor=default;fontFamily=Helvetica;fontSize=11;fontColor=default;endArrow=open;endFill=0;startSize=16;endSize=16;" parent="BkYMh2hGVM6mSAaFlrnn-1" edge="1">
          <mxGeometry relative="1" as="geometry">
            <mxPoint x="115.46875" y="570.0000000000002" as="sourcePoint" />
          </mxGeometry>
        </mxCell>
        <mxCell id="BkYMh2hGVM6mSAaFlrnn-55" style="edgeStyle=none;shape=connector;rounded=0;orthogonalLoop=1;jettySize=auto;html=1;labelBackgroundColor=default;strokeColor=default;fontFamily=Helvetica;fontSize=11;fontColor=default;endArrow=none;endFill=0;startSize=16;endSize=16;" parent="BkYMh2hGVM6mSAaFlrnn-1" edge="1">
          <mxGeometry relative="1" as="geometry">
            <mxPoint x="85.26785714285711" y="570.0000000000002" as="sourcePoint" />
          </mxGeometry>
        </mxCell>
        <mxCell id="BkYMh2hGVM6mSAaFlrnn-56" style="edgeStyle=none;shape=connector;rounded=0;orthogonalLoop=1;jettySize=auto;html=1;labelBackgroundColor=default;strokeColor=default;fontFamily=Helvetica;fontSize=11;fontColor=default;endArrow=open;endFill=0;startSize=16;endSize=16;" parent="BkYMh2hGVM6mSAaFlrnn-1" edge="1">
          <mxGeometry relative="1" as="geometry">
            <mxPoint x="325" y="635" as="sourcePoint" />
          </mxGeometry>
        </mxCell>
        <mxCell id="BkYMh2hGVM6mSAaFlrnn-113" value="&amp;lt;&amp;lt;Interface&amp;gt;&amp;gt;&lt;br style=&quot;border-color: var(--border-color);&quot;&gt;IMySqlStringFactory&amp;lt;T&amp;gt;" style="swimlane;fontStyle=1;align=center;verticalAlign=top;childLayout=stackLayout;horizontal=1;startSize=40;horizontalStack=0;resizeParent=1;resizeParentMax=0;resizeLast=0;collapsible=1;marginBottom=0;whiteSpace=wrap;html=1;rounded=0;" parent="BkYMh2hGVM6mSAaFlrnn-1" vertex="1">
          <mxGeometry x="673.75" y="230" width="290" height="178" as="geometry">
            <mxRectangle x="1170" y="230" width="150" height="50" as="alternateBounds" />
          </mxGeometry>
        </mxCell>
        <mxCell id="BkYMh2hGVM6mSAaFlrnn-114" value="" style="line;strokeWidth=1;fillColor=none;align=left;verticalAlign=middle;spacingTop=-1;spacingLeft=3;spacingRight=3;rotatable=0;labelPosition=right;points=[];portConstraint=eastwest;strokeColor=inherit;rounded=0;" parent="BkYMh2hGVM6mSAaFlrnn-113" vertex="1">
          <mxGeometry y="40" width="290" height="8" as="geometry" />
        </mxCell>
        <mxCell id="BkYMh2hGVM6mSAaFlrnn-115" value="+&amp;nbsp;GetInsertSql(excepFor: string): string" style="text;strokeColor=none;fillColor=none;align=left;verticalAlign=top;spacingLeft=4;spacingRight=4;overflow=hidden;rotatable=0;points=[[0,0.5],[1,0.5]];portConstraint=eastwest;whiteSpace=wrap;html=1;rounded=0;" parent="BkYMh2hGVM6mSAaFlrnn-113" vertex="1">
          <mxGeometry y="48" width="290" height="26" as="geometry" />
        </mxCell>
        <mxCell id="BkYMh2hGVM6mSAaFlrnn-116" value="+&amp;nbsp;GetSelectSql(attributesCondition: string[]): string" style="text;strokeColor=none;fillColor=none;align=left;verticalAlign=top;spacingLeft=4;spacingRight=4;overflow=hidden;rotatable=0;points=[[0,0.5],[1,0.5]];portConstraint=eastwest;whiteSpace=wrap;html=1;rounded=0;" parent="BkYMh2hGVM6mSAaFlrnn-113" vertex="1">
          <mxGeometry y="74" width="290" height="26" as="geometry" />
        </mxCell>
        <mxCell id="BkYMh2hGVM6mSAaFlrnn-117" value="+&amp;nbsp;GetUpdateSql(attributesCondition: string): string" style="text;strokeColor=none;fillColor=none;align=left;verticalAlign=top;spacingLeft=4;spacingRight=4;overflow=hidden;rotatable=0;points=[[0,0.5],[1,0.5]];portConstraint=eastwest;whiteSpace=wrap;html=1;rounded=0;" parent="BkYMh2hGVM6mSAaFlrnn-113" vertex="1">
          <mxGeometry y="100" width="290" height="26" as="geometry" />
        </mxCell>
        <mxCell id="BkYMh2hGVM6mSAaFlrnn-118" value="+&amp;nbsp;GetDeleteSql(attributesCondition: string): string&amp;nbsp;" style="text;strokeColor=none;fillColor=none;align=left;verticalAlign=top;spacingLeft=4;spacingRight=4;overflow=hidden;rotatable=0;points=[[0,0.5],[1,0.5]];portConstraint=eastwest;whiteSpace=wrap;html=1;rounded=0;" parent="BkYMh2hGVM6mSAaFlrnn-113" vertex="1">
          <mxGeometry y="126" width="290" height="26" as="geometry" />
        </mxCell>
        <mxCell id="BkYMh2hGVM6mSAaFlrnn-119" value="+ GetNotNullPropriety(item: T): string[]" style="text;strokeColor=none;fillColor=none;align=left;verticalAlign=top;spacingLeft=4;spacingRight=4;overflow=hidden;rotatable=0;points=[[0,0.5],[1,0.5]];portConstraint=eastwest;whiteSpace=wrap;html=1;rounded=0;" parent="BkYMh2hGVM6mSAaFlrnn-113" vertex="1">
          <mxGeometry y="152" width="290" height="26" as="geometry" />
        </mxCell>
        <mxCell id="BkYMh2hGVM6mSAaFlrnn-120" style="edgeStyle=none;shape=connector;rounded=0;orthogonalLoop=1;jettySize=auto;html=1;labelBackgroundColor=default;strokeColor=default;fontFamily=Helvetica;fontSize=11;fontColor=default;endArrow=block;endFill=0;startSize=16;endSize=16;dashed=1;" parent="BkYMh2hGVM6mSAaFlrnn-1" source="BkYMh2hGVM6mSAaFlrnn-121" target="BkYMh2hGVM6mSAaFlrnn-113" edge="1">
          <mxGeometry relative="1" as="geometry" />
        </mxCell>
        <mxCell id="BkYMh2hGVM6mSAaFlrnn-121" value="MySqlStringFactory&amp;lt;T&amp;gt;" style="swimlane;fontStyle=1;align=center;verticalAlign=top;childLayout=stackLayout;horizontal=1;startSize=26;horizontalStack=0;resizeParent=1;resizeParentMax=0;resizeLast=0;collapsible=1;marginBottom=0;whiteSpace=wrap;html=1;rounded=0;" parent="BkYMh2hGVM6mSAaFlrnn-1" vertex="1">
          <mxGeometry x="1030" y="250" width="160" height="138" as="geometry">
            <mxRectangle x="1240" y="50" width="150" height="30" as="alternateBounds" />
          </mxGeometry>
        </mxCell>
        <mxCell id="BkYMh2hGVM6mSAaFlrnn-122" value="- table: string" style="text;strokeColor=none;fillColor=none;align=left;verticalAlign=top;spacingLeft=4;spacingRight=4;overflow=hidden;rotatable=0;points=[[0,0.5],[1,0.5]];portConstraint=eastwest;whiteSpace=wrap;html=1;rounded=0;" parent="BkYMh2hGVM6mSAaFlrnn-121" vertex="1">
          <mxGeometry y="26" width="160" height="26" as="geometry" />
        </mxCell>
        <mxCell id="BkYMh2hGVM6mSAaFlrnn-123" value="- collunms: List&amp;lt;string&amp;gt;" style="text;strokeColor=none;fillColor=none;align=left;verticalAlign=top;spacingLeft=4;spacingRight=4;overflow=hidden;rotatable=0;points=[[0,0.5],[1,0.5]];portConstraint=eastwest;whiteSpace=wrap;html=1;rounded=0;" parent="BkYMh2hGVM6mSAaFlrnn-121" vertex="1">
          <mxGeometry y="52" width="160" height="26" as="geometry" />
        </mxCell>
        <mxCell id="BkYMh2hGVM6mSAaFlrnn-124" value="- proprieties: List&amp;lt;string&amp;gt;" style="text;strokeColor=none;fillColor=none;align=left;verticalAlign=top;spacingLeft=4;spacingRight=4;overflow=hidden;rotatable=0;points=[[0,0.5],[1,0.5]];portConstraint=eastwest;whiteSpace=wrap;html=1;rounded=0;" parent="BkYMh2hGVM6mSAaFlrnn-121" vertex="1">
          <mxGeometry y="78" width="160" height="26" as="geometry" />
        </mxCell>
        <mxCell id="BkYMh2hGVM6mSAaFlrnn-125" value="" style="line;strokeWidth=1;fillColor=none;align=left;verticalAlign=middle;spacingTop=-1;spacingLeft=3;spacingRight=3;rotatable=0;labelPosition=right;points=[];portConstraint=eastwest;strokeColor=inherit;rounded=0;" parent="BkYMh2hGVM6mSAaFlrnn-121" vertex="1">
          <mxGeometry y="104" width="160" height="8" as="geometry" />
        </mxCell>
        <mxCell id="BkYMh2hGVM6mSAaFlrnn-126" value="- UpdateMapping():void" style="text;strokeColor=none;fillColor=none;align=left;verticalAlign=top;spacingLeft=4;spacingRight=4;overflow=hidden;rotatable=0;points=[[0,0.5],[1,0.5]];portConstraint=eastwest;whiteSpace=wrap;html=1;rounded=0;" parent="BkYMh2hGVM6mSAaFlrnn-121" vertex="1">
          <mxGeometry y="112" width="160" height="26" as="geometry" />
        </mxCell>
        <mxCell id="BkYMh2hGVM6mSAaFlrnn-127" value="&amp;lt;&amp;lt;Interface&amp;gt;&amp;gt;&lt;br&gt;IGenericCrud&amp;lt;T&amp;gt;" style="swimlane;fontStyle=1;align=center;verticalAlign=top;childLayout=stackLayout;horizontal=1;startSize=40;horizontalStack=0;resizeParent=1;resizeParentMax=0;resizeLast=0;collapsible=1;marginBottom=0;whiteSpace=wrap;html=1;rounded=0;" parent="BkYMh2hGVM6mSAaFlrnn-1" vertex="1">
          <mxGeometry x="1230" y="326" width="160" height="178" as="geometry">
            <mxRectangle x="1160" y="500" width="135" height="50" as="alternateBounds" />
          </mxGeometry>
        </mxCell>
        <mxCell id="BkYMh2hGVM6mSAaFlrnn-128" value="" style="line;strokeWidth=1;fillColor=none;align=left;verticalAlign=middle;spacingTop=-1;spacingLeft=3;spacingRight=3;rotatable=0;labelPosition=right;points=[];portConstraint=eastwest;strokeColor=inherit;rounded=0;" parent="BkYMh2hGVM6mSAaFlrnn-127" vertex="1">
          <mxGeometry y="40" width="160" height="8" as="geometry" />
        </mxCell>
        <mxCell id="BkYMh2hGVM6mSAaFlrnn-129" value="+&amp;nbsp;Adicionar(item: T): bool" style="text;strokeColor=none;fillColor=none;align=left;verticalAlign=top;spacingLeft=4;spacingRight=4;overflow=hidden;rotatable=0;points=[[0,0.5],[1,0.5]];portConstraint=eastwest;whiteSpace=wrap;html=1;rounded=0;" parent="BkYMh2hGVM6mSAaFlrnn-127" vertex="1">
          <mxGeometry y="48" width="160" height="26" as="geometry" />
        </mxCell>
        <mxCell id="BkYMh2hGVM6mSAaFlrnn-130" value="+&amp;nbsp;Atualizar(item T): bool" style="text;strokeColor=none;fillColor=none;align=left;verticalAlign=top;spacingLeft=4;spacingRight=4;overflow=hidden;rotatable=0;points=[[0,0.5],[1,0.5]];portConstraint=eastwest;whiteSpace=wrap;html=1;rounded=0;" parent="BkYMh2hGVM6mSAaFlrnn-127" vertex="1">
          <mxGeometry y="74" width="160" height="26" as="geometry" />
        </mxCell>
        <mxCell id="BkYMh2hGVM6mSAaFlrnn-131" value="+ Remover(item: T): bool" style="text;strokeColor=none;fillColor=none;align=left;verticalAlign=top;spacingLeft=4;spacingRight=4;overflow=hidden;rotatable=0;points=[[0,0.5],[1,0.5]];portConstraint=eastwest;whiteSpace=wrap;html=1;rounded=0;" parent="BkYMh2hGVM6mSAaFlrnn-127" vertex="1">
          <mxGeometry y="100" width="160" height="26" as="geometry" />
        </mxCell>
        <mxCell id="BkYMh2hGVM6mSAaFlrnn-132" value="+ BuscarUnico(item: T): T" style="text;strokeColor=none;fillColor=none;align=left;verticalAlign=top;spacingLeft=4;spacingRight=4;overflow=hidden;rotatable=0;points=[[0,0.5],[1,0.5]];portConstraint=eastwest;whiteSpace=wrap;html=1;rounded=0;" parent="BkYMh2hGVM6mSAaFlrnn-127" vertex="1">
          <mxGeometry y="126" width="160" height="26" as="geometry" />
        </mxCell>
        <mxCell id="BkYMh2hGVM6mSAaFlrnn-133" value="+ BuscarVarios(): List&amp;lt;T&amp;gt;" style="text;strokeColor=none;fillColor=none;align=left;verticalAlign=top;spacingLeft=4;spacingRight=4;overflow=hidden;rotatable=0;points=[[0,0.5],[1,0.5]];portConstraint=eastwest;whiteSpace=wrap;html=1;rounded=0;" parent="BkYMh2hGVM6mSAaFlrnn-127" vertex="1">
          <mxGeometry y="152" width="160" height="26" as="geometry" />
        </mxCell>
        <mxCell id="BkYMh2hGVM6mSAaFlrnn-134" style="edgeStyle=none;shape=connector;rounded=0;orthogonalLoop=1;jettySize=auto;html=1;labelBackgroundColor=default;strokeColor=default;fontFamily=Helvetica;fontSize=11;fontColor=default;endArrow=block;endFill=0;startSize=16;endSize=16;dashed=1;" parent="BkYMh2hGVM6mSAaFlrnn-1" source="BkYMh2hGVM6mSAaFlrnn-139" target="BkYMh2hGVM6mSAaFlrnn-157" edge="1">
          <mxGeometry relative="1" as="geometry" />
        </mxCell>
        <mxCell id="BkYMh2hGVM6mSAaFlrnn-135" style="edgeStyle=none;shape=connector;rounded=0;orthogonalLoop=1;jettySize=auto;html=1;labelBackgroundColor=default;strokeColor=default;fontFamily=Helvetica;fontSize=11;fontColor=default;endArrow=open;endFill=0;startSize=16;endSize=16;startArrow=diamondThin;startFill=0;" parent="BkYMh2hGVM6mSAaFlrnn-1" source="BkYMh2hGVM6mSAaFlrnn-139" target="BkYMh2hGVM6mSAaFlrnn-113" edge="1">
          <mxGeometry relative="1" as="geometry" />
        </mxCell>
        <mxCell id="BkYMh2hGVM6mSAaFlrnn-136" value="1" style="edgeLabel;html=1;align=center;verticalAlign=middle;resizable=0;points=[];fontSize=11;fontFamily=Helvetica;fontColor=default;" parent="BkYMh2hGVM6mSAaFlrnn-135" vertex="1" connectable="0">
          <mxGeometry x="0.2949" y="2" relative="1" as="geometry">
            <mxPoint x="23" y="-17" as="offset" />
          </mxGeometry>
        </mxCell>
        <mxCell id="BkYMh2hGVM6mSAaFlrnn-137" value="1" style="edgeLabel;html=1;align=center;verticalAlign=middle;resizable=0;points=[];fontSize=11;fontFamily=Helvetica;fontColor=default;" parent="BkYMh2hGVM6mSAaFlrnn-135" vertex="1" connectable="0">
          <mxGeometry x="-0.2097" y="-1" relative="1" as="geometry">
            <mxPoint x="20" y="12" as="offset" />
          </mxGeometry>
        </mxCell>
        <mxCell id="BkYMh2hGVM6mSAaFlrnn-138" style="edgeStyle=none;shape=connector;rounded=0;orthogonalLoop=1;jettySize=auto;html=1;labelBackgroundColor=default;strokeColor=default;fontFamily=Helvetica;fontSize=11;fontColor=default;endArrow=open;endFill=0;startSize=16;endSize=16;dashed=1;" parent="BkYMh2hGVM6mSAaFlrnn-1" source="BkYMh2hGVM6mSAaFlrnn-139" target="BkYMh2hGVM6mSAaFlrnn-168" edge="1">
          <mxGeometry relative="1" as="geometry">
            <mxPoint x="818.75" y="668" as="targetPoint" />
          </mxGeometry>
        </mxCell>
        <mxCell id="BkYMh2hGVM6mSAaFlrnn-139" value="ClienteDAO" style="swimlane;fontStyle=1;align=center;verticalAlign=top;childLayout=stackLayout;horizontal=1;startSize=26;horizontalStack=0;resizeParent=1;resizeParentMax=0;resizeLast=0;collapsible=1;marginBottom=0;whiteSpace=wrap;html=1;rounded=0;" parent="BkYMh2hGVM6mSAaFlrnn-1" vertex="1">
          <mxGeometry x="690" y="490" width="257.5" height="86" as="geometry">
            <mxRectangle x="960" y="240" width="135" height="30" as="alternateBounds" />
          </mxGeometry>
        </mxCell>
        <mxCell id="BkYMh2hGVM6mSAaFlrnn-140" value="-&amp;nbsp;_dbConnection: IDbConnection" style="text;strokeColor=none;fillColor=none;align=left;verticalAlign=top;spacingLeft=4;spacingRight=4;overflow=hidden;rotatable=0;points=[[0,0.5],[1,0.5]];portConstraint=eastwest;whiteSpace=wrap;html=1;rounded=0;" parent="BkYMh2hGVM6mSAaFlrnn-139" vertex="1">
          <mxGeometry y="26" width="257.5" height="26" as="geometry" />
        </mxCell>
        <mxCell id="BkYMh2hGVM6mSAaFlrnn-141" value="- _sqlFactory:&amp;nbsp;IMySqlStringFactory&amp;lt;Aluguel&amp;gt;&amp;nbsp;" style="text;strokeColor=none;fillColor=none;align=left;verticalAlign=top;spacingLeft=4;spacingRight=4;overflow=hidden;rotatable=0;points=[[0,0.5],[1,0.5]];portConstraint=eastwest;whiteSpace=wrap;html=1;rounded=0;" parent="BkYMh2hGVM6mSAaFlrnn-139" vertex="1">
          <mxGeometry y="52" width="257.5" height="26" as="geometry" />
        </mxCell>
        <mxCell id="BkYMh2hGVM6mSAaFlrnn-142" value="" style="line;strokeWidth=1;fillColor=none;align=left;verticalAlign=middle;spacingTop=-1;spacingLeft=3;spacingRight=3;rotatable=0;labelPosition=right;points=[];portConstraint=eastwest;strokeColor=inherit;rounded=0;" parent="BkYMh2hGVM6mSAaFlrnn-139" vertex="1">
          <mxGeometry y="78" width="257.5" height="8" as="geometry" />
        </mxCell>
        <mxCell id="BkYMh2hGVM6mSAaFlrnn-143" style="edgeStyle=none;shape=connector;rounded=0;orthogonalLoop=1;jettySize=auto;html=1;labelBackgroundColor=default;strokeColor=default;fontFamily=Helvetica;fontSize=11;fontColor=default;endArrow=block;endFill=0;startSize=16;endSize=16;" parent="BkYMh2hGVM6mSAaFlrnn-1" source="BkYMh2hGVM6mSAaFlrnn-144" target="BkYMh2hGVM6mSAaFlrnn-127" edge="1">
          <mxGeometry relative="1" as="geometry">
            <mxPoint x="747.5" y="530" as="targetPoint" />
          </mxGeometry>
        </mxCell>
        <mxCell id="BkYMh2hGVM6mSAaFlrnn-144" value="&amp;lt;&amp;lt;Interface&amp;gt;&amp;gt;&lt;br&gt;IClienteService" style="swimlane;fontStyle=1;align=center;verticalAlign=top;childLayout=stackLayout;horizontal=1;startSize=40;horizontalStack=0;resizeParent=1;resizeParentMax=0;resizeLast=0;collapsible=1;marginBottom=0;whiteSpace=wrap;html=1;rounded=0;" parent="BkYMh2hGVM6mSAaFlrnn-1" vertex="1" collapsed="1">
          <mxGeometry x="1245" y="615" width="130" height="50" as="geometry">
            <mxRectangle x="360" y="230" width="160" height="86" as="alternateBounds" />
          </mxGeometry>
        </mxCell>
        <mxCell id="BkYMh2hGVM6mSAaFlrnn-145" value="+ field: type" style="text;strokeColor=none;fillColor=none;align=left;verticalAlign=top;spacingLeft=4;spacingRight=4;overflow=hidden;rotatable=0;points=[[0,0.5],[1,0.5]];portConstraint=eastwest;whiteSpace=wrap;html=1;rounded=0;" parent="BkYMh2hGVM6mSAaFlrnn-144" vertex="1">
          <mxGeometry y="26" width="160" height="26" as="geometry" />
        </mxCell>
        <mxCell id="BkYMh2hGVM6mSAaFlrnn-146" value="" style="line;strokeWidth=1;fillColor=none;align=left;verticalAlign=middle;spacingTop=-1;spacingLeft=3;spacingRight=3;rotatable=0;labelPosition=right;points=[];portConstraint=eastwest;strokeColor=inherit;rounded=0;" parent="BkYMh2hGVM6mSAaFlrnn-144" vertex="1">
          <mxGeometry y="52" width="160" height="8" as="geometry" />
        </mxCell>
        <mxCell id="BkYMh2hGVM6mSAaFlrnn-147" value="+ method(type): type" style="text;strokeColor=none;fillColor=none;align=left;verticalAlign=top;spacingLeft=4;spacingRight=4;overflow=hidden;rotatable=0;points=[[0,0.5],[1,0.5]];portConstraint=eastwest;whiteSpace=wrap;html=1;rounded=0;" parent="BkYMh2hGVM6mSAaFlrnn-144" vertex="1">
          <mxGeometry y="60" width="160" height="26" as="geometry" />
        </mxCell>
        <mxCell id="BkYMh2hGVM6mSAaFlrnn-148" style="edgeStyle=none;shape=connector;rounded=0;orthogonalLoop=1;jettySize=auto;html=1;labelBackgroundColor=default;strokeColor=default;fontFamily=Helvetica;fontSize=11;fontColor=default;endArrow=block;endFill=0;startSize=16;endSize=16;dashed=1;" parent="BkYMh2hGVM6mSAaFlrnn-1" source="BkYMh2hGVM6mSAaFlrnn-150" target="BkYMh2hGVM6mSAaFlrnn-144" edge="1">
          <mxGeometry relative="1" as="geometry" />
        </mxCell>
        <mxCell id="BkYMh2hGVM6mSAaFlrnn-149" style="edgeStyle=none;shape=connector;rounded=0;orthogonalLoop=1;jettySize=auto;html=1;labelBackgroundColor=default;strokeColor=default;fontFamily=Helvetica;fontSize=11;fontColor=default;endArrow=open;endFill=0;startSize=16;endSize=16;dashed=1;" parent="BkYMh2hGVM6mSAaFlrnn-1" source="BkYMh2hGVM6mSAaFlrnn-150" target="BkYMh2hGVM6mSAaFlrnn-168" edge="1">
          <mxGeometry relative="1" as="geometry">
            <mxPoint x="928.75" y="750" as="targetPoint" />
          </mxGeometry>
        </mxCell>
        <mxCell id="5KmjJNkXCFbmQObWLDjf-4" style="edgeStyle=none;shape=connector;rounded=0;orthogonalLoop=1;jettySize=auto;html=1;labelBackgroundColor=default;strokeColor=default;fontFamily=Helvetica;fontSize=11;fontColor=default;endArrow=open;endFill=0;startSize=16;endSize=16;startArrow=diamondThin;startFill=0;" parent="BkYMh2hGVM6mSAaFlrnn-1" source="BkYMh2hGVM6mSAaFlrnn-150" target="5KmjJNkXCFbmQObWLDjf-1" edge="1">
          <mxGeometry relative="1" as="geometry" />
        </mxCell>
        <mxCell id="5KmjJNkXCFbmQObWLDjf-14" value="1" style="edgeLabel;html=1;align=center;verticalAlign=middle;resizable=0;points=[];fontSize=11;fontFamily=Helvetica;fontColor=default;" parent="5KmjJNkXCFbmQObWLDjf-4" vertex="1" connectable="0">
          <mxGeometry x="-0.5025" y="2" relative="1" as="geometry">
            <mxPoint x="14" y="-3" as="offset" />
          </mxGeometry>
        </mxCell>
        <mxCell id="5KmjJNkXCFbmQObWLDjf-16" value="1" style="edgeLabel;html=1;align=center;verticalAlign=middle;resizable=0;points=[];fontSize=11;fontFamily=Helvetica;fontColor=default;" parent="5KmjJNkXCFbmQObWLDjf-4" vertex="1" connectable="0">
          <mxGeometry x="0.3893" y="2" relative="1" as="geometry">
            <mxPoint x="20" as="offset" />
          </mxGeometry>
        </mxCell>
        <mxCell id="BkYMh2hGVM6mSAaFlrnn-150" value="ClienteService" style="swimlane;fontStyle=1;align=center;verticalAlign=top;childLayout=stackLayout;horizontal=1;startSize=26;horizontalStack=0;resizeParent=1;resizeParentMax=0;resizeLast=0;collapsible=1;marginBottom=0;whiteSpace=wrap;html=1;rounded=0;" parent="BkYMh2hGVM6mSAaFlrnn-1" vertex="1">
          <mxGeometry x="1005" y="610" width="170" height="60" as="geometry">
            <mxRectangle x="960" y="620" width="130" height="30" as="alternateBounds" />
          </mxGeometry>
        </mxCell>
        <mxCell id="BkYMh2hGVM6mSAaFlrnn-151" value="- _clienteDAO: IClienteDAO&amp;nbsp;" style="text;strokeColor=none;fillColor=none;align=left;verticalAlign=top;spacingLeft=4;spacingRight=4;overflow=hidden;rotatable=0;points=[[0,0.5],[1,0.5]];portConstraint=eastwest;whiteSpace=wrap;html=1;rounded=0;" parent="BkYMh2hGVM6mSAaFlrnn-150" vertex="1">
          <mxGeometry y="26" width="170" height="26" as="geometry" />
        </mxCell>
        <mxCell id="BkYMh2hGVM6mSAaFlrnn-152" value="" style="line;strokeWidth=1;fillColor=none;align=left;verticalAlign=middle;spacingTop=-1;spacingLeft=3;spacingRight=3;rotatable=0;labelPosition=right;points=[];portConstraint=eastwest;strokeColor=inherit;rounded=0;" parent="BkYMh2hGVM6mSAaFlrnn-150" vertex="1">
          <mxGeometry y="52" width="170" height="8" as="geometry" />
        </mxCell>
        <mxCell id="BkYMh2hGVM6mSAaFlrnn-153" style="edgeStyle=none;shape=connector;rounded=0;orthogonalLoop=1;jettySize=auto;html=1;labelBackgroundColor=default;strokeColor=default;fontFamily=Helvetica;fontSize=11;fontColor=default;endArrow=diamondThin;endFill=0;startSize=16;endSize=16;startArrow=open;startFill=0;" parent="BkYMh2hGVM6mSAaFlrnn-1" source="BkYMh2hGVM6mSAaFlrnn-157" target="BkYMh2hGVM6mSAaFlrnn-150" edge="1">
          <mxGeometry relative="1" as="geometry" />
        </mxCell>
        <mxCell id="BkYMh2hGVM6mSAaFlrnn-154" value="1" style="edgeLabel;html=1;align=center;verticalAlign=middle;resizable=0;points=[];fontSize=11;fontFamily=Helvetica;fontColor=default;" parent="BkYMh2hGVM6mSAaFlrnn-153" vertex="1" connectable="0">
          <mxGeometry x="0.6873" y="-2" relative="1" as="geometry">
            <mxPoint x="22" as="offset" />
          </mxGeometry>
        </mxCell>
        <mxCell id="BkYMh2hGVM6mSAaFlrnn-155" value="1" style="edgeLabel;html=1;align=center;verticalAlign=middle;resizable=0;points=[];fontSize=11;fontFamily=Helvetica;fontColor=default;" parent="BkYMh2hGVM6mSAaFlrnn-153" vertex="1" connectable="0">
          <mxGeometry x="-0.6809" y="-2" relative="1" as="geometry">
            <mxPoint x="22" y="7" as="offset" />
          </mxGeometry>
        </mxCell>
        <mxCell id="BkYMh2hGVM6mSAaFlrnn-156" style="edgeStyle=none;shape=connector;rounded=0;orthogonalLoop=1;jettySize=auto;html=1;labelBackgroundColor=default;strokeColor=default;fontFamily=Helvetica;fontSize=11;fontColor=default;endArrow=block;endFill=0;startSize=16;endSize=16;" parent="BkYMh2hGVM6mSAaFlrnn-1" source="BkYMh2hGVM6mSAaFlrnn-157" target="BkYMh2hGVM6mSAaFlrnn-127" edge="1">
          <mxGeometry relative="1" as="geometry">
            <mxPoint x="797.5" y="505" as="targetPoint" />
          </mxGeometry>
        </mxCell>
        <mxCell id="BkYMh2hGVM6mSAaFlrnn-157" value="&amp;lt;&amp;lt;Interface&amp;gt;&amp;gt;&lt;br&gt;IClienteDAO" style="swimlane;fontStyle=1;align=center;verticalAlign=top;childLayout=stackLayout;horizontal=1;startSize=40;horizontalStack=0;resizeParent=1;resizeParentMax=0;resizeLast=0;collapsible=1;marginBottom=0;whiteSpace=wrap;html=1;rounded=0;" parent="BkYMh2hGVM6mSAaFlrnn-1" vertex="1" collapsed="1">
          <mxGeometry x="1022.5" y="440" width="135" height="50" as="geometry">
            <mxRectangle x="440" y="280" width="160" height="86" as="alternateBounds" />
          </mxGeometry>
        </mxCell>
        <mxCell id="BkYMh2hGVM6mSAaFlrnn-158" value="+ field: type" style="text;strokeColor=none;fillColor=none;align=left;verticalAlign=top;spacingLeft=4;spacingRight=4;overflow=hidden;rotatable=0;points=[[0,0.5],[1,0.5]];portConstraint=eastwest;whiteSpace=wrap;html=1;rounded=0;" parent="BkYMh2hGVM6mSAaFlrnn-157" vertex="1">
          <mxGeometry y="26" width="160" height="26" as="geometry" />
        </mxCell>
        <mxCell id="BkYMh2hGVM6mSAaFlrnn-159" value="" style="line;strokeWidth=1;fillColor=none;align=left;verticalAlign=middle;spacingTop=-1;spacingLeft=3;spacingRight=3;rotatable=0;labelPosition=right;points=[];portConstraint=eastwest;strokeColor=inherit;rounded=0;" parent="BkYMh2hGVM6mSAaFlrnn-157" vertex="1">
          <mxGeometry y="52" width="160" height="8" as="geometry" />
        </mxCell>
        <mxCell id="BkYMh2hGVM6mSAaFlrnn-160" value="+ method(type): type" style="text;strokeColor=none;fillColor=none;align=left;verticalAlign=top;spacingLeft=4;spacingRight=4;overflow=hidden;rotatable=0;points=[[0,0.5],[1,0.5]];portConstraint=eastwest;whiteSpace=wrap;html=1;rounded=0;" parent="BkYMh2hGVM6mSAaFlrnn-157" vertex="1">
          <mxGeometry y="60" width="160" height="26" as="geometry" />
        </mxCell>
        <mxCell id="BkYMh2hGVM6mSAaFlrnn-168" value="Cliente" style="swimlane;fontStyle=1;align=center;verticalAlign=top;childLayout=stackLayout;horizontal=1;startSize=26;horizontalStack=0;resizeParent=1;resizeParentMax=0;resizeLast=0;collapsible=1;marginBottom=0;whiteSpace=wrap;html=1;rounded=0;" parent="BkYMh2hGVM6mSAaFlrnn-1" vertex="1">
          <mxGeometry x="697.5" y="660" width="250" height="268" as="geometry">
            <mxRectangle x="720" y="510" width="130" height="30" as="alternateBounds" />
          </mxGeometry>
        </mxCell>
        <mxCell id="BkYMh2hGVM6mSAaFlrnn-169" value="&amp;lt;&amp;lt;Propriety&amp;gt;&amp;gt; + Id: int" style="text;strokeColor=none;fillColor=none;align=left;verticalAlign=top;spacingLeft=4;spacingRight=4;overflow=hidden;rotatable=0;points=[[0,0.5],[1,0.5]];portConstraint=eastwest;whiteSpace=wrap;html=1;rounded=0;" parent="BkYMh2hGVM6mSAaFlrnn-168" vertex="1">
          <mxGeometry y="26" width="250" height="26" as="geometry" />
        </mxCell>
        <mxCell id="BkYMh2hGVM6mSAaFlrnn-170" value="&amp;lt;&amp;lt;Propriety&amp;gt;&amp;gt; +&amp;nbsp; Nome: string" style="text;strokeColor=none;fillColor=none;align=left;verticalAlign=top;spacingLeft=4;spacingRight=4;overflow=hidden;rotatable=0;points=[[0,0.5],[1,0.5]];portConstraint=eastwest;whiteSpace=wrap;html=1;rounded=0;" parent="BkYMh2hGVM6mSAaFlrnn-168" vertex="1">
          <mxGeometry y="52" width="250" height="26" as="geometry" />
        </mxCell>
        <mxCell id="BkYMh2hGVM6mSAaFlrnn-171" value="&lt;span style=&quot;color: rgb(0, 0, 0); font-family: Helvetica; font-size: 12px; font-style: normal; font-variant-ligatures: normal; font-variant-caps: normal; font-weight: 400; letter-spacing: normal; orphans: 2; text-align: left; text-indent: 0px; text-transform: none; widows: 2; word-spacing: 0px; -webkit-text-stroke-width: 0px; background-color: rgb(251, 251, 251); text-decoration-thickness: initial; text-decoration-style: initial; text-decoration-color: initial; float: none; display: inline !important;&quot;&gt;&amp;lt;&amp;lt;Propriety&amp;gt;&amp;gt; +&lt;span&gt;&amp;nbsp; Cpf: string&lt;/span&gt;&lt;/span&gt;" style="text;strokeColor=none;fillColor=none;align=left;verticalAlign=top;spacingLeft=4;spacingRight=4;overflow=hidden;rotatable=0;points=[[0,0.5],[1,0.5]];portConstraint=eastwest;whiteSpace=wrap;html=1;rounded=0;" parent="BkYMh2hGVM6mSAaFlrnn-168" vertex="1">
          <mxGeometry y="78" width="250" height="26" as="geometry" />
        </mxCell>
        <mxCell id="BkYMh2hGVM6mSAaFlrnn-172" value="&amp;lt;&amp;lt;Propriety&amp;gt;&amp;gt; + Email: string" style="text;strokeColor=none;fillColor=none;align=left;verticalAlign=top;spacingLeft=4;spacingRight=4;overflow=hidden;rotatable=0;points=[[0,0.5],[1,0.5]];portConstraint=eastwest;whiteSpace=wrap;html=1;rounded=0;" parent="BkYMh2hGVM6mSAaFlrnn-168" vertex="1">
          <mxGeometry y="104" width="250" height="26" as="geometry" />
        </mxCell>
        <mxCell id="BkYMh2hGVM6mSAaFlrnn-173" value="&amp;lt;&amp;lt;Propriety&amp;gt;&amp;gt; +&amp;nbsp; Rg: string" style="text;strokeColor=none;fillColor=none;align=left;verticalAlign=top;spacingLeft=4;spacingRight=4;overflow=hidden;rotatable=0;points=[[0,0.5],[1,0.5]];portConstraint=eastwest;whiteSpace=wrap;html=1;rounded=0;" parent="BkYMh2hGVM6mSAaFlrnn-168" vertex="1">
          <mxGeometry y="130" width="250" height="26" as="geometry" />
        </mxCell>
        <mxCell id="BkYMh2hGVM6mSAaFlrnn-174" value="&amp;lt;&amp;lt;Propriety&amp;gt;&amp;gt; +&amp;nbsp; Telefone: string" style="text;strokeColor=none;fillColor=none;align=left;verticalAlign=top;spacingLeft=4;spacingRight=4;overflow=hidden;rotatable=0;points=[[0,0.5],[1,0.5]];portConstraint=eastwest;whiteSpace=wrap;html=1;rounded=0;" parent="BkYMh2hGVM6mSAaFlrnn-168" vertex="1">
          <mxGeometry y="156" width="250" height="26" as="geometry" />
        </mxCell>
        <mxCell id="BkYMh2hGVM6mSAaFlrnn-175" value="&lt;span style=&quot;color: rgb(0, 0, 0); font-family: Helvetica; font-size: 12px; font-style: normal; font-variant-ligatures: normal; font-variant-caps: normal; font-weight: 400; letter-spacing: normal; orphans: 2; text-align: left; text-indent: 0px; text-transform: none; widows: 2; word-spacing: 0px; -webkit-text-stroke-width: 0px; background-color: rgb(251, 251, 251); text-decoration-thickness: initial; text-decoration-style: initial; text-decoration-color: initial; float: none; display: inline !important;&quot;&gt;&amp;lt;&amp;lt;Propriety&amp;gt;&amp;gt; +&amp;nbsp; Cnh: string&lt;/span&gt;" style="text;strokeColor=none;fillColor=none;align=left;verticalAlign=top;spacingLeft=4;spacingRight=4;overflow=hidden;rotatable=0;points=[[0,0.5],[1,0.5]];portConstraint=eastwest;whiteSpace=wrap;html=1;rounded=0;" parent="BkYMh2hGVM6mSAaFlrnn-168" vertex="1">
          <mxGeometry y="182" width="250" height="26" as="geometry" />
        </mxCell>
        <mxCell id="BkYMh2hGVM6mSAaFlrnn-176" value="&amp;lt;&amp;lt;Propriety&amp;gt;&amp;gt; +&amp;nbsp; Renach: string" style="text;strokeColor=none;fillColor=none;align=left;verticalAlign=top;spacingLeft=4;spacingRight=4;overflow=hidden;rotatable=0;points=[[0,0.5],[1,0.5]];portConstraint=eastwest;whiteSpace=wrap;html=1;rounded=0;" parent="BkYMh2hGVM6mSAaFlrnn-168" vertex="1">
          <mxGeometry y="208" width="250" height="26" as="geometry" />
        </mxCell>
        <mxCell id="BkYMh2hGVM6mSAaFlrnn-177" value="&amp;lt;&amp;lt;Propriety&amp;gt;&amp;gt; +&amp;nbsp; DtNascimento: DateTime" style="text;strokeColor=none;fillColor=none;align=left;verticalAlign=top;spacingLeft=4;spacingRight=4;overflow=hidden;rotatable=0;points=[[0,0.5],[1,0.5]];portConstraint=eastwest;whiteSpace=wrap;html=1;rounded=0;" parent="BkYMh2hGVM6mSAaFlrnn-168" vertex="1">
          <mxGeometry y="234" width="250" height="26" as="geometry" />
        </mxCell>
        <mxCell id="BkYMh2hGVM6mSAaFlrnn-178" value="" style="line;strokeWidth=1;fillColor=none;align=left;verticalAlign=middle;spacingTop=-1;spacingLeft=3;spacingRight=3;rotatable=0;labelPosition=right;points=[];portConstraint=eastwest;strokeColor=inherit;rounded=0;" parent="BkYMh2hGVM6mSAaFlrnn-168" vertex="1">
          <mxGeometry y="260" width="250" height="8" as="geometry" />
        </mxCell>
        <mxCell id="5KmjJNkXCFbmQObWLDjf-13" style="edgeStyle=none;shape=connector;rounded=0;orthogonalLoop=1;jettySize=auto;html=1;labelBackgroundColor=default;strokeColor=default;fontFamily=Helvetica;fontSize=11;fontColor=default;endArrow=open;endFill=0;startSize=16;endSize=16;dashed=1;" parent="BkYMh2hGVM6mSAaFlrnn-1" source="5KmjJNkXCFbmQObWLDjf-1" target="BkYMh2hGVM6mSAaFlrnn-168" edge="1">
          <mxGeometry relative="1" as="geometry" />
        </mxCell>
        <mxCell id="5KmjJNkXCFbmQObWLDjf-1" value="ClienteValidator" style="swimlane;fontStyle=1;align=center;verticalAlign=top;childLayout=stackLayout;horizontal=1;startSize=26;horizontalStack=0;resizeParent=1;resizeParentMax=0;resizeLast=0;collapsible=1;marginBottom=0;whiteSpace=wrap;html=1;rounded=0;" parent="BkYMh2hGVM6mSAaFlrnn-1" vertex="1">
          <mxGeometry x="1030" y="750" width="435" height="242" as="geometry">
            <mxRectangle x="960" y="620" width="130" height="30" as="alternateBounds" />
          </mxGeometry>
        </mxCell>
        <mxCell id="5KmjJNkXCFbmQObWLDjf-2" value="+ Validar(cliente: Cliente): bool" style="text;strokeColor=none;fillColor=none;align=left;verticalAlign=top;spacingLeft=4;spacingRight=4;overflow=hidden;rotatable=0;points=[[0,0.5],[1,0.5]];portConstraint=eastwest;whiteSpace=wrap;html=1;rounded=0;fontStyle=4" parent="5KmjJNkXCFbmQObWLDjf-1" vertex="1">
          <mxGeometry y="26" width="435" height="26" as="geometry" />
        </mxCell>
        <mxCell id="5KmjJNkXCFbmQObWLDjf-11" value="+&amp;nbsp;ValidarEmail(email: string):&amp;nbsp;ArgumentException" style="text;strokeColor=none;fillColor=none;align=left;verticalAlign=top;spacingLeft=4;spacingRight=4;overflow=hidden;rotatable=0;points=[[0,0.5],[1,0.5]];portConstraint=eastwest;whiteSpace=wrap;html=1;rounded=0;fontStyle=4;" parent="5KmjJNkXCFbmQObWLDjf-1" vertex="1">
          <mxGeometry y="52" width="435" height="26" as="geometry" />
        </mxCell>
        <mxCell id="5KmjJNkXCFbmQObWLDjf-10" value="+&amp;nbsp;ValidarTelefone(telefone: string):&amp;nbsp;ArgumentException" style="text;strokeColor=none;fillColor=none;align=left;verticalAlign=top;spacingLeft=4;spacingRight=4;overflow=hidden;rotatable=0;points=[[0,0.5],[1,0.5]];portConstraint=eastwest;whiteSpace=wrap;html=1;rounded=0;fontStyle=4;" parent="5KmjJNkXCFbmQObWLDjf-1" vertex="1">
          <mxGeometry y="78" width="435" height="26" as="geometry" />
        </mxCell>
        <mxCell id="5KmjJNkXCFbmQObWLDjf-9" value="+&amp;nbsp;ValidarCpf(cpf: string):&amp;nbsp;ArgumentException" style="text;strokeColor=none;fillColor=none;align=left;verticalAlign=top;spacingLeft=4;spacingRight=4;overflow=hidden;rotatable=0;points=[[0,0.5],[1,0.5]];portConstraint=eastwest;whiteSpace=wrap;html=1;rounded=0;fontStyle=4;" parent="5KmjJNkXCFbmQObWLDjf-1" vertex="1">
          <mxGeometry y="104" width="435" height="26" as="geometry" />
        </mxCell>
        <mxCell id="5KmjJNkXCFbmQObWLDjf-8" value="+&amp;nbsp;ValidarRg(rg: string):&amp;nbsp;ArgumentException" style="text;strokeColor=none;fillColor=none;align=left;verticalAlign=top;spacingLeft=4;spacingRight=4;overflow=hidden;rotatable=0;points=[[0,0.5],[1,0.5]];portConstraint=eastwest;whiteSpace=wrap;html=1;rounded=0;fontStyle=4;" parent="5KmjJNkXCFbmQObWLDjf-1" vertex="1">
          <mxGeometry y="130" width="435" height="26" as="geometry" />
        </mxCell>
        <mxCell id="5KmjJNkXCFbmQObWLDjf-7" value="+&amp;nbsp;ValidarCnh(cnh: string):&amp;nbsp;ArgumentException" style="text;strokeColor=none;fillColor=none;align=left;verticalAlign=top;spacingLeft=4;spacingRight=4;overflow=hidden;rotatable=0;points=[[0,0.5],[1,0.5]];portConstraint=eastwest;whiteSpace=wrap;html=1;rounded=0;fontStyle=4;" parent="5KmjJNkXCFbmQObWLDjf-1" vertex="1">
          <mxGeometry y="156" width="435" height="26" as="geometry" />
        </mxCell>
        <mxCell id="5KmjJNkXCFbmQObWLDjf-6" value="+&amp;nbsp;ValidarDataNascimento(dataNascimento: DateTime):&amp;nbsp;ArgumentException" style="text;strokeColor=none;fillColor=none;align=left;verticalAlign=top;spacingLeft=4;spacingRight=4;overflow=hidden;rotatable=0;points=[[0,0.5],[1,0.5]];portConstraint=eastwest;whiteSpace=wrap;html=1;rounded=0;fontStyle=4;" parent="5KmjJNkXCFbmQObWLDjf-1" vertex="1">
          <mxGeometry y="182" width="435" height="26" as="geometry" />
        </mxCell>
        <mxCell id="5KmjJNkXCFbmQObWLDjf-5" value="+&amp;nbsp;ValidarRenach(renach: string):&amp;nbsp;ArgumentException" style="text;strokeColor=none;fillColor=none;align=left;verticalAlign=top;spacingLeft=4;spacingRight=4;overflow=hidden;rotatable=0;points=[[0,0.5],[1,0.5]];portConstraint=eastwest;whiteSpace=wrap;html=1;rounded=0;fontStyle=4;" parent="5KmjJNkXCFbmQObWLDjf-1" vertex="1">
          <mxGeometry y="208" width="435" height="26" as="geometry" />
        </mxCell>
        <mxCell id="5KmjJNkXCFbmQObWLDjf-3" value="" style="line;strokeWidth=1;fillColor=none;align=left;verticalAlign=middle;spacingTop=-1;spacingLeft=3;spacingRight=3;rotatable=0;labelPosition=right;points=[];portConstraint=eastwest;strokeColor=inherit;rounded=0;" parent="5KmjJNkXCFbmQObWLDjf-1" vertex="1">
          <mxGeometry y="234" width="435" height="8" as="geometry" />
        </mxCell>
      </root>
    </mxGraphModel>
  </diagram>
  <diagram id="-2VU-CFgCeY1hZUoWxGp" name="Sequência C cliente">
    <mxGraphModel dx="1980" dy="1047" grid="1" gridSize="10" guides="1" tooltips="1" connect="1" arrows="1" fold="1" page="1" pageScale="1" pageWidth="850" pageHeight="1100" math="0" shadow="0">
      <root>
        <mxCell id="0" />
        <mxCell id="1" parent="0" />
        <mxCell id="LfbBMPiK4QH2cyrvZov5-3" value=":_crudServiceCliente" style="shape=umlLifeline;perimeter=lifelinePerimeter;whiteSpace=wrap;html=1;container=1;dropTarget=0;collapsible=0;recursiveResize=0;outlineConnect=0;portConstraint=eastwest;newEdgeStyle={&quot;edgeStyle&quot;:&quot;elbowEdgeStyle&quot;,&quot;elbow&quot;:&quot;vertical&quot;,&quot;curved&quot;:0,&quot;rounded&quot;:0};" parent="1" vertex="1">
          <mxGeometry x="610" y="10" width="130" height="590" as="geometry" />
        </mxCell>
        <mxCell id="QLGuTmRFl9R-WL1f5S8m-17" value="" style="html=1;points=[];perimeter=orthogonalPerimeter;outlineConnect=0;targetShapes=umlLifeline;portConstraint=eastwest;newEdgeStyle={&quot;edgeStyle&quot;:&quot;elbowEdgeStyle&quot;,&quot;elbow&quot;:&quot;vertical&quot;,&quot;curved&quot;:0,&quot;rounded&quot;:0};" parent="LfbBMPiK4QH2cyrvZov5-3" vertex="1">
          <mxGeometry x="60" y="160" width="10" height="370" as="geometry" />
        </mxCell>
        <mxCell id="LfbBMPiK4QH2cyrvZov5-5" value="Atendente" style="shape=umlLifeline;perimeter=lifelinePerimeter;whiteSpace=wrap;html=1;container=1;dropTarget=0;collapsible=0;recursiveResize=0;outlineConnect=0;portConstraint=eastwest;newEdgeStyle={&quot;edgeStyle&quot;:&quot;elbowEdgeStyle&quot;,&quot;elbow&quot;:&quot;vertical&quot;,&quot;curved&quot;:0,&quot;rounded&quot;:0};participant=umlActor;verticalAlign=bottom;horizontal=1;labelPosition=center;verticalLabelPosition=top;align=center;" parent="1" vertex="1">
          <mxGeometry x="60" y="20" width="20" height="580" as="geometry" />
        </mxCell>
        <mxCell id="LfbBMPiK4QH2cyrvZov5-6" value="" style="shape=umlLifeline;perimeter=lifelinePerimeter;whiteSpace=wrap;html=1;container=1;dropTarget=0;collapsible=0;recursiveResize=0;outlineConnect=0;portConstraint=eastwest;newEdgeStyle={&quot;edgeStyle&quot;:&quot;elbowEdgeStyle&quot;,&quot;elbow&quot;:&quot;vertical&quot;,&quot;curved&quot;:0,&quot;rounded&quot;:0};participant=umlBoundary;" parent="1" vertex="1">
          <mxGeometry x="200" y="10" width="50" height="580" as="geometry" />
        </mxCell>
        <mxCell id="QLGuTmRFl9R-WL1f5S8m-3" value="" style="html=1;points=[];perimeter=orthogonalPerimeter;outlineConnect=0;targetShapes=umlLifeline;portConstraint=eastwest;newEdgeStyle={&quot;edgeStyle&quot;:&quot;elbowEdgeStyle&quot;,&quot;elbow&quot;:&quot;vertical&quot;,&quot;curved&quot;:0,&quot;rounded&quot;:0};" parent="LfbBMPiK4QH2cyrvZov5-6" vertex="1">
          <mxGeometry x="20" y="90" width="10" height="450" as="geometry" />
        </mxCell>
        <mxCell id="LfbBMPiK4QH2cyrvZov5-8" value="" style="shape=umlLifeline;perimeter=lifelinePerimeter;whiteSpace=wrap;html=1;container=1;dropTarget=0;collapsible=0;recursiveResize=0;outlineConnect=0;portConstraint=eastwest;newEdgeStyle={&quot;edgeStyle&quot;:&quot;elbowEdgeStyle&quot;,&quot;elbow&quot;:&quot;vertical&quot;,&quot;curved&quot;:0,&quot;rounded&quot;:0};participant=umlControl;align=center;" parent="1" vertex="1">
          <mxGeometry x="450" y="10" width="40" height="560" as="geometry" />
        </mxCell>
        <mxCell id="QLGuTmRFl9R-WL1f5S8m-4" value="" style="html=1;points=[];perimeter=orthogonalPerimeter;outlineConnect=0;targetShapes=umlLifeline;portConstraint=eastwest;newEdgeStyle={&quot;edgeStyle&quot;:&quot;elbowEdgeStyle&quot;,&quot;elbow&quot;:&quot;vertical&quot;,&quot;curved&quot;:0,&quot;rounded&quot;:0};" parent="LfbBMPiK4QH2cyrvZov5-8" vertex="1">
          <mxGeometry x="15" y="100" width="10" height="430" as="geometry" />
        </mxCell>
        <mxCell id="RDNy0vktTRDIAW2KmFkU-2" value="Informações do cliente" style="html=1;verticalAlign=bottom;endArrow=block;edgeStyle=elbowEdgeStyle;elbow=vertical;curved=0;rounded=0;" parent="1" source="LfbBMPiK4QH2cyrvZov5-5" target="LfbBMPiK4QH2cyrvZov5-6" edge="1">
          <mxGeometry width="80" relative="1" as="geometry">
            <mxPoint x="260" y="180" as="sourcePoint" />
            <mxPoint x="340" y="180" as="targetPoint" />
            <Array as="points">
              <mxPoint x="105" y="100" />
            </Array>
          </mxGeometry>
        </mxCell>
        <mxCell id="QLGuTmRFl9R-WL1f5S8m-5" value="AdicionarCliente(cliente:Cliente):bool" style="html=1;verticalAlign=bottom;endArrow=block;edgeStyle=elbowEdgeStyle;elbow=vertical;curved=0;rounded=0;" parent="1" source="QLGuTmRFl9R-WL1f5S8m-3" target="QLGuTmRFl9R-WL1f5S8m-4" edge="1">
          <mxGeometry relative="1" as="geometry">
            <mxPoint x="240" y="110" as="sourcePoint" />
            <Array as="points">
              <mxPoint x="370" y="160" />
              <mxPoint x="320" y="110" />
            </Array>
          </mxGeometry>
        </mxCell>
        <mxCell id="QLGuTmRFl9R-WL1f5S8m-6" value="true" style="html=1;verticalAlign=bottom;endArrow=open;dashed=1;endSize=8;edgeStyle=elbowEdgeStyle;elbow=vertical;curved=0;rounded=0;" parent="1" source="QLGuTmRFl9R-WL1f5S8m-4" target="QLGuTmRFl9R-WL1f5S8m-3" edge="1">
          <mxGeometry relative="1" as="geometry">
            <mxPoint x="240" y="185" as="targetPoint" />
            <Array as="points">
              <mxPoint x="400" y="450" />
              <mxPoint x="440" y="240" />
              <mxPoint x="410" y="260" />
              <mxPoint x="340" y="270" />
              <mxPoint x="280" y="190" />
              <mxPoint x="270" y="160" />
            </Array>
          </mxGeometry>
        </mxCell>
        <mxCell id="QLGuTmRFl9R-WL1f5S8m-7" value="Mensagem de Cadastro&lt;br&gt;&amp;nbsp;com sucesso" style="html=1;verticalAlign=bottom;endArrow=open;dashed=1;endSize=8;edgeStyle=elbowEdgeStyle;elbow=vertical;curved=0;rounded=0;labelBackgroundColor=none;" parent="1" source="QLGuTmRFl9R-WL1f5S8m-3" target="LfbBMPiK4QH2cyrvZov5-5" edge="1">
          <mxGeometry x="-0.0713" y="-10" relative="1" as="geometry">
            <mxPoint x="340" y="180" as="sourcePoint" />
            <mxPoint x="260" y="180" as="targetPoint" />
            <Array as="points">
              <mxPoint x="160" y="460" />
              <mxPoint x="180" y="470" />
              <mxPoint x="200" y="250" />
              <mxPoint x="110" y="290" />
              <mxPoint x="190" y="270" />
              <mxPoint x="130" y="290" />
              <mxPoint x="140" y="260" />
              <mxPoint x="140" y="210" />
              <mxPoint x="150" y="180" />
              <mxPoint x="205" y="150" />
            </Array>
            <mxPoint as="offset" />
          </mxGeometry>
        </mxCell>
        <mxCell id="QLGuTmRFl9R-WL1f5S8m-8" value=": _clienteDAO" style="shape=umlLifeline;perimeter=lifelinePerimeter;whiteSpace=wrap;html=1;container=1;dropTarget=0;collapsible=0;recursiveResize=0;outlineConnect=0;portConstraint=eastwest;newEdgeStyle={&quot;edgeStyle&quot;:&quot;elbowEdgeStyle&quot;,&quot;elbow&quot;:&quot;vertical&quot;,&quot;curved&quot;:0,&quot;rounded&quot;:0};" parent="1" vertex="1">
          <mxGeometry x="970" y="10" width="140" height="590" as="geometry" />
        </mxCell>
        <mxCell id="QLGuTmRFl9R-WL1f5S8m-23" value="" style="html=1;points=[];perimeter=orthogonalPerimeter;outlineConnect=0;targetShapes=umlLifeline;portConstraint=eastwest;newEdgeStyle={&quot;edgeStyle&quot;:&quot;elbowEdgeStyle&quot;,&quot;elbow&quot;:&quot;vertical&quot;,&quot;curved&quot;:0,&quot;rounded&quot;:0};" parent="QLGuTmRFl9R-WL1f5S8m-8" vertex="1">
          <mxGeometry x="65" y="370" width="10" height="140" as="geometry" />
        </mxCell>
        <mxCell id="QLGuTmRFl9R-WL1f5S8m-9" value=":ClienteValidator" style="shape=umlLifeline;perimeter=lifelinePerimeter;whiteSpace=wrap;html=1;container=1;dropTarget=0;collapsible=0;recursiveResize=0;outlineConnect=0;portConstraint=eastwest;newEdgeStyle={&quot;edgeStyle&quot;:&quot;elbowEdgeStyle&quot;,&quot;elbow&quot;:&quot;vertical&quot;,&quot;curved&quot;:0,&quot;rounded&quot;:0};" parent="1" vertex="1">
          <mxGeometry x="800" y="10" width="100" height="600" as="geometry" />
        </mxCell>
        <mxCell id="QLGuTmRFl9R-WL1f5S8m-18" value="" style="html=1;points=[];perimeter=orthogonalPerimeter;outlineConnect=0;targetShapes=umlLifeline;portConstraint=eastwest;newEdgeStyle={&quot;edgeStyle&quot;:&quot;elbowEdgeStyle&quot;,&quot;elbow&quot;:&quot;vertical&quot;,&quot;curved&quot;:0,&quot;rounded&quot;:0};" parent="QLGuTmRFl9R-WL1f5S8m-9" vertex="1">
          <mxGeometry x="45" y="170" width="10" height="110" as="geometry" />
        </mxCell>
        <mxCell id="QLGuTmRFl9R-WL1f5S8m-16" value="AdicionarCliente(cliente:Cliente): bool" style="html=1;verticalAlign=bottom;endArrow=block;edgeStyle=elbowEdgeStyle;elbow=vertical;curved=0;rounded=0;" parent="1" source="QLGuTmRFl9R-WL1f5S8m-4" target="QLGuTmRFl9R-WL1f5S8m-17" edge="1">
          <mxGeometry width="80" relative="1" as="geometry">
            <mxPoint x="470" y="120" as="sourcePoint" />
            <mxPoint x="550" y="120" as="targetPoint" />
            <Array as="points">
              <mxPoint x="620" y="170" />
              <mxPoint x="565" y="120" />
            </Array>
          </mxGeometry>
        </mxCell>
        <mxCell id="QLGuTmRFl9R-WL1f5S8m-19" value="Validar(cliente:Cliente):bool" style="html=1;verticalAlign=bottom;endArrow=block;edgeStyle=elbowEdgeStyle;elbow=vertical;curved=0;rounded=0;" parent="1" source="QLGuTmRFl9R-WL1f5S8m-17" target="QLGuTmRFl9R-WL1f5S8m-18" edge="1">
          <mxGeometry width="80" relative="1" as="geometry">
            <mxPoint x="710" y="190" as="sourcePoint" />
            <mxPoint x="790" y="190" as="targetPoint" />
            <Array as="points">
              <mxPoint x="770" y="180" />
            </Array>
          </mxGeometry>
        </mxCell>
        <mxCell id="QLGuTmRFl9R-WL1f5S8m-20" value="true" style="html=1;verticalAlign=bottom;endArrow=open;dashed=1;endSize=8;edgeStyle=elbowEdgeStyle;elbow=vertical;curved=0;rounded=0;" parent="1" source="QLGuTmRFl9R-WL1f5S8m-18" target="QLGuTmRFl9R-WL1f5S8m-17" edge="1">
          <mxGeometry relative="1" as="geometry">
            <mxPoint x="830" y="270" as="sourcePoint" />
            <mxPoint x="750" y="270" as="targetPoint" />
            <Array as="points">
              <mxPoint x="790" y="220" />
              <mxPoint x="770" y="210" />
            </Array>
          </mxGeometry>
        </mxCell>
        <mxCell id="QLGuTmRFl9R-WL1f5S8m-21" value="Adicionar(cliente:Cliente):bool" style="html=1;verticalAlign=bottom;endArrow=block;edgeStyle=elbowEdgeStyle;elbow=vertical;curved=0;rounded=0;" parent="1" source="QLGuTmRFl9R-WL1f5S8m-17" target="QLGuTmRFl9R-WL1f5S8m-23" edge="1">
          <mxGeometry width="80" relative="1" as="geometry">
            <mxPoint x="740" y="250" as="sourcePoint" />
            <mxPoint x="820" y="250" as="targetPoint" />
            <Array as="points">
              <mxPoint x="960" y="380" />
              <mxPoint x="940" y="370" />
              <mxPoint x="770" y="360" />
              <mxPoint x="960" y="340" />
              <mxPoint x="730" y="250" />
              <mxPoint x="850" y="260" />
            </Array>
          </mxGeometry>
        </mxCell>
        <mxCell id="QLGuTmRFl9R-WL1f5S8m-22" value="Exception" style="html=1;verticalAlign=bottom;endArrow=open;dashed=1;endSize=8;edgeStyle=elbowEdgeStyle;elbow=vertical;curved=0;rounded=0;" parent="1" source="QLGuTmRFl9R-WL1f5S8m-23" target="QLGuTmRFl9R-WL1f5S8m-17" edge="1">
          <mxGeometry relative="1" as="geometry">
            <mxPoint x="865" y="290" as="sourcePoint" />
            <mxPoint x="700" y="290" as="targetPoint" />
            <Array as="points">
              <mxPoint x="760" y="500" />
              <mxPoint x="950" y="500" />
              <mxPoint x="920" y="500" />
              <mxPoint x="810" y="390" />
              <mxPoint x="950" y="360" />
              <mxPoint x="950" y="290" />
              <mxPoint x="860" y="310" />
              <mxPoint x="790" y="290" />
            </Array>
          </mxGeometry>
        </mxCell>
        <mxCell id="QLGuTmRFl9R-WL1f5S8m-24" value="true" style="html=1;verticalAlign=bottom;endArrow=open;dashed=1;endSize=8;edgeStyle=elbowEdgeStyle;elbow=vertical;curved=0;rounded=0;" parent="1" source="QLGuTmRFl9R-WL1f5S8m-17" target="QLGuTmRFl9R-WL1f5S8m-4" edge="1">
          <mxGeometry relative="1" as="geometry">
            <mxPoint x="430" y="380" as="targetPoint" />
            <mxPoint x="650" y="380" as="sourcePoint" />
            <Array as="points">
              <mxPoint x="550" y="440" />
              <mxPoint x="630" y="230" />
              <mxPoint x="530" y="290" />
              <mxPoint x="620" y="250" />
              <mxPoint x="570" y="260" />
              <mxPoint x="475" y="350" />
            </Array>
          </mxGeometry>
        </mxCell>
        <mxCell id="QLGuTmRFl9R-WL1f5S8m-25" value=":Cliente" style="shape=umlLifeline;perimeter=lifelinePerimeter;whiteSpace=wrap;html=1;container=1;dropTarget=0;collapsible=0;recursiveResize=0;outlineConnect=0;portConstraint=eastwest;newEdgeStyle={&quot;edgeStyle&quot;:&quot;elbowEdgeStyle&quot;,&quot;elbow&quot;:&quot;vertical&quot;,&quot;curved&quot;:0,&quot;rounded&quot;:0};" parent="1" vertex="1">
          <mxGeometry x="270" y="10" width="130" height="120" as="geometry" />
        </mxCell>
        <mxCell id="QLGuTmRFl9R-WL1f5S8m-26" value="" style="html=1;points=[];perimeter=orthogonalPerimeter;outlineConnect=0;targetShapes=umlLifeline;portConstraint=eastwest;newEdgeStyle={&quot;edgeStyle&quot;:&quot;elbowEdgeStyle&quot;,&quot;elbow&quot;:&quot;vertical&quot;,&quot;curved&quot;:0,&quot;rounded&quot;:0};" parent="QLGuTmRFl9R-WL1f5S8m-25" vertex="1">
          <mxGeometry x="60" y="100" width="10" height="20" as="geometry" />
        </mxCell>
        <mxCell id="QLGuTmRFl9R-WL1f5S8m-27" value="new()" style="html=1;verticalAlign=bottom;endArrow=block;edgeStyle=elbowEdgeStyle;elbow=vertical;curved=0;rounded=0;" parent="1" source="QLGuTmRFl9R-WL1f5S8m-3" target="QLGuTmRFl9R-WL1f5S8m-26" edge="1">
          <mxGeometry width="80" relative="1" as="geometry">
            <mxPoint x="240" y="350" as="sourcePoint" />
            <mxPoint x="320" y="350" as="targetPoint" />
            <Array as="points">
              <mxPoint x="260" y="110" />
              <mxPoint x="300" y="130" />
            </Array>
          </mxGeometry>
        </mxCell>
        <mxCell id="QLGuTmRFl9R-WL1f5S8m-28" value="return" style="html=1;verticalAlign=bottom;endArrow=open;dashed=1;endSize=8;edgeStyle=elbowEdgeStyle;elbow=vertical;curved=0;rounded=0;" parent="1" source="QLGuTmRFl9R-WL1f5S8m-26" target="QLGuTmRFl9R-WL1f5S8m-3" edge="1">
          <mxGeometry relative="1" as="geometry">
            <mxPoint x="350" y="170" as="sourcePoint" />
            <mxPoint x="270" y="170" as="targetPoint" />
            <Array as="points">
              <mxPoint x="270" y="130" />
              <mxPoint x="280" y="150" />
            </Array>
          </mxGeometry>
        </mxCell>
        <mxCell id="QLGuTmRFl9R-WL1f5S8m-29" value="alt" style="shape=umlFrame;whiteSpace=wrap;html=1;pointerEvents=0;dropTarget=0;container=0;" parent="1" vertex="1">
          <mxGeometry x="-30" y="200" width="910" height="140" as="geometry">
            <mxRectangle x="-30" y="200" width="50" height="30" as="alternateBounds" />
          </mxGeometry>
        </mxCell>
        <mxCell id="QLGuTmRFl9R-WL1f5S8m-33" value="Exception" style="html=1;verticalAlign=bottom;endArrow=open;dashed=1;endSize=8;edgeStyle=elbowEdgeStyle;elbow=vertical;curved=0;rounded=0;" parent="1" source="QLGuTmRFl9R-WL1f5S8m-18" target="QLGuTmRFl9R-WL1f5S8m-17" edge="1">
          <mxGeometry relative="1" as="geometry">
            <mxPoint x="845" y="440" as="sourcePoint" />
            <mxPoint x="675" y="439.9999999999998" as="targetPoint" />
            <Array as="points">
              <mxPoint x="720" y="290" />
              <mxPoint x="780" y="280" />
              <mxPoint x="750" y="260" />
              <mxPoint x="770" y="440" />
            </Array>
          </mxGeometry>
        </mxCell>
        <mxCell id="KtQ4_oSVpdoDBMKglxlP-7" value="Exception" style="html=1;verticalAlign=bottom;endArrow=open;dashed=1;endSize=8;edgeStyle=elbowEdgeStyle;elbow=vertical;curved=0;rounded=0;" parent="1" source="QLGuTmRFl9R-WL1f5S8m-17" target="QLGuTmRFl9R-WL1f5S8m-4" edge="1">
          <mxGeometry relative="1" as="geometry">
            <mxPoint x="855" y="290" as="sourcePoint" />
            <mxPoint x="690" y="290" as="targetPoint" />
            <Array as="points">
              <mxPoint x="650" y="300" />
              <mxPoint x="610" y="290" />
              <mxPoint x="670" y="260" />
              <mxPoint x="760" y="270" />
              <mxPoint x="780" y="450" />
            </Array>
          </mxGeometry>
        </mxCell>
        <mxCell id="KtQ4_oSVpdoDBMKglxlP-8" value="Exception" style="html=1;verticalAlign=bottom;endArrow=open;dashed=1;endSize=8;edgeStyle=elbowEdgeStyle;elbow=vertical;curved=0;rounded=0;" parent="1" source="QLGuTmRFl9R-WL1f5S8m-4" target="QLGuTmRFl9R-WL1f5S8m-3" edge="1">
          <mxGeometry relative="1" as="geometry">
            <mxPoint x="432.5" y="279.47" as="sourcePoint" />
            <mxPoint x="237.5" y="279.47" as="targetPoint" />
            <Array as="points">
              <mxPoint x="420" y="310" />
              <mxPoint x="372.5" y="279.47" />
              <mxPoint x="432.5" y="249.47" />
              <mxPoint x="522.5" y="259.47" />
              <mxPoint x="542.5" y="439.47" />
            </Array>
          </mxGeometry>
        </mxCell>
        <mxCell id="KtQ4_oSVpdoDBMKglxlP-9" value="Mensagem de problema &lt;br&gt;com dados do cliente" style="html=1;verticalAlign=bottom;endArrow=open;dashed=1;endSize=8;edgeStyle=elbowEdgeStyle;elbow=vertical;curved=0;rounded=0;labelBackgroundColor=none;strokeColor=default;fontFamily=Helvetica;fontSize=11;fontColor=default;shape=connector;" parent="1" source="QLGuTmRFl9R-WL1f5S8m-3" target="LfbBMPiK4QH2cyrvZov5-5" edge="1">
          <mxGeometry relative="1" as="geometry">
            <mxPoint x="170" y="290" as="sourcePoint" />
            <mxPoint x="90" y="290" as="targetPoint" />
            <Array as="points">
              <mxPoint x="190" y="320" />
              <mxPoint x="150" y="310" />
            </Array>
          </mxGeometry>
        </mxCell>
        <mxCell id="KtQ4_oSVpdoDBMKglxlP-10" value="" style="line;strokeWidth=1;fillColor=none;align=left;verticalAlign=middle;spacingTop=-1;spacingLeft=3;spacingRight=3;rotatable=0;labelPosition=right;points=[];portConstraint=eastwest;strokeColor=inherit;fontFamily=Helvetica;fontSize=11;fontColor=default;labelBackgroundColor=none;dashed=1;" parent="1" vertex="1">
          <mxGeometry x="-30" y="260" width="910" height="8" as="geometry" />
        </mxCell>
        <mxCell id="KtQ4_oSVpdoDBMKglxlP-15" value="alt" style="shape=umlFrame;whiteSpace=wrap;html=1;pointerEvents=0;" parent="1" vertex="1">
          <mxGeometry x="-30" y="410" width="1110" height="160" as="geometry" />
        </mxCell>
        <mxCell id="KtQ4_oSVpdoDBMKglxlP-16" value="" style="line;strokeWidth=1;fillColor=none;align=left;verticalAlign=middle;spacingTop=-1;spacingLeft=3;spacingRight=3;rotatable=0;labelPosition=right;points=[];portConstraint=eastwest;strokeColor=inherit;fontFamily=Helvetica;fontSize=11;fontColor=default;labelBackgroundColor=none;dashed=1;" parent="1" vertex="1">
          <mxGeometry x="-30" y="476" width="1110" height="8" as="geometry" />
        </mxCell>
        <mxCell id="KtQ4_oSVpdoDBMKglxlP-17" value="true" style="html=1;verticalAlign=bottom;endArrow=open;dashed=1;endSize=8;edgeStyle=elbowEdgeStyle;elbow=vertical;curved=0;rounded=0;" parent="1" source="QLGuTmRFl9R-WL1f5S8m-23" target="QLGuTmRFl9R-WL1f5S8m-17" edge="1">
          <mxGeometry relative="1" as="geometry">
            <mxPoint x="1045" y="440" as="sourcePoint" />
            <mxPoint x="690" y="440" as="targetPoint" />
            <Array as="points">
              <mxPoint x="940" y="440" />
              <mxPoint x="820" y="400" />
              <mxPoint x="960" y="370" />
              <mxPoint x="960" y="300" />
              <mxPoint x="870" y="320" />
              <mxPoint x="800" y="300" />
            </Array>
          </mxGeometry>
        </mxCell>
        <mxCell id="KtQ4_oSVpdoDBMKglxlP-18" value="Exception" style="html=1;verticalAlign=bottom;endArrow=open;dashed=1;endSize=8;edgeStyle=elbowEdgeStyle;elbow=vertical;curved=0;rounded=0;" parent="1" source="QLGuTmRFl9R-WL1f5S8m-17" target="QLGuTmRFl9R-WL1f5S8m-4" edge="1">
          <mxGeometry relative="1" as="geometry">
            <mxPoint x="715" y="590" as="sourcePoint" />
            <mxPoint x="360" y="590" as="targetPoint" />
            <Array as="points">
              <mxPoint x="570" y="510" />
              <mxPoint x="600" y="590" />
              <mxPoint x="490" y="480" />
              <mxPoint x="630" y="450" />
              <mxPoint x="630" y="380" />
              <mxPoint x="540" y="400" />
              <mxPoint x="470" y="380" />
            </Array>
          </mxGeometry>
        </mxCell>
        <mxCell id="KtQ4_oSVpdoDBMKglxlP-19" value="Exception" style="html=1;verticalAlign=bottom;endArrow=open;dashed=1;endSize=8;edgeStyle=elbowEdgeStyle;elbow=vertical;curved=0;rounded=0;" parent="1" source="QLGuTmRFl9R-WL1f5S8m-4" target="QLGuTmRFl9R-WL1f5S8m-3" edge="1">
          <mxGeometry x="-0.0213" relative="1" as="geometry">
            <mxPoint x="440" y="580" as="sourcePoint" />
            <mxPoint x="248" y="580" as="targetPoint" />
            <Array as="points">
              <mxPoint x="440" y="520" />
              <mxPoint x="390" y="520" />
              <mxPoint x="518" y="580" />
              <mxPoint x="488" y="580" />
              <mxPoint x="378" y="470" />
              <mxPoint x="518" y="440" />
              <mxPoint x="518" y="370" />
              <mxPoint x="428" y="390" />
              <mxPoint x="358" y="370" />
            </Array>
            <mxPoint as="offset" />
          </mxGeometry>
        </mxCell>
        <mxCell id="KtQ4_oSVpdoDBMKglxlP-20" value="Mensagem de problema" style="html=1;verticalAlign=bottom;endArrow=open;dashed=1;endSize=8;edgeStyle=elbowEdgeStyle;elbow=vertical;curved=0;rounded=0;" parent="1" source="QLGuTmRFl9R-WL1f5S8m-3" target="LfbBMPiK4QH2cyrvZov5-5" edge="1">
          <mxGeometry x="-0.0213" relative="1" as="geometry">
            <mxPoint x="225" y="590" as="sourcePoint" />
            <mxPoint x="-10" y="590" as="targetPoint" />
            <Array as="points">
              <mxPoint x="190" y="530" />
              <mxPoint x="150" y="520" />
              <mxPoint x="278" y="650" />
              <mxPoint x="248" y="650" />
              <mxPoint x="138" y="540" />
              <mxPoint x="278" y="510" />
              <mxPoint x="278" y="440" />
              <mxPoint x="188" y="460" />
              <mxPoint x="118" y="440" />
            </Array>
            <mxPoint as="offset" />
          </mxGeometry>
        </mxCell>
      </root>
    </mxGraphModel>
  </diagram>
  <diagram id="I8oMM2T5V-x1JL09Tz24" name="Sequência R Aluguel">
    <mxGraphModel dx="1233" dy="1142" grid="1" gridSize="10" guides="1" tooltips="1" connect="1" arrows="1" fold="1" page="1" pageScale="1" pageWidth="850" pageHeight="1100" math="0" shadow="0">
      <root>
        <mxCell id="0" />
        <mxCell id="1" parent="0" />
        <mxCell id="oY8xaTYuzmUCnZ8S8gRC-1" value=":_crudServiceCliente" style="shape=umlLifeline;perimeter=lifelinePerimeter;whiteSpace=wrap;html=1;container=1;dropTarget=0;collapsible=0;recursiveResize=0;outlineConnect=0;portConstraint=eastwest;newEdgeStyle={&quot;edgeStyle&quot;:&quot;elbowEdgeStyle&quot;,&quot;elbow&quot;:&quot;vertical&quot;,&quot;curved&quot;:0,&quot;rounded&quot;:0};" vertex="1" parent="1">
          <mxGeometry x="810" y="10" width="130" height="590" as="geometry" />
        </mxCell>
        <mxCell id="oY8xaTYuzmUCnZ8S8gRC-2" value="" style="html=1;points=[];perimeter=orthogonalPerimeter;outlineConnect=0;targetShapes=umlLifeline;portConstraint=eastwest;newEdgeStyle={&quot;edgeStyle&quot;:&quot;elbowEdgeStyle&quot;,&quot;elbow&quot;:&quot;vertical&quot;,&quot;curved&quot;:0,&quot;rounded&quot;:0};" vertex="1" parent="oY8xaTYuzmUCnZ8S8gRC-1">
          <mxGeometry x="60" y="160" width="10" height="370" as="geometry" />
        </mxCell>
        <mxCell id="oY8xaTYuzmUCnZ8S8gRC-3" value="Atendente" style="shape=umlLifeline;perimeter=lifelinePerimeter;whiteSpace=wrap;html=1;container=1;dropTarget=0;collapsible=0;recursiveResize=0;outlineConnect=0;portConstraint=eastwest;newEdgeStyle={&quot;edgeStyle&quot;:&quot;elbowEdgeStyle&quot;,&quot;elbow&quot;:&quot;vertical&quot;,&quot;curved&quot;:0,&quot;rounded&quot;:0};participant=umlActor;verticalAlign=bottom;horizontal=1;labelPosition=center;verticalLabelPosition=top;align=center;" vertex="1" parent="1">
          <mxGeometry x="100" y="20" width="20" height="580" as="geometry" />
        </mxCell>
        <mxCell id="oY8xaTYuzmUCnZ8S8gRC-4" value="" style="shape=umlLifeline;perimeter=lifelinePerimeter;whiteSpace=wrap;html=1;container=1;dropTarget=0;collapsible=0;recursiveResize=0;outlineConnect=0;portConstraint=eastwest;newEdgeStyle={&quot;edgeStyle&quot;:&quot;elbowEdgeStyle&quot;,&quot;elbow&quot;:&quot;vertical&quot;,&quot;curved&quot;:0,&quot;rounded&quot;:0};participant=umlBoundary;" vertex="1" parent="1">
          <mxGeometry x="240" y="10" width="50" height="580" as="geometry" />
        </mxCell>
        <mxCell id="oY8xaTYuzmUCnZ8S8gRC-5" value="" style="html=1;points=[];perimeter=orthogonalPerimeter;outlineConnect=0;targetShapes=umlLifeline;portConstraint=eastwest;newEdgeStyle={&quot;edgeStyle&quot;:&quot;elbowEdgeStyle&quot;,&quot;elbow&quot;:&quot;vertical&quot;,&quot;curved&quot;:0,&quot;rounded&quot;:0};" vertex="1" parent="oY8xaTYuzmUCnZ8S8gRC-4">
          <mxGeometry x="20" y="90" width="10" height="450" as="geometry" />
        </mxCell>
        <mxCell id="oY8xaTYuzmUCnZ8S8gRC-6" value="" style="shape=umlLifeline;perimeter=lifelinePerimeter;whiteSpace=wrap;html=1;container=1;dropTarget=0;collapsible=0;recursiveResize=0;outlineConnect=0;portConstraint=eastwest;newEdgeStyle={&quot;edgeStyle&quot;:&quot;elbowEdgeStyle&quot;,&quot;elbow&quot;:&quot;vertical&quot;,&quot;curved&quot;:0,&quot;rounded&quot;:0};participant=umlControl;align=center;" vertex="1" parent="1">
          <mxGeometry x="550" y="10" width="40" height="560" as="geometry" />
        </mxCell>
        <mxCell id="oY8xaTYuzmUCnZ8S8gRC-7" value="" style="html=1;points=[];perimeter=orthogonalPerimeter;outlineConnect=0;targetShapes=umlLifeline;portConstraint=eastwest;newEdgeStyle={&quot;edgeStyle&quot;:&quot;elbowEdgeStyle&quot;,&quot;elbow&quot;:&quot;vertical&quot;,&quot;curved&quot;:0,&quot;rounded&quot;:0};" vertex="1" parent="oY8xaTYuzmUCnZ8S8gRC-6">
          <mxGeometry x="15" y="100" width="10" height="430" as="geometry" />
        </mxCell>
        <mxCell id="oY8xaTYuzmUCnZ8S8gRC-8" value="Informações do aluguel" style="html=1;verticalAlign=bottom;endArrow=block;edgeStyle=elbowEdgeStyle;elbow=vertical;curved=0;rounded=0;" edge="1" parent="1" source="oY8xaTYuzmUCnZ8S8gRC-3" target="oY8xaTYuzmUCnZ8S8gRC-4">
          <mxGeometry width="80" relative="1" as="geometry">
            <mxPoint x="300" y="180" as="sourcePoint" />
            <mxPoint x="380" y="180" as="targetPoint" />
            <Array as="points">
              <mxPoint x="145" y="100" />
            </Array>
          </mxGeometry>
        </mxCell>
        <mxCell id="oY8xaTYuzmUCnZ8S8gRC-9" value="BuscarAlugueis(aluguelBusca:Aluguel):List&amp;lt;Aluguel&amp;gt;()" style="html=1;verticalAlign=bottom;endArrow=block;edgeStyle=elbowEdgeStyle;elbow=vertical;curved=0;rounded=0;" edge="1" parent="1" source="oY8xaTYuzmUCnZ8S8gRC-5" target="oY8xaTYuzmUCnZ8S8gRC-7">
          <mxGeometry relative="1" as="geometry">
            <mxPoint x="280" y="110" as="sourcePoint" />
            <Array as="points">
              <mxPoint x="410" y="160" />
              <mxPoint x="360" y="110" />
            </Array>
          </mxGeometry>
        </mxCell>
        <mxCell id="oY8xaTYuzmUCnZ8S8gRC-10" value="List&amp;lt;Aluguel&amp;gt;()" style="html=1;verticalAlign=bottom;endArrow=open;dashed=1;endSize=8;edgeStyle=elbowEdgeStyle;elbow=vertical;curved=0;rounded=0;" edge="1" parent="1">
          <mxGeometry relative="1" as="geometry">
            <mxPoint x="270" y="250" as="targetPoint" />
            <Array as="points">
              <mxPoint x="440" y="250" />
              <mxPoint x="480" y="40" />
              <mxPoint x="450" y="60" />
              <mxPoint x="380" y="70" />
              <mxPoint x="320" y="-10" />
              <mxPoint x="310" y="-40" />
            </Array>
            <mxPoint x="565" y="250" as="sourcePoint" />
          </mxGeometry>
        </mxCell>
        <mxCell id="oY8xaTYuzmUCnZ8S8gRC-11" value="Lista de Alugueis" style="html=1;verticalAlign=bottom;endArrow=open;dashed=1;endSize=8;edgeStyle=elbowEdgeStyle;elbow=vertical;curved=0;rounded=0;labelBackgroundColor=none;" edge="1" parent="1">
          <mxGeometry x="-0.0713" y="-10" relative="1" as="geometry">
            <mxPoint x="260" y="260" as="sourcePoint" />
            <mxPoint x="109.4473684210526" y="260" as="targetPoint" />
            <Array as="points">
              <mxPoint x="200" y="260" />
              <mxPoint x="220" y="270" />
              <mxPoint x="240" y="50" />
              <mxPoint x="150" y="90" />
              <mxPoint x="230" y="70" />
              <mxPoint x="170" y="90" />
              <mxPoint x="180" y="60" />
              <mxPoint x="180" y="10" />
              <mxPoint x="190" y="-20" />
              <mxPoint x="245" y="-50" />
            </Array>
            <mxPoint as="offset" />
          </mxGeometry>
        </mxCell>
        <mxCell id="oY8xaTYuzmUCnZ8S8gRC-12" value=": _clienteDAO" style="shape=umlLifeline;perimeter=lifelinePerimeter;whiteSpace=wrap;html=1;container=1;dropTarget=0;collapsible=0;recursiveResize=0;outlineConnect=0;portConstraint=eastwest;newEdgeStyle={&quot;edgeStyle&quot;:&quot;elbowEdgeStyle&quot;,&quot;elbow&quot;:&quot;vertical&quot;,&quot;curved&quot;:0,&quot;rounded&quot;:0};" vertex="1" parent="1">
          <mxGeometry x="1170" y="10" width="140" height="590" as="geometry" />
        </mxCell>
        <mxCell id="oY8xaTYuzmUCnZ8S8gRC-13" value="" style="html=1;points=[];perimeter=orthogonalPerimeter;outlineConnect=0;targetShapes=umlLifeline;portConstraint=eastwest;newEdgeStyle={&quot;edgeStyle&quot;:&quot;elbowEdgeStyle&quot;,&quot;elbow&quot;:&quot;vertical&quot;,&quot;curved&quot;:0,&quot;rounded&quot;:0};" vertex="1" parent="oY8xaTYuzmUCnZ8S8gRC-12">
          <mxGeometry x="65" y="170" width="10" height="140" as="geometry" />
        </mxCell>
        <mxCell id="oY8xaTYuzmUCnZ8S8gRC-16" value="BuscarAlugueis(aluguelBusca:Aluguel):List&amp;lt;Aluguel&amp;gt;()" style="html=1;verticalAlign=bottom;endArrow=block;edgeStyle=elbowEdgeStyle;elbow=vertical;curved=0;rounded=0;" edge="1" parent="1" source="oY8xaTYuzmUCnZ8S8gRC-7" target="oY8xaTYuzmUCnZ8S8gRC-2">
          <mxGeometry width="80" relative="1" as="geometry">
            <mxPoint x="570" y="120" as="sourcePoint" />
            <mxPoint x="650" y="120" as="targetPoint" />
            <Array as="points">
              <mxPoint x="720" y="170" />
              <mxPoint x="665" y="120" />
            </Array>
          </mxGeometry>
        </mxCell>
        <mxCell id="oY8xaTYuzmUCnZ8S8gRC-19" value="BuscarAlugueis(aluguelBusca:Aluguel):List&amp;lt;Aluguel&amp;gt;()" style="html=1;verticalAlign=bottom;endArrow=block;edgeStyle=elbowEdgeStyle;elbow=vertical;curved=0;rounded=0;" edge="1" parent="1" source="oY8xaTYuzmUCnZ8S8gRC-2" target="oY8xaTYuzmUCnZ8S8gRC-13">
          <mxGeometry width="80" relative="1" as="geometry">
            <mxPoint x="940" y="250" as="sourcePoint" />
            <mxPoint x="1020" y="250" as="targetPoint" />
            <Array as="points">
              <mxPoint x="1110" y="180" />
              <mxPoint x="1160" y="380" />
              <mxPoint x="1140" y="370" />
              <mxPoint x="970" y="360" />
              <mxPoint x="1160" y="340" />
              <mxPoint x="930" y="250" />
              <mxPoint x="1050" y="260" />
            </Array>
          </mxGeometry>
        </mxCell>
        <mxCell id="oY8xaTYuzmUCnZ8S8gRC-20" value="Exception" style="html=1;verticalAlign=bottom;endArrow=open;dashed=1;endSize=8;edgeStyle=elbowEdgeStyle;elbow=vertical;curved=0;rounded=0;" edge="1" parent="1" source="oY8xaTYuzmUCnZ8S8gRC-13">
          <mxGeometry relative="1" as="geometry">
            <mxPoint x="1065" y="90" as="sourcePoint" />
            <mxPoint x="880" y="300" as="targetPoint" />
            <Array as="points">
              <mxPoint x="960" y="300" />
              <mxPoint x="1150" y="300" />
              <mxPoint x="1120" y="300" />
              <mxPoint x="1010" y="190" />
              <mxPoint x="1150" y="160" />
              <mxPoint x="1150" y="90" />
              <mxPoint x="1060" y="110" />
              <mxPoint x="990" y="90" />
            </Array>
          </mxGeometry>
        </mxCell>
        <mxCell id="oY8xaTYuzmUCnZ8S8gRC-21" value="List&amp;lt;Aluguel&amp;gt;()" style="html=1;verticalAlign=bottom;endArrow=open;dashed=1;endSize=8;edgeStyle=elbowEdgeStyle;elbow=vertical;curved=0;rounded=0;" edge="1" parent="1" source="oY8xaTYuzmUCnZ8S8gRC-2">
          <mxGeometry relative="1" as="geometry">
            <mxPoint x="575" y="240" as="targetPoint" />
            <mxPoint x="770" y="240" as="sourcePoint" />
            <Array as="points">
              <mxPoint x="650" y="240" />
              <mxPoint x="730" y="30" />
              <mxPoint x="630" y="90" />
              <mxPoint x="720" y="50" />
              <mxPoint x="670" y="60" />
              <mxPoint x="575" y="150" />
            </Array>
          </mxGeometry>
        </mxCell>
        <mxCell id="oY8xaTYuzmUCnZ8S8gRC-22" value=":aluguelRetorno" style="shape=umlLifeline;perimeter=lifelinePerimeter;whiteSpace=wrap;html=1;container=1;dropTarget=0;collapsible=0;recursiveResize=0;outlineConnect=0;portConstraint=eastwest;newEdgeStyle={&quot;edgeStyle&quot;:&quot;elbowEdgeStyle&quot;,&quot;elbow&quot;:&quot;vertical&quot;,&quot;curved&quot;:0,&quot;rounded&quot;:0};" vertex="1" parent="1">
          <mxGeometry x="310" y="10" width="130" height="120" as="geometry" />
        </mxCell>
        <mxCell id="oY8xaTYuzmUCnZ8S8gRC-23" value="" style="html=1;points=[];perimeter=orthogonalPerimeter;outlineConnect=0;targetShapes=umlLifeline;portConstraint=eastwest;newEdgeStyle={&quot;edgeStyle&quot;:&quot;elbowEdgeStyle&quot;,&quot;elbow&quot;:&quot;vertical&quot;,&quot;curved&quot;:0,&quot;rounded&quot;:0};" vertex="1" parent="oY8xaTYuzmUCnZ8S8gRC-22">
          <mxGeometry x="60" y="100" width="10" height="20" as="geometry" />
        </mxCell>
        <mxCell id="oY8xaTYuzmUCnZ8S8gRC-24" value="new()" style="html=1;verticalAlign=bottom;endArrow=block;edgeStyle=elbowEdgeStyle;elbow=vertical;curved=0;rounded=0;" edge="1" parent="1" source="oY8xaTYuzmUCnZ8S8gRC-5" target="oY8xaTYuzmUCnZ8S8gRC-23">
          <mxGeometry width="80" relative="1" as="geometry">
            <mxPoint x="280" y="350" as="sourcePoint" />
            <mxPoint x="360" y="350" as="targetPoint" />
            <Array as="points">
              <mxPoint x="300" y="110" />
              <mxPoint x="340" y="130" />
            </Array>
          </mxGeometry>
        </mxCell>
        <mxCell id="oY8xaTYuzmUCnZ8S8gRC-25" value="return" style="html=1;verticalAlign=bottom;endArrow=open;dashed=1;endSize=8;edgeStyle=elbowEdgeStyle;elbow=vertical;curved=0;rounded=0;" edge="1" parent="1" source="oY8xaTYuzmUCnZ8S8gRC-23" target="oY8xaTYuzmUCnZ8S8gRC-5">
          <mxGeometry relative="1" as="geometry">
            <mxPoint x="390" y="170" as="sourcePoint" />
            <mxPoint x="310" y="170" as="targetPoint" />
            <Array as="points">
              <mxPoint x="310" y="130" />
              <mxPoint x="320" y="150" />
            </Array>
          </mxGeometry>
        </mxCell>
        <mxCell id="oY8xaTYuzmUCnZ8S8gRC-32" value="alt" style="shape=umlFrame;whiteSpace=wrap;html=1;pointerEvents=0;" vertex="1" parent="1">
          <mxGeometry x="10" y="210" width="1260" height="160" as="geometry" />
        </mxCell>
        <mxCell id="oY8xaTYuzmUCnZ8S8gRC-33" value="" style="line;strokeWidth=1;fillColor=none;align=left;verticalAlign=middle;spacingTop=-1;spacingLeft=3;spacingRight=3;rotatable=0;labelPosition=right;points=[];portConstraint=eastwest;strokeColor=inherit;fontFamily=Helvetica;fontSize=11;fontColor=default;labelBackgroundColor=none;dashed=1;" vertex="1" parent="1">
          <mxGeometry x="10" y="276" width="1260" height="8" as="geometry" />
        </mxCell>
        <mxCell id="oY8xaTYuzmUCnZ8S8gRC-34" value="List&amp;lt;Aluguel&amp;gt;()" style="html=1;verticalAlign=bottom;endArrow=open;dashed=1;endSize=8;edgeStyle=elbowEdgeStyle;elbow=vertical;curved=0;rounded=0;" edge="1" parent="1" source="oY8xaTYuzmUCnZ8S8gRC-13">
          <mxGeometry relative="1" as="geometry">
            <mxPoint x="1245" y="240" as="sourcePoint" />
            <mxPoint x="880" y="240" as="targetPoint" />
            <Array as="points">
              <mxPoint x="1140" y="240" />
              <mxPoint x="1020" y="200" />
              <mxPoint x="1160" y="170" />
              <mxPoint x="1160" y="100" />
              <mxPoint x="1070" y="120" />
              <mxPoint x="1000" y="100" />
            </Array>
          </mxGeometry>
        </mxCell>
        <mxCell id="oY8xaTYuzmUCnZ8S8gRC-35" value="Exception" style="html=1;verticalAlign=bottom;endArrow=open;dashed=1;endSize=8;edgeStyle=elbowEdgeStyle;elbow=vertical;curved=0;rounded=0;" edge="1" parent="1" source="oY8xaTYuzmUCnZ8S8gRC-2">
          <mxGeometry relative="1" as="geometry">
            <mxPoint x="770" y="310" as="sourcePoint" />
            <mxPoint x="575" y="310" as="targetPoint" />
            <Array as="points">
              <mxPoint x="670" y="310" />
              <mxPoint x="700" y="390" />
              <mxPoint x="590" y="280" />
              <mxPoint x="730" y="250" />
              <mxPoint x="730" y="180" />
              <mxPoint x="640" y="200" />
              <mxPoint x="570" y="180" />
            </Array>
          </mxGeometry>
        </mxCell>
        <mxCell id="oY8xaTYuzmUCnZ8S8gRC-36" value="Exception" style="html=1;verticalAlign=bottom;endArrow=open;dashed=1;endSize=8;edgeStyle=elbowEdgeStyle;elbow=vertical;curved=0;rounded=0;" edge="1" parent="1">
          <mxGeometry x="-0.0213" relative="1" as="geometry">
            <mxPoint x="565" y="320" as="sourcePoint" />
            <mxPoint x="270" y="320" as="targetPoint" />
            <Array as="points">
              <mxPoint x="480" y="320" />
              <mxPoint x="430" y="320" />
              <mxPoint x="558" y="380" />
              <mxPoint x="528" y="380" />
              <mxPoint x="418" y="270" />
              <mxPoint x="558" y="240" />
              <mxPoint x="558" y="170" />
              <mxPoint x="468" y="190" />
              <mxPoint x="398" y="170" />
            </Array>
            <mxPoint as="offset" />
          </mxGeometry>
        </mxCell>
        <mxCell id="oY8xaTYuzmUCnZ8S8gRC-37" value="Mensagem de problema" style="html=1;verticalAlign=bottom;endArrow=open;dashed=1;endSize=8;edgeStyle=elbowEdgeStyle;elbow=vertical;curved=0;rounded=0;" edge="1" parent="1">
          <mxGeometry x="-0.0213" relative="1" as="geometry">
            <mxPoint x="260" y="330" as="sourcePoint" />
            <mxPoint x="109.4473684210526" y="330" as="targetPoint" />
            <Array as="points">
              <mxPoint x="230" y="330" />
              <mxPoint x="190" y="320" />
              <mxPoint x="318" y="450" />
              <mxPoint x="288" y="450" />
              <mxPoint x="178" y="340" />
              <mxPoint x="318" y="310" />
              <mxPoint x="318" y="240" />
              <mxPoint x="228" y="260" />
              <mxPoint x="158" y="240" />
            </Array>
            <mxPoint as="offset" />
          </mxGeometry>
        </mxCell>
      </root>
    </mxGraphModel>
  </diagram>
</mxfile>
